G04 #@! TF.FileFunction,Profile,NP*
%FSLAX46Y46*%
G04 Gerber Fmt 4.6, Leading zero omitted, Abs format (unit mm)*
G04 Created by KiCad (PCBNEW 4.0.7-e2-6376~61~ubuntu18.04.1) date Tue Nov  6 15:25:27 2018*
%MOMM*%
%LPD*%
G01*
G04 APERTURE LIST*
%ADD10C,0.200000*%
%ADD11C,0.150000*%
G04 APERTURE END LIST*
D10*
D11*
X34500000Y-77500000D02*
X46900000Y-77500000D01*
X34000000Y-77500000D02*
X34500000Y-77500000D01*
X47008000Y-77500000D02*
X91508000Y-77500000D01*
X32000000Y-77500000D02*
X34000000Y-77500000D01*
X75000000Y-58500000D02*
G75*
G03X74000000Y-57500000I-1000000J0D01*
G01*
X74000000Y-57500000D02*
G75*
G03X73000000Y-58500000I0J-1000000D01*
G01*
X75000000Y-73500000D02*
X75000000Y-58500000D01*
X74000000Y-74500000D02*
G75*
G03X75000000Y-73500000I0J1000000D01*
G01*
X73000000Y-73500000D02*
G75*
G03X74000000Y-74500000I1000000J0D01*
G01*
X73000000Y-73500000D02*
X73000000Y-58500000D01*
X29000000Y-40000000D02*
X29000000Y-24000000D01*
X29000000Y-40000000D02*
G75*
G03X30000000Y-41000000I1000000J0D01*
G01*
X33000000Y-41000000D02*
X30000000Y-41000000D01*
X34000000Y-42000000D02*
G75*
G03X33000000Y-41000000I-1000000J0D01*
G01*
X34000000Y-57000000D02*
X34000000Y-42000000D01*
X33000000Y-58000000D02*
G75*
G03X34000000Y-57000000I0J1000000D01*
G01*
X30000000Y-58000000D02*
X33000000Y-58000000D01*
X30000000Y-58000000D02*
G75*
G03X29000000Y-59000000I0J-1000000D01*
G01*
X29000000Y-74500000D02*
X29000000Y-59000000D01*
X29000000Y-74500000D02*
G75*
G03X32000000Y-77500000I3000000J0D01*
G01*
X91000000Y-77500000D02*
G75*
G03X94000000Y-74500000I0J3000000D01*
G01*
X94000000Y-24000000D02*
X94000000Y-74500000D01*
X94000000Y-24000000D02*
G75*
G03X91000000Y-21000000I-3000000J0D01*
G01*
X90000000Y-21000000D02*
X91000000Y-21000000D01*
X32000000Y-21000000D02*
G75*
G03X29000000Y-24000000I0J-3000000D01*
G01*
X32000000Y-21000000D02*
X90000000Y-21000000D01*
M02*
