G04 #@! TF.FileFunction,Soldermask,Bot*
%FSLAX46Y46*%
G04 Gerber Fmt 4.6, Leading zero omitted, Abs format (unit mm)*
G04 Created by KiCad (PCBNEW 4.0.7-e2-6376~61~ubuntu18.04.1) date Tue Nov  6 15:25:27 2018*
%MOMM*%
%LPD*%
G01*
G04 APERTURE LIST*
%ADD10C,0.200000*%
%ADD11R,1.524000X1.524000*%
%ADD12C,1.524000*%
%ADD13R,2.400000X2.400000*%
%ADD14C,2.400000*%
%ADD15C,3.200000*%
%ADD16O,3.500000X3.500000*%
%ADD17R,1.800000X1.800000*%
%ADD18O,1.800000X1.800000*%
G04 APERTURE END LIST*
D10*
D11*
X37370000Y-26270000D03*
D12*
X37370000Y-23730000D03*
X50070000Y-26270000D03*
X39910000Y-23730000D03*
X52610000Y-26270000D03*
X42450000Y-23730000D03*
X55150000Y-26270000D03*
X44990000Y-23730000D03*
X57690000Y-26270000D03*
X47530000Y-23730000D03*
X60230000Y-26270000D03*
X50070000Y-23730000D03*
X62770000Y-26270000D03*
X52610000Y-23730000D03*
X65310000Y-26270000D03*
X55150000Y-23730000D03*
X67850000Y-26270000D03*
X57690000Y-23730000D03*
X70390000Y-26270000D03*
X60230000Y-23730000D03*
X72930000Y-26270000D03*
X62770000Y-23730000D03*
X75470000Y-26270000D03*
X65310000Y-23730000D03*
X67850000Y-23730000D03*
X78010000Y-26270000D03*
X70390000Y-23730000D03*
X75470000Y-23730000D03*
X78010000Y-23730000D03*
X80550000Y-23730000D03*
X83090000Y-23730000D03*
X80550000Y-26270000D03*
X83090000Y-26270000D03*
X39910000Y-26270000D03*
X42450000Y-26270000D03*
X44990000Y-26270000D03*
X47530000Y-26270000D03*
X85630000Y-26270000D03*
X85630000Y-23730000D03*
X72930000Y-23730000D03*
D13*
X40132000Y-71628000D03*
D14*
X45132000Y-71628000D03*
X50132000Y-71628000D03*
D15*
X32500000Y-74000000D03*
X90500000Y-74000000D03*
X32500000Y-25000000D03*
X90500000Y-25000000D03*
D16*
X44450000Y-60348000D03*
D17*
X46990000Y-43688000D03*
D18*
X44450000Y-43688000D03*
X41910000Y-43688000D03*
D15*
X90043000Y-36830000D03*
X77470000Y-36830000D03*
X76708000Y-53848000D03*
X90043000Y-53848000D03*
M02*
