G04 #@! TF.FileFunction,Copper,L2,Bot,Signal*
%FSLAX46Y46*%
G04 Gerber Fmt 4.6, Leading zero omitted, Abs format (unit mm)*
G04 Created by KiCad (PCBNEW 4.0.7-e2-6376~61~ubuntu18.04.1) date Tue Nov  6 15:25:27 2018*
%MOMM*%
%LPD*%
G01*
G04 APERTURE LIST*
%ADD10C,0.200000*%
%ADD11R,1.524000X1.524000*%
%ADD12C,1.524000*%
%ADD13R,2.400000X2.400000*%
%ADD14C,2.400000*%
%ADD15R,1.800000X1.800000*%
%ADD16O,1.800000X1.800000*%
%ADD17R,4.900000X1.600000*%
%ADD18R,1.600000X4.900000*%
%ADD19C,0.889000*%
%ADD20C,0.400000*%
%ADD21C,0.500000*%
%ADD22C,1.000000*%
%ADD23C,0.254000*%
G04 APERTURE END LIST*
D10*
D11*
X37370000Y-26270000D03*
D12*
X37370000Y-23730000D03*
X50070000Y-26270000D03*
X39910000Y-23730000D03*
X52610000Y-26270000D03*
X42450000Y-23730000D03*
X55150000Y-26270000D03*
X44990000Y-23730000D03*
X57690000Y-26270000D03*
X47530000Y-23730000D03*
X60230000Y-26270000D03*
X50070000Y-23730000D03*
X62770000Y-26270000D03*
X52610000Y-23730000D03*
X65310000Y-26270000D03*
X55150000Y-23730000D03*
X67850000Y-26270000D03*
X57690000Y-23730000D03*
X70390000Y-26270000D03*
X60230000Y-23730000D03*
X72930000Y-26270000D03*
X62770000Y-23730000D03*
X75470000Y-26270000D03*
X65310000Y-23730000D03*
X67850000Y-23730000D03*
X78010000Y-26270000D03*
X70390000Y-23730000D03*
X75470000Y-23730000D03*
X78010000Y-23730000D03*
X80550000Y-23730000D03*
X83090000Y-23730000D03*
X80550000Y-26270000D03*
X83090000Y-26270000D03*
X39910000Y-26270000D03*
X42450000Y-26270000D03*
X44990000Y-26270000D03*
X47530000Y-26270000D03*
X85630000Y-26270000D03*
X85630000Y-23730000D03*
X72930000Y-23730000D03*
D13*
X40132000Y-71628000D03*
D14*
X45132000Y-71628000D03*
X50132000Y-71628000D03*
D15*
X46990000Y-43688000D03*
D16*
X44450000Y-43688000D03*
X41910000Y-43688000D03*
D17*
X31623000Y-32004000D03*
X31623000Y-37084000D03*
D18*
X58928000Y-74549000D03*
X64008000Y-74549000D03*
D19*
X69151500Y-42862500D03*
X69151500Y-46418500D03*
X69151500Y-49911000D03*
X69151500Y-52514500D03*
X69151500Y-54737000D03*
X69151500Y-57150000D03*
X69151500Y-59690000D03*
X70993000Y-66929000D03*
X70993000Y-64770000D03*
X70993000Y-62357000D03*
X59055000Y-62992000D03*
X59944000Y-65278000D03*
X63881000Y-62992000D03*
X63881000Y-66421000D03*
X63881000Y-65024000D03*
X58928000Y-70612000D03*
X64008000Y-70670000D03*
X49873000Y-28613000D03*
X64262000Y-40386000D03*
X64071500Y-38036500D03*
X61849000Y-37782500D03*
X58547000Y-37782500D03*
X64282000Y-45910500D03*
X64262000Y-49022000D03*
X64452500Y-53721000D03*
X64770000Y-60325000D03*
X62865000Y-60325000D03*
X59055000Y-60515500D03*
X59055000Y-58801000D03*
X59499500Y-54610000D03*
X59516000Y-51752500D03*
X58801000Y-47307500D03*
X58483500Y-45720000D03*
X58483500Y-42862500D03*
X58483500Y-40640000D03*
X55943500Y-34988500D03*
X59118500Y-34925000D03*
X62357000Y-34925000D03*
X69151500Y-35433000D03*
X69151500Y-39116000D03*
X54737000Y-62928500D03*
X54419500Y-60833000D03*
X54419500Y-57404000D03*
X54419500Y-53403500D03*
X54419500Y-49974500D03*
X54419500Y-46355000D03*
X54419500Y-43434000D03*
X54419500Y-40703500D03*
X59118500Y-39179500D03*
X50863500Y-39052500D03*
X64516000Y-56642000D03*
X45656500Y-55054500D03*
X45656500Y-53149500D03*
X45656500Y-50990500D03*
X45656500Y-48704500D03*
X45847000Y-46799500D03*
X47434500Y-46799500D03*
X47434500Y-48577500D03*
X47434500Y-50419000D03*
X47434500Y-52197000D03*
X47434500Y-53975000D03*
X47434500Y-55626000D03*
X47434500Y-57086500D03*
X45402500Y-57086500D03*
X43561000Y-57086500D03*
X43561000Y-55054500D03*
X43561000Y-52070000D03*
X43561000Y-49339500D03*
X43561000Y-46990000D03*
X41338500Y-36576000D03*
X43243500Y-36576000D03*
X38036500Y-32131000D03*
X35179000Y-36512500D03*
X35242500Y-32131000D03*
X45910500Y-38989000D03*
X59690000Y-68199000D03*
X63246000Y-68072000D03*
X56578500Y-27813000D03*
D20*
X69151500Y-59690000D02*
X69151500Y-60515500D01*
X69151500Y-42862500D02*
X69151500Y-46418500D01*
X69151500Y-49911000D02*
X69151500Y-52514500D01*
X69151500Y-54737000D02*
X69151500Y-57150000D01*
X70993000Y-64770000D02*
X70993000Y-66929000D01*
X69151500Y-60515500D02*
X70993000Y-62357000D01*
X59055000Y-62992000D02*
X59055000Y-64389000D01*
X58991500Y-62928500D02*
X59055000Y-62992000D01*
X54737000Y-62928500D02*
X58991500Y-62928500D01*
X59055000Y-64389000D02*
X59944000Y-65278000D01*
X63881000Y-62992000D02*
X63881000Y-65024000D01*
X64770000Y-62103000D02*
X63881000Y-62992000D01*
X64770000Y-60325000D02*
X64770000Y-62103000D01*
X63119000Y-64008000D02*
X65151000Y-64008000D01*
X65151000Y-64008000D02*
X65848000Y-63311000D01*
X58928000Y-70612000D02*
X58928000Y-70670000D01*
X59309000Y-70612000D02*
X59309000Y-70670000D01*
X59309000Y-70612000D02*
X59309000Y-70670000D01*
X64262000Y-38227000D02*
X64262000Y-40386000D01*
X64071500Y-38036500D02*
X64262000Y-38227000D01*
X58547000Y-37782500D02*
X61849000Y-37782500D01*
X64262000Y-49022000D02*
X64262000Y-45930500D01*
X64262000Y-45930500D02*
X64282000Y-45910500D01*
X64516000Y-56642000D02*
X64516000Y-53784500D01*
X64516000Y-53784500D02*
X64452500Y-53721000D01*
X62865000Y-60325000D02*
X64770000Y-60325000D01*
X59055000Y-58801000D02*
X59055000Y-60515500D01*
X59499500Y-51769000D02*
X59499500Y-54610000D01*
X59516000Y-51752500D02*
X59499500Y-51769000D01*
X58801000Y-46037500D02*
X58801000Y-47307500D01*
X58483500Y-45720000D02*
X58801000Y-46037500D01*
X58483500Y-40640000D02*
X58483500Y-42862500D01*
X59118500Y-39179500D02*
X69088000Y-39179500D01*
X59055000Y-34988500D02*
X55943500Y-34988500D01*
X59118500Y-34925000D02*
X59055000Y-34988500D01*
X62611000Y-34671000D02*
X62357000Y-34925000D01*
X68389500Y-34671000D02*
X62611000Y-34671000D01*
X69151500Y-35433000D02*
X68389500Y-34671000D01*
X69088000Y-39179500D02*
X69151500Y-39116000D01*
D21*
X54737000Y-62928500D02*
X54800500Y-62928500D01*
X54419500Y-57404000D02*
X54419500Y-60833000D01*
X54419500Y-49974500D02*
X54419500Y-53403500D01*
X54419500Y-43434000D02*
X54419500Y-46355000D01*
X52768500Y-39052500D02*
X54419500Y-40703500D01*
X50863500Y-39052500D02*
X52768500Y-39052500D01*
X53784500Y-39179500D02*
X53784500Y-32524500D01*
X53784500Y-32524500D02*
X49873000Y-28613000D01*
X49873000Y-28613000D02*
X47530000Y-26270000D01*
X50990500Y-39179500D02*
X53784500Y-39179500D01*
X53784500Y-39179500D02*
X59118500Y-39179500D01*
X50863500Y-39052500D02*
X50990500Y-39179500D01*
D22*
X64516000Y-58737500D02*
X64516000Y-56642000D01*
X65848000Y-60069500D02*
X64516000Y-58737500D01*
X57088000Y-70670000D02*
X58928000Y-70670000D01*
X58928000Y-70670000D02*
X59309000Y-70670000D01*
X59309000Y-70670000D02*
X64008000Y-70670000D01*
X64008000Y-70670000D02*
X65848000Y-70670000D01*
X65848000Y-70670000D02*
X65848000Y-64960500D01*
X65848000Y-64960500D02*
X65848000Y-63311000D01*
X65848000Y-63311000D02*
X65848000Y-60069500D01*
D20*
X45656500Y-53149500D02*
X45656500Y-55054500D01*
X45656500Y-48704500D02*
X45656500Y-50990500D01*
X47434500Y-46799500D02*
X45847000Y-46799500D01*
X47434500Y-50419000D02*
X47434500Y-48577500D01*
X47434500Y-53975000D02*
X47434500Y-52197000D01*
X47434500Y-57086500D02*
X47434500Y-55626000D01*
X43561000Y-57086500D02*
X45402500Y-57086500D01*
X43561000Y-52070000D02*
X43561000Y-55054500D01*
X43561000Y-46990000D02*
X43561000Y-49339500D01*
X43243500Y-36576000D02*
X41338500Y-36576000D01*
X35248000Y-38924000D02*
X35248000Y-36581500D01*
X35248000Y-36581500D02*
X35179000Y-36512500D01*
X35369500Y-32194500D02*
X35248000Y-32194500D01*
X35311500Y-32136500D02*
X35369500Y-32194500D01*
X35248000Y-32136500D02*
X35311500Y-32136500D01*
X35242500Y-32131000D02*
X35248000Y-32136500D01*
D22*
X35248000Y-38924000D02*
X45845500Y-38924000D01*
X45845500Y-38924000D02*
X45910500Y-38989000D01*
X35248000Y-38924000D02*
X35248000Y-66744000D01*
X35248000Y-66744000D02*
X40132000Y-71628000D01*
X35248000Y-30164000D02*
X35248000Y-32194500D01*
X35248000Y-32194500D02*
X35248000Y-38924000D01*
D21*
X59690000Y-68199000D02*
X59817000Y-68072000D01*
X59817000Y-68072000D02*
X63246000Y-68072000D01*
X40894000Y-25019000D02*
X39910000Y-24035000D01*
X56007000Y-25019000D02*
X40894000Y-25019000D01*
X56451500Y-25463500D02*
X56007000Y-25019000D01*
X56451500Y-27686000D02*
X56451500Y-25463500D01*
X56578500Y-27813000D02*
X56451500Y-27686000D01*
X39910000Y-24035000D02*
X39910000Y-23730000D01*
D23*
G36*
X91871023Y-21897167D02*
X92609439Y-22390561D01*
X93102833Y-23128977D01*
X93290000Y-24069931D01*
X93290000Y-74430069D01*
X93102833Y-75371023D01*
X92609439Y-76109439D01*
X91871023Y-76602833D01*
X90930069Y-76790000D01*
X65443000Y-76790000D01*
X65443000Y-75586202D01*
X89093403Y-75586202D01*
X89265390Y-75915360D01*
X90092346Y-76242026D01*
X90981363Y-76227365D01*
X91734610Y-75915360D01*
X91906597Y-75586202D01*
X90500000Y-74179605D01*
X89093403Y-75586202D01*
X65443000Y-75586202D01*
X65443000Y-74834750D01*
X65284250Y-74676000D01*
X64135000Y-74676000D01*
X64135000Y-74696000D01*
X63881000Y-74696000D01*
X63881000Y-74676000D01*
X62731750Y-74676000D01*
X62573000Y-74834750D01*
X62573000Y-76790000D01*
X60363000Y-76790000D01*
X60363000Y-74834750D01*
X60204250Y-74676000D01*
X59055000Y-74676000D01*
X59055000Y-74696000D01*
X58801000Y-74696000D01*
X58801000Y-74676000D01*
X57651750Y-74676000D01*
X57493000Y-74834750D01*
X57493000Y-76790000D01*
X53148286Y-76790000D01*
X53139684Y-71972690D01*
X57493000Y-71972690D01*
X57493000Y-74263250D01*
X57651750Y-74422000D01*
X58801000Y-74422000D01*
X58801000Y-71622750D01*
X59055000Y-71622750D01*
X59055000Y-74422000D01*
X60204250Y-74422000D01*
X60363000Y-74263250D01*
X60363000Y-71972690D01*
X62573000Y-71972690D01*
X62573000Y-74263250D01*
X62731750Y-74422000D01*
X63881000Y-74422000D01*
X63881000Y-71622750D01*
X64135000Y-71622750D01*
X64135000Y-74422000D01*
X65284250Y-74422000D01*
X65443000Y-74263250D01*
X65443000Y-71972690D01*
X65346327Y-71739301D01*
X65167698Y-71560673D01*
X64934309Y-71464000D01*
X64293750Y-71464000D01*
X64135000Y-71622750D01*
X63881000Y-71622750D01*
X63722250Y-71464000D01*
X63081691Y-71464000D01*
X62848302Y-71560673D01*
X62669673Y-71739301D01*
X62573000Y-71972690D01*
X60363000Y-71972690D01*
X60266327Y-71739301D01*
X60087698Y-71560673D01*
X59854309Y-71464000D01*
X59213750Y-71464000D01*
X59055000Y-71622750D01*
X58801000Y-71622750D01*
X58642250Y-71464000D01*
X58001691Y-71464000D01*
X57768302Y-71560673D01*
X57589673Y-71739301D01*
X57493000Y-71972690D01*
X53139684Y-71972690D01*
X53133327Y-68412784D01*
X58610313Y-68412784D01*
X58774311Y-68809689D01*
X59077714Y-69113622D01*
X59474332Y-69278313D01*
X59903784Y-69278687D01*
X60300689Y-69114689D01*
X60458653Y-68957000D01*
X62604144Y-68957000D01*
X62633714Y-68986622D01*
X63030332Y-69151313D01*
X63459784Y-69151687D01*
X63856689Y-68987689D01*
X64160622Y-68684286D01*
X64325313Y-68287668D01*
X64325687Y-67858216D01*
X64161689Y-67461311D01*
X63858286Y-67157378D01*
X63461668Y-66992687D01*
X63032216Y-66992313D01*
X62635311Y-67156311D01*
X62604568Y-67187000D01*
X60067775Y-67187000D01*
X59905668Y-67119687D01*
X59476216Y-67119313D01*
X59079311Y-67283311D01*
X58775378Y-67586714D01*
X58610687Y-67983332D01*
X58610313Y-68412784D01*
X53133327Y-68412784D01*
X53115626Y-58500000D01*
X72290000Y-58500000D01*
X72290000Y-73500000D01*
X72303642Y-73568584D01*
X72303642Y-73638513D01*
X72379762Y-74021196D01*
X72399395Y-74068593D01*
X72485776Y-74277138D01*
X72702549Y-74601561D01*
X72702550Y-74601562D01*
X72898438Y-74797451D01*
X73222862Y-75014223D01*
X73327842Y-75057707D01*
X73478804Y-75120238D01*
X73861486Y-75196358D01*
X74138513Y-75196358D01*
X74521196Y-75120238D01*
X74596160Y-75089187D01*
X74777138Y-75014224D01*
X75101561Y-74797451D01*
X75127307Y-74771705D01*
X75297451Y-74601562D01*
X75514223Y-74277138D01*
X75585299Y-74105545D01*
X75620238Y-74021196D01*
X75696358Y-73638514D01*
X75696358Y-73592346D01*
X88257974Y-73592346D01*
X88272635Y-74481363D01*
X88584640Y-75234610D01*
X88913798Y-75406597D01*
X90320395Y-74000000D01*
X90679605Y-74000000D01*
X92086202Y-75406597D01*
X92415360Y-75234610D01*
X92742026Y-74407654D01*
X92727365Y-73518637D01*
X92415360Y-72765390D01*
X92086202Y-72593403D01*
X90679605Y-74000000D01*
X90320395Y-74000000D01*
X88913798Y-72593403D01*
X88584640Y-72765390D01*
X88257974Y-73592346D01*
X75696358Y-73592346D01*
X75696358Y-73568584D01*
X75710000Y-73500000D01*
X75710000Y-72413798D01*
X89093403Y-72413798D01*
X90500000Y-73820395D01*
X91906597Y-72413798D01*
X91734610Y-72084640D01*
X90907654Y-71757974D01*
X90018637Y-71772635D01*
X89265390Y-72084640D01*
X89093403Y-72413798D01*
X75710000Y-72413798D01*
X75710000Y-58500000D01*
X75696358Y-58431416D01*
X75696358Y-58361486D01*
X75620238Y-57978804D01*
X75514223Y-57722863D01*
X75514223Y-57722862D01*
X75297451Y-57398438D01*
X75101562Y-57202550D01*
X75101561Y-57202549D01*
X74777138Y-56985776D01*
X74593368Y-56909657D01*
X74521196Y-56879762D01*
X74138513Y-56803642D01*
X74000000Y-56803642D01*
X73478804Y-56879762D01*
X73406632Y-56909657D01*
X73222862Y-56985777D01*
X72898438Y-57202549D01*
X72798820Y-57302168D01*
X72702549Y-57398439D01*
X72485776Y-57722862D01*
X72410813Y-57903840D01*
X72379762Y-57978804D01*
X72303642Y-58361487D01*
X72303642Y-58431416D01*
X72290000Y-58500000D01*
X53115626Y-58500000D01*
X53108110Y-54290619D01*
X74472613Y-54290619D01*
X74812155Y-55112372D01*
X75440321Y-55741636D01*
X76261481Y-56082611D01*
X77150619Y-56083387D01*
X77972372Y-55743845D01*
X78601636Y-55115679D01*
X78942611Y-54294519D01*
X78942614Y-54290619D01*
X87807613Y-54290619D01*
X88147155Y-55112372D01*
X88775321Y-55741636D01*
X89596481Y-56082611D01*
X90485619Y-56083387D01*
X91307372Y-55743845D01*
X91936636Y-55115679D01*
X92277611Y-54294519D01*
X92278387Y-53405381D01*
X91938845Y-52583628D01*
X91310679Y-51954364D01*
X90489519Y-51613389D01*
X89600381Y-51612613D01*
X88778628Y-51952155D01*
X88149364Y-52580321D01*
X87808389Y-53401481D01*
X87807613Y-54290619D01*
X78942614Y-54290619D01*
X78943387Y-53405381D01*
X78603845Y-52583628D01*
X77975679Y-51954364D01*
X77154519Y-51613389D01*
X76265381Y-51612613D01*
X75443628Y-51952155D01*
X74814364Y-52580321D01*
X74473389Y-53401481D01*
X74472613Y-54290619D01*
X53108110Y-54290619D01*
X53086000Y-41909773D01*
X53075906Y-41860381D01*
X53047391Y-41818807D01*
X53004948Y-41791603D01*
X52959000Y-41783000D01*
X48641000Y-41783000D01*
X48641000Y-37272619D01*
X75234613Y-37272619D01*
X75574155Y-38094372D01*
X76202321Y-38723636D01*
X77023481Y-39064611D01*
X77912619Y-39065387D01*
X78734372Y-38725845D01*
X79363636Y-38097679D01*
X79704611Y-37276519D01*
X79704614Y-37272619D01*
X87807613Y-37272619D01*
X88147155Y-38094372D01*
X88775321Y-38723636D01*
X89596481Y-39064611D01*
X90485619Y-39065387D01*
X91307372Y-38725845D01*
X91936636Y-38097679D01*
X92277611Y-37276519D01*
X92278387Y-36387381D01*
X91938845Y-35565628D01*
X91310679Y-34936364D01*
X90489519Y-34595389D01*
X89600381Y-34594613D01*
X88778628Y-34934155D01*
X88149364Y-35562321D01*
X87808389Y-36383481D01*
X87807613Y-37272619D01*
X79704614Y-37272619D01*
X79705387Y-36387381D01*
X79365845Y-35565628D01*
X78737679Y-34936364D01*
X77916519Y-34595389D01*
X77027381Y-34594613D01*
X76205628Y-34934155D01*
X75576364Y-35562321D01*
X75235389Y-36383481D01*
X75234613Y-37272619D01*
X48641000Y-37272619D01*
X48641000Y-27033095D01*
X48752397Y-27001143D01*
X48802509Y-26860682D01*
X48884990Y-27060303D01*
X49277630Y-27453629D01*
X49790900Y-27666757D01*
X50346661Y-27667242D01*
X50860303Y-27455010D01*
X51253629Y-27062370D01*
X51339949Y-26854488D01*
X51424990Y-27060303D01*
X51817630Y-27453629D01*
X52330900Y-27666757D01*
X52886661Y-27667242D01*
X53400303Y-27455010D01*
X53793629Y-27062370D01*
X53879949Y-26854488D01*
X53964990Y-27060303D01*
X54357630Y-27453629D01*
X54870900Y-27666757D01*
X55426661Y-27667242D01*
X55499152Y-27637289D01*
X55498813Y-28026784D01*
X55662811Y-28423689D01*
X55966214Y-28727622D01*
X56362832Y-28892313D01*
X56792284Y-28892687D01*
X57189189Y-28728689D01*
X57493122Y-28425286D01*
X57657813Y-28028668D01*
X57658128Y-27666973D01*
X57966661Y-27667242D01*
X58480303Y-27455010D01*
X58873629Y-27062370D01*
X58959949Y-26854488D01*
X59044990Y-27060303D01*
X59437630Y-27453629D01*
X59950900Y-27666757D01*
X60506661Y-27667242D01*
X61020303Y-27455010D01*
X61413629Y-27062370D01*
X61499949Y-26854488D01*
X61584990Y-27060303D01*
X61977630Y-27453629D01*
X62490900Y-27666757D01*
X63046661Y-27667242D01*
X63560303Y-27455010D01*
X63953629Y-27062370D01*
X64039949Y-26854488D01*
X64124990Y-27060303D01*
X64517630Y-27453629D01*
X65030900Y-27666757D01*
X65586661Y-27667242D01*
X66100303Y-27455010D01*
X66305457Y-27250213D01*
X67049392Y-27250213D01*
X67118857Y-27492397D01*
X67642302Y-27679144D01*
X68197368Y-27651362D01*
X68581143Y-27492397D01*
X68650608Y-27250213D01*
X67850000Y-26449605D01*
X67049392Y-27250213D01*
X66305457Y-27250213D01*
X66493629Y-27062370D01*
X66573395Y-26870273D01*
X66627603Y-27001143D01*
X66869787Y-27070608D01*
X67670395Y-26270000D01*
X66869787Y-25469392D01*
X66627603Y-25538857D01*
X66577491Y-25679318D01*
X66495010Y-25479697D01*
X66102370Y-25086371D01*
X65894488Y-25000051D01*
X66100303Y-24915010D01*
X66493629Y-24522370D01*
X66579949Y-24314488D01*
X66664990Y-24520303D01*
X67057630Y-24913629D01*
X67249727Y-24993395D01*
X67118857Y-25047603D01*
X67049392Y-25289787D01*
X67850000Y-26090395D01*
X68650608Y-25289787D01*
X68581143Y-25047603D01*
X68440682Y-24997491D01*
X68640303Y-24915010D01*
X69033629Y-24522370D01*
X69119949Y-24314488D01*
X69204990Y-24520303D01*
X69597630Y-24913629D01*
X69805512Y-24999949D01*
X69599697Y-25084990D01*
X69206371Y-25477630D01*
X69126605Y-25669727D01*
X69072397Y-25538857D01*
X68830213Y-25469392D01*
X68029605Y-26270000D01*
X68830213Y-27070608D01*
X69072397Y-27001143D01*
X69122509Y-26860682D01*
X69204990Y-27060303D01*
X69597630Y-27453629D01*
X70110900Y-27666757D01*
X70666661Y-27667242D01*
X71180303Y-27455010D01*
X71573629Y-27062370D01*
X71659949Y-26854488D01*
X71744990Y-27060303D01*
X72137630Y-27453629D01*
X72650900Y-27666757D01*
X73206661Y-27667242D01*
X73720303Y-27455010D01*
X74113629Y-27062370D01*
X74199949Y-26854488D01*
X74284990Y-27060303D01*
X74677630Y-27453629D01*
X75190900Y-27666757D01*
X75746661Y-27667242D01*
X76260303Y-27455010D01*
X76653629Y-27062370D01*
X76739949Y-26854488D01*
X76824990Y-27060303D01*
X77217630Y-27453629D01*
X77730900Y-27666757D01*
X78286661Y-27667242D01*
X78800303Y-27455010D01*
X79193629Y-27062370D01*
X79279949Y-26854488D01*
X79364990Y-27060303D01*
X79757630Y-27453629D01*
X80270900Y-27666757D01*
X80826661Y-27667242D01*
X81340303Y-27455010D01*
X81733629Y-27062370D01*
X81819949Y-26854488D01*
X81904990Y-27060303D01*
X82297630Y-27453629D01*
X82810900Y-27666757D01*
X83366661Y-27667242D01*
X83880303Y-27455010D01*
X84085457Y-27250213D01*
X84829392Y-27250213D01*
X84898857Y-27492397D01*
X85422302Y-27679144D01*
X85977368Y-27651362D01*
X86361143Y-27492397D01*
X86430608Y-27250213D01*
X85630000Y-26449605D01*
X84829392Y-27250213D01*
X84085457Y-27250213D01*
X84273629Y-27062370D01*
X84353395Y-26870273D01*
X84407603Y-27001143D01*
X84649787Y-27070608D01*
X85450395Y-26270000D01*
X85809605Y-26270000D01*
X86610213Y-27070608D01*
X86852397Y-27001143D01*
X87000433Y-26586202D01*
X89093403Y-26586202D01*
X89265390Y-26915360D01*
X90092346Y-27242026D01*
X90981363Y-27227365D01*
X91734610Y-26915360D01*
X91906597Y-26586202D01*
X90500000Y-25179605D01*
X89093403Y-26586202D01*
X87000433Y-26586202D01*
X87039144Y-26477698D01*
X87011362Y-25922632D01*
X86852397Y-25538857D01*
X86610213Y-25469392D01*
X85809605Y-26270000D01*
X85450395Y-26270000D01*
X84649787Y-25469392D01*
X84407603Y-25538857D01*
X84357491Y-25679318D01*
X84275010Y-25479697D01*
X83882370Y-25086371D01*
X83674488Y-25000051D01*
X83880303Y-24915010D01*
X84273629Y-24522370D01*
X84359949Y-24314488D01*
X84444990Y-24520303D01*
X84837630Y-24913629D01*
X85029727Y-24993395D01*
X84898857Y-25047603D01*
X84829392Y-25289787D01*
X85630000Y-26090395D01*
X86430608Y-25289787D01*
X86361143Y-25047603D01*
X86220682Y-24997491D01*
X86420303Y-24915010D01*
X86743530Y-24592346D01*
X88257974Y-24592346D01*
X88272635Y-25481363D01*
X88584640Y-26234610D01*
X88913798Y-26406597D01*
X90320395Y-25000000D01*
X90679605Y-25000000D01*
X92086202Y-26406597D01*
X92415360Y-26234610D01*
X92742026Y-25407654D01*
X92727365Y-24518637D01*
X92415360Y-23765390D01*
X92086202Y-23593403D01*
X90679605Y-25000000D01*
X90320395Y-25000000D01*
X88913798Y-23593403D01*
X88584640Y-23765390D01*
X88257974Y-24592346D01*
X86743530Y-24592346D01*
X86813629Y-24522370D01*
X87026757Y-24009100D01*
X87027242Y-23453339D01*
X87010905Y-23413798D01*
X89093403Y-23413798D01*
X90500000Y-24820395D01*
X91906597Y-23413798D01*
X91734610Y-23084640D01*
X90907654Y-22757974D01*
X90018637Y-22772635D01*
X89265390Y-23084640D01*
X89093403Y-23413798D01*
X87010905Y-23413798D01*
X86815010Y-22939697D01*
X86422370Y-22546371D01*
X85909100Y-22333243D01*
X85353339Y-22332758D01*
X84839697Y-22544990D01*
X84446371Y-22937630D01*
X84360051Y-23145512D01*
X84275010Y-22939697D01*
X83882370Y-22546371D01*
X83369100Y-22333243D01*
X82813339Y-22332758D01*
X82299697Y-22544990D01*
X81906371Y-22937630D01*
X81820051Y-23145512D01*
X81735010Y-22939697D01*
X81342370Y-22546371D01*
X80829100Y-22333243D01*
X80273339Y-22332758D01*
X79759697Y-22544990D01*
X79366371Y-22937630D01*
X79286605Y-23129727D01*
X79232397Y-22998857D01*
X78990213Y-22929392D01*
X78189605Y-23730000D01*
X78990213Y-24530608D01*
X79232397Y-24461143D01*
X79282509Y-24320682D01*
X79364990Y-24520303D01*
X79757630Y-24913629D01*
X79965512Y-24999949D01*
X79759697Y-25084990D01*
X79366371Y-25477630D01*
X79280051Y-25685512D01*
X79195010Y-25479697D01*
X78802370Y-25086371D01*
X78610273Y-25006605D01*
X78741143Y-24952397D01*
X78810608Y-24710213D01*
X78010000Y-23909605D01*
X77209392Y-24710213D01*
X77278857Y-24952397D01*
X77419318Y-25002509D01*
X77219697Y-25084990D01*
X76826371Y-25477630D01*
X76740051Y-25685512D01*
X76655010Y-25479697D01*
X76262370Y-25086371D01*
X76054488Y-25000051D01*
X76260303Y-24915010D01*
X76653629Y-24522370D01*
X76733395Y-24330273D01*
X76787603Y-24461143D01*
X77029787Y-24530608D01*
X77830395Y-23730000D01*
X77029787Y-22929392D01*
X76787603Y-22998857D01*
X76737491Y-23139318D01*
X76655010Y-22939697D01*
X76465432Y-22749787D01*
X77209392Y-22749787D01*
X78010000Y-23550395D01*
X78810608Y-22749787D01*
X78741143Y-22507603D01*
X78217698Y-22320856D01*
X77662632Y-22348638D01*
X77278857Y-22507603D01*
X77209392Y-22749787D01*
X76465432Y-22749787D01*
X76262370Y-22546371D01*
X75749100Y-22333243D01*
X75193339Y-22332758D01*
X74679697Y-22544990D01*
X74286371Y-22937630D01*
X74206605Y-23129727D01*
X74152397Y-22998857D01*
X73910213Y-22929392D01*
X73109605Y-23730000D01*
X73910213Y-24530608D01*
X74152397Y-24461143D01*
X74202509Y-24320682D01*
X74284990Y-24520303D01*
X74677630Y-24913629D01*
X74885512Y-24999949D01*
X74679697Y-25084990D01*
X74286371Y-25477630D01*
X74200051Y-25685512D01*
X74115010Y-25479697D01*
X73722370Y-25086371D01*
X73530273Y-25006605D01*
X73661143Y-24952397D01*
X73730608Y-24710213D01*
X72930000Y-23909605D01*
X72129392Y-24710213D01*
X72198857Y-24952397D01*
X72339318Y-25002509D01*
X72139697Y-25084990D01*
X71746371Y-25477630D01*
X71660051Y-25685512D01*
X71575010Y-25479697D01*
X71182370Y-25086371D01*
X70974488Y-25000051D01*
X71180303Y-24915010D01*
X71573629Y-24522370D01*
X71653395Y-24330273D01*
X71707603Y-24461143D01*
X71949787Y-24530608D01*
X72750395Y-23730000D01*
X71949787Y-22929392D01*
X71707603Y-22998857D01*
X71657491Y-23139318D01*
X71575010Y-22939697D01*
X71385432Y-22749787D01*
X72129392Y-22749787D01*
X72930000Y-23550395D01*
X73730608Y-22749787D01*
X73661143Y-22507603D01*
X73137698Y-22320856D01*
X72582632Y-22348638D01*
X72198857Y-22507603D01*
X72129392Y-22749787D01*
X71385432Y-22749787D01*
X71182370Y-22546371D01*
X70669100Y-22333243D01*
X70113339Y-22332758D01*
X69599697Y-22544990D01*
X69206371Y-22937630D01*
X69120051Y-23145512D01*
X69035010Y-22939697D01*
X68642370Y-22546371D01*
X68129100Y-22333243D01*
X67573339Y-22332758D01*
X67059697Y-22544990D01*
X66666371Y-22937630D01*
X66580051Y-23145512D01*
X66495010Y-22939697D01*
X66102370Y-22546371D01*
X65589100Y-22333243D01*
X65033339Y-22332758D01*
X64519697Y-22544990D01*
X64126371Y-22937630D01*
X64040051Y-23145512D01*
X63955010Y-22939697D01*
X63562370Y-22546371D01*
X63049100Y-22333243D01*
X62493339Y-22332758D01*
X61979697Y-22544990D01*
X61586371Y-22937630D01*
X61506605Y-23129727D01*
X61452397Y-22998857D01*
X61210213Y-22929392D01*
X60409605Y-23730000D01*
X61210213Y-24530608D01*
X61452397Y-24461143D01*
X61502509Y-24320682D01*
X61584990Y-24520303D01*
X61977630Y-24913629D01*
X62185512Y-24999949D01*
X61979697Y-25084990D01*
X61586371Y-25477630D01*
X61500051Y-25685512D01*
X61415010Y-25479697D01*
X61022370Y-25086371D01*
X60830273Y-25006605D01*
X60961143Y-24952397D01*
X61030608Y-24710213D01*
X60230000Y-23909605D01*
X59429392Y-24710213D01*
X59498857Y-24952397D01*
X59639318Y-25002509D01*
X59439697Y-25084990D01*
X59046371Y-25477630D01*
X58960051Y-25685512D01*
X58875010Y-25479697D01*
X58482370Y-25086371D01*
X58274488Y-25000051D01*
X58480303Y-24915010D01*
X58873629Y-24522370D01*
X58953395Y-24330273D01*
X59007603Y-24461143D01*
X59249787Y-24530608D01*
X60050395Y-23730000D01*
X59249787Y-22929392D01*
X59007603Y-22998857D01*
X58957491Y-23139318D01*
X58875010Y-22939697D01*
X58685432Y-22749787D01*
X59429392Y-22749787D01*
X60230000Y-23550395D01*
X61030608Y-22749787D01*
X60961143Y-22507603D01*
X60437698Y-22320856D01*
X59882632Y-22348638D01*
X59498857Y-22507603D01*
X59429392Y-22749787D01*
X58685432Y-22749787D01*
X58482370Y-22546371D01*
X57969100Y-22333243D01*
X57413339Y-22332758D01*
X56899697Y-22544990D01*
X56506371Y-22937630D01*
X56420051Y-23145512D01*
X56335010Y-22939697D01*
X55942370Y-22546371D01*
X55429100Y-22333243D01*
X54873339Y-22332758D01*
X54359697Y-22544990D01*
X53966371Y-22937630D01*
X53886605Y-23129727D01*
X53832397Y-22998857D01*
X53590213Y-22929392D01*
X52789605Y-23730000D01*
X52803748Y-23744143D01*
X52624143Y-23923748D01*
X52610000Y-23909605D01*
X52595858Y-23923748D01*
X52416253Y-23744143D01*
X52430395Y-23730000D01*
X51629787Y-22929392D01*
X51387603Y-22998857D01*
X51337491Y-23139318D01*
X51255010Y-22939697D01*
X51065432Y-22749787D01*
X51809392Y-22749787D01*
X52610000Y-23550395D01*
X53410608Y-22749787D01*
X53341143Y-22507603D01*
X52817698Y-22320856D01*
X52262632Y-22348638D01*
X51878857Y-22507603D01*
X51809392Y-22749787D01*
X51065432Y-22749787D01*
X50862370Y-22546371D01*
X50349100Y-22333243D01*
X49793339Y-22332758D01*
X49279697Y-22544990D01*
X48886371Y-22937630D01*
X48800051Y-23145512D01*
X48715010Y-22939697D01*
X48641000Y-22865558D01*
X48641000Y-21710000D01*
X90930069Y-21710000D01*
X91871023Y-21897167D01*
X91871023Y-21897167D01*
G37*
X91871023Y-21897167D02*
X92609439Y-22390561D01*
X93102833Y-23128977D01*
X93290000Y-24069931D01*
X93290000Y-74430069D01*
X93102833Y-75371023D01*
X92609439Y-76109439D01*
X91871023Y-76602833D01*
X90930069Y-76790000D01*
X65443000Y-76790000D01*
X65443000Y-75586202D01*
X89093403Y-75586202D01*
X89265390Y-75915360D01*
X90092346Y-76242026D01*
X90981363Y-76227365D01*
X91734610Y-75915360D01*
X91906597Y-75586202D01*
X90500000Y-74179605D01*
X89093403Y-75586202D01*
X65443000Y-75586202D01*
X65443000Y-74834750D01*
X65284250Y-74676000D01*
X64135000Y-74676000D01*
X64135000Y-74696000D01*
X63881000Y-74696000D01*
X63881000Y-74676000D01*
X62731750Y-74676000D01*
X62573000Y-74834750D01*
X62573000Y-76790000D01*
X60363000Y-76790000D01*
X60363000Y-74834750D01*
X60204250Y-74676000D01*
X59055000Y-74676000D01*
X59055000Y-74696000D01*
X58801000Y-74696000D01*
X58801000Y-74676000D01*
X57651750Y-74676000D01*
X57493000Y-74834750D01*
X57493000Y-76790000D01*
X53148286Y-76790000D01*
X53139684Y-71972690D01*
X57493000Y-71972690D01*
X57493000Y-74263250D01*
X57651750Y-74422000D01*
X58801000Y-74422000D01*
X58801000Y-71622750D01*
X59055000Y-71622750D01*
X59055000Y-74422000D01*
X60204250Y-74422000D01*
X60363000Y-74263250D01*
X60363000Y-71972690D01*
X62573000Y-71972690D01*
X62573000Y-74263250D01*
X62731750Y-74422000D01*
X63881000Y-74422000D01*
X63881000Y-71622750D01*
X64135000Y-71622750D01*
X64135000Y-74422000D01*
X65284250Y-74422000D01*
X65443000Y-74263250D01*
X65443000Y-71972690D01*
X65346327Y-71739301D01*
X65167698Y-71560673D01*
X64934309Y-71464000D01*
X64293750Y-71464000D01*
X64135000Y-71622750D01*
X63881000Y-71622750D01*
X63722250Y-71464000D01*
X63081691Y-71464000D01*
X62848302Y-71560673D01*
X62669673Y-71739301D01*
X62573000Y-71972690D01*
X60363000Y-71972690D01*
X60266327Y-71739301D01*
X60087698Y-71560673D01*
X59854309Y-71464000D01*
X59213750Y-71464000D01*
X59055000Y-71622750D01*
X58801000Y-71622750D01*
X58642250Y-71464000D01*
X58001691Y-71464000D01*
X57768302Y-71560673D01*
X57589673Y-71739301D01*
X57493000Y-71972690D01*
X53139684Y-71972690D01*
X53133327Y-68412784D01*
X58610313Y-68412784D01*
X58774311Y-68809689D01*
X59077714Y-69113622D01*
X59474332Y-69278313D01*
X59903784Y-69278687D01*
X60300689Y-69114689D01*
X60458653Y-68957000D01*
X62604144Y-68957000D01*
X62633714Y-68986622D01*
X63030332Y-69151313D01*
X63459784Y-69151687D01*
X63856689Y-68987689D01*
X64160622Y-68684286D01*
X64325313Y-68287668D01*
X64325687Y-67858216D01*
X64161689Y-67461311D01*
X63858286Y-67157378D01*
X63461668Y-66992687D01*
X63032216Y-66992313D01*
X62635311Y-67156311D01*
X62604568Y-67187000D01*
X60067775Y-67187000D01*
X59905668Y-67119687D01*
X59476216Y-67119313D01*
X59079311Y-67283311D01*
X58775378Y-67586714D01*
X58610687Y-67983332D01*
X58610313Y-68412784D01*
X53133327Y-68412784D01*
X53115626Y-58500000D01*
X72290000Y-58500000D01*
X72290000Y-73500000D01*
X72303642Y-73568584D01*
X72303642Y-73638513D01*
X72379762Y-74021196D01*
X72399395Y-74068593D01*
X72485776Y-74277138D01*
X72702549Y-74601561D01*
X72702550Y-74601562D01*
X72898438Y-74797451D01*
X73222862Y-75014223D01*
X73327842Y-75057707D01*
X73478804Y-75120238D01*
X73861486Y-75196358D01*
X74138513Y-75196358D01*
X74521196Y-75120238D01*
X74596160Y-75089187D01*
X74777138Y-75014224D01*
X75101561Y-74797451D01*
X75127307Y-74771705D01*
X75297451Y-74601562D01*
X75514223Y-74277138D01*
X75585299Y-74105545D01*
X75620238Y-74021196D01*
X75696358Y-73638514D01*
X75696358Y-73592346D01*
X88257974Y-73592346D01*
X88272635Y-74481363D01*
X88584640Y-75234610D01*
X88913798Y-75406597D01*
X90320395Y-74000000D01*
X90679605Y-74000000D01*
X92086202Y-75406597D01*
X92415360Y-75234610D01*
X92742026Y-74407654D01*
X92727365Y-73518637D01*
X92415360Y-72765390D01*
X92086202Y-72593403D01*
X90679605Y-74000000D01*
X90320395Y-74000000D01*
X88913798Y-72593403D01*
X88584640Y-72765390D01*
X88257974Y-73592346D01*
X75696358Y-73592346D01*
X75696358Y-73568584D01*
X75710000Y-73500000D01*
X75710000Y-72413798D01*
X89093403Y-72413798D01*
X90500000Y-73820395D01*
X91906597Y-72413798D01*
X91734610Y-72084640D01*
X90907654Y-71757974D01*
X90018637Y-71772635D01*
X89265390Y-72084640D01*
X89093403Y-72413798D01*
X75710000Y-72413798D01*
X75710000Y-58500000D01*
X75696358Y-58431416D01*
X75696358Y-58361486D01*
X75620238Y-57978804D01*
X75514223Y-57722863D01*
X75514223Y-57722862D01*
X75297451Y-57398438D01*
X75101562Y-57202550D01*
X75101561Y-57202549D01*
X74777138Y-56985776D01*
X74593368Y-56909657D01*
X74521196Y-56879762D01*
X74138513Y-56803642D01*
X74000000Y-56803642D01*
X73478804Y-56879762D01*
X73406632Y-56909657D01*
X73222862Y-56985777D01*
X72898438Y-57202549D01*
X72798820Y-57302168D01*
X72702549Y-57398439D01*
X72485776Y-57722862D01*
X72410813Y-57903840D01*
X72379762Y-57978804D01*
X72303642Y-58361487D01*
X72303642Y-58431416D01*
X72290000Y-58500000D01*
X53115626Y-58500000D01*
X53108110Y-54290619D01*
X74472613Y-54290619D01*
X74812155Y-55112372D01*
X75440321Y-55741636D01*
X76261481Y-56082611D01*
X77150619Y-56083387D01*
X77972372Y-55743845D01*
X78601636Y-55115679D01*
X78942611Y-54294519D01*
X78942614Y-54290619D01*
X87807613Y-54290619D01*
X88147155Y-55112372D01*
X88775321Y-55741636D01*
X89596481Y-56082611D01*
X90485619Y-56083387D01*
X91307372Y-55743845D01*
X91936636Y-55115679D01*
X92277611Y-54294519D01*
X92278387Y-53405381D01*
X91938845Y-52583628D01*
X91310679Y-51954364D01*
X90489519Y-51613389D01*
X89600381Y-51612613D01*
X88778628Y-51952155D01*
X88149364Y-52580321D01*
X87808389Y-53401481D01*
X87807613Y-54290619D01*
X78942614Y-54290619D01*
X78943387Y-53405381D01*
X78603845Y-52583628D01*
X77975679Y-51954364D01*
X77154519Y-51613389D01*
X76265381Y-51612613D01*
X75443628Y-51952155D01*
X74814364Y-52580321D01*
X74473389Y-53401481D01*
X74472613Y-54290619D01*
X53108110Y-54290619D01*
X53086000Y-41909773D01*
X53075906Y-41860381D01*
X53047391Y-41818807D01*
X53004948Y-41791603D01*
X52959000Y-41783000D01*
X48641000Y-41783000D01*
X48641000Y-37272619D01*
X75234613Y-37272619D01*
X75574155Y-38094372D01*
X76202321Y-38723636D01*
X77023481Y-39064611D01*
X77912619Y-39065387D01*
X78734372Y-38725845D01*
X79363636Y-38097679D01*
X79704611Y-37276519D01*
X79704614Y-37272619D01*
X87807613Y-37272619D01*
X88147155Y-38094372D01*
X88775321Y-38723636D01*
X89596481Y-39064611D01*
X90485619Y-39065387D01*
X91307372Y-38725845D01*
X91936636Y-38097679D01*
X92277611Y-37276519D01*
X92278387Y-36387381D01*
X91938845Y-35565628D01*
X91310679Y-34936364D01*
X90489519Y-34595389D01*
X89600381Y-34594613D01*
X88778628Y-34934155D01*
X88149364Y-35562321D01*
X87808389Y-36383481D01*
X87807613Y-37272619D01*
X79704614Y-37272619D01*
X79705387Y-36387381D01*
X79365845Y-35565628D01*
X78737679Y-34936364D01*
X77916519Y-34595389D01*
X77027381Y-34594613D01*
X76205628Y-34934155D01*
X75576364Y-35562321D01*
X75235389Y-36383481D01*
X75234613Y-37272619D01*
X48641000Y-37272619D01*
X48641000Y-27033095D01*
X48752397Y-27001143D01*
X48802509Y-26860682D01*
X48884990Y-27060303D01*
X49277630Y-27453629D01*
X49790900Y-27666757D01*
X50346661Y-27667242D01*
X50860303Y-27455010D01*
X51253629Y-27062370D01*
X51339949Y-26854488D01*
X51424990Y-27060303D01*
X51817630Y-27453629D01*
X52330900Y-27666757D01*
X52886661Y-27667242D01*
X53400303Y-27455010D01*
X53793629Y-27062370D01*
X53879949Y-26854488D01*
X53964990Y-27060303D01*
X54357630Y-27453629D01*
X54870900Y-27666757D01*
X55426661Y-27667242D01*
X55499152Y-27637289D01*
X55498813Y-28026784D01*
X55662811Y-28423689D01*
X55966214Y-28727622D01*
X56362832Y-28892313D01*
X56792284Y-28892687D01*
X57189189Y-28728689D01*
X57493122Y-28425286D01*
X57657813Y-28028668D01*
X57658128Y-27666973D01*
X57966661Y-27667242D01*
X58480303Y-27455010D01*
X58873629Y-27062370D01*
X58959949Y-26854488D01*
X59044990Y-27060303D01*
X59437630Y-27453629D01*
X59950900Y-27666757D01*
X60506661Y-27667242D01*
X61020303Y-27455010D01*
X61413629Y-27062370D01*
X61499949Y-26854488D01*
X61584990Y-27060303D01*
X61977630Y-27453629D01*
X62490900Y-27666757D01*
X63046661Y-27667242D01*
X63560303Y-27455010D01*
X63953629Y-27062370D01*
X64039949Y-26854488D01*
X64124990Y-27060303D01*
X64517630Y-27453629D01*
X65030900Y-27666757D01*
X65586661Y-27667242D01*
X66100303Y-27455010D01*
X66305457Y-27250213D01*
X67049392Y-27250213D01*
X67118857Y-27492397D01*
X67642302Y-27679144D01*
X68197368Y-27651362D01*
X68581143Y-27492397D01*
X68650608Y-27250213D01*
X67850000Y-26449605D01*
X67049392Y-27250213D01*
X66305457Y-27250213D01*
X66493629Y-27062370D01*
X66573395Y-26870273D01*
X66627603Y-27001143D01*
X66869787Y-27070608D01*
X67670395Y-26270000D01*
X66869787Y-25469392D01*
X66627603Y-25538857D01*
X66577491Y-25679318D01*
X66495010Y-25479697D01*
X66102370Y-25086371D01*
X65894488Y-25000051D01*
X66100303Y-24915010D01*
X66493629Y-24522370D01*
X66579949Y-24314488D01*
X66664990Y-24520303D01*
X67057630Y-24913629D01*
X67249727Y-24993395D01*
X67118857Y-25047603D01*
X67049392Y-25289787D01*
X67850000Y-26090395D01*
X68650608Y-25289787D01*
X68581143Y-25047603D01*
X68440682Y-24997491D01*
X68640303Y-24915010D01*
X69033629Y-24522370D01*
X69119949Y-24314488D01*
X69204990Y-24520303D01*
X69597630Y-24913629D01*
X69805512Y-24999949D01*
X69599697Y-25084990D01*
X69206371Y-25477630D01*
X69126605Y-25669727D01*
X69072397Y-25538857D01*
X68830213Y-25469392D01*
X68029605Y-26270000D01*
X68830213Y-27070608D01*
X69072397Y-27001143D01*
X69122509Y-26860682D01*
X69204990Y-27060303D01*
X69597630Y-27453629D01*
X70110900Y-27666757D01*
X70666661Y-27667242D01*
X71180303Y-27455010D01*
X71573629Y-27062370D01*
X71659949Y-26854488D01*
X71744990Y-27060303D01*
X72137630Y-27453629D01*
X72650900Y-27666757D01*
X73206661Y-27667242D01*
X73720303Y-27455010D01*
X74113629Y-27062370D01*
X74199949Y-26854488D01*
X74284990Y-27060303D01*
X74677630Y-27453629D01*
X75190900Y-27666757D01*
X75746661Y-27667242D01*
X76260303Y-27455010D01*
X76653629Y-27062370D01*
X76739949Y-26854488D01*
X76824990Y-27060303D01*
X77217630Y-27453629D01*
X77730900Y-27666757D01*
X78286661Y-27667242D01*
X78800303Y-27455010D01*
X79193629Y-27062370D01*
X79279949Y-26854488D01*
X79364990Y-27060303D01*
X79757630Y-27453629D01*
X80270900Y-27666757D01*
X80826661Y-27667242D01*
X81340303Y-27455010D01*
X81733629Y-27062370D01*
X81819949Y-26854488D01*
X81904990Y-27060303D01*
X82297630Y-27453629D01*
X82810900Y-27666757D01*
X83366661Y-27667242D01*
X83880303Y-27455010D01*
X84085457Y-27250213D01*
X84829392Y-27250213D01*
X84898857Y-27492397D01*
X85422302Y-27679144D01*
X85977368Y-27651362D01*
X86361143Y-27492397D01*
X86430608Y-27250213D01*
X85630000Y-26449605D01*
X84829392Y-27250213D01*
X84085457Y-27250213D01*
X84273629Y-27062370D01*
X84353395Y-26870273D01*
X84407603Y-27001143D01*
X84649787Y-27070608D01*
X85450395Y-26270000D01*
X85809605Y-26270000D01*
X86610213Y-27070608D01*
X86852397Y-27001143D01*
X87000433Y-26586202D01*
X89093403Y-26586202D01*
X89265390Y-26915360D01*
X90092346Y-27242026D01*
X90981363Y-27227365D01*
X91734610Y-26915360D01*
X91906597Y-26586202D01*
X90500000Y-25179605D01*
X89093403Y-26586202D01*
X87000433Y-26586202D01*
X87039144Y-26477698D01*
X87011362Y-25922632D01*
X86852397Y-25538857D01*
X86610213Y-25469392D01*
X85809605Y-26270000D01*
X85450395Y-26270000D01*
X84649787Y-25469392D01*
X84407603Y-25538857D01*
X84357491Y-25679318D01*
X84275010Y-25479697D01*
X83882370Y-25086371D01*
X83674488Y-25000051D01*
X83880303Y-24915010D01*
X84273629Y-24522370D01*
X84359949Y-24314488D01*
X84444990Y-24520303D01*
X84837630Y-24913629D01*
X85029727Y-24993395D01*
X84898857Y-25047603D01*
X84829392Y-25289787D01*
X85630000Y-26090395D01*
X86430608Y-25289787D01*
X86361143Y-25047603D01*
X86220682Y-24997491D01*
X86420303Y-24915010D01*
X86743530Y-24592346D01*
X88257974Y-24592346D01*
X88272635Y-25481363D01*
X88584640Y-26234610D01*
X88913798Y-26406597D01*
X90320395Y-25000000D01*
X90679605Y-25000000D01*
X92086202Y-26406597D01*
X92415360Y-26234610D01*
X92742026Y-25407654D01*
X92727365Y-24518637D01*
X92415360Y-23765390D01*
X92086202Y-23593403D01*
X90679605Y-25000000D01*
X90320395Y-25000000D01*
X88913798Y-23593403D01*
X88584640Y-23765390D01*
X88257974Y-24592346D01*
X86743530Y-24592346D01*
X86813629Y-24522370D01*
X87026757Y-24009100D01*
X87027242Y-23453339D01*
X87010905Y-23413798D01*
X89093403Y-23413798D01*
X90500000Y-24820395D01*
X91906597Y-23413798D01*
X91734610Y-23084640D01*
X90907654Y-22757974D01*
X90018637Y-22772635D01*
X89265390Y-23084640D01*
X89093403Y-23413798D01*
X87010905Y-23413798D01*
X86815010Y-22939697D01*
X86422370Y-22546371D01*
X85909100Y-22333243D01*
X85353339Y-22332758D01*
X84839697Y-22544990D01*
X84446371Y-22937630D01*
X84360051Y-23145512D01*
X84275010Y-22939697D01*
X83882370Y-22546371D01*
X83369100Y-22333243D01*
X82813339Y-22332758D01*
X82299697Y-22544990D01*
X81906371Y-22937630D01*
X81820051Y-23145512D01*
X81735010Y-22939697D01*
X81342370Y-22546371D01*
X80829100Y-22333243D01*
X80273339Y-22332758D01*
X79759697Y-22544990D01*
X79366371Y-22937630D01*
X79286605Y-23129727D01*
X79232397Y-22998857D01*
X78990213Y-22929392D01*
X78189605Y-23730000D01*
X78990213Y-24530608D01*
X79232397Y-24461143D01*
X79282509Y-24320682D01*
X79364990Y-24520303D01*
X79757630Y-24913629D01*
X79965512Y-24999949D01*
X79759697Y-25084990D01*
X79366371Y-25477630D01*
X79280051Y-25685512D01*
X79195010Y-25479697D01*
X78802370Y-25086371D01*
X78610273Y-25006605D01*
X78741143Y-24952397D01*
X78810608Y-24710213D01*
X78010000Y-23909605D01*
X77209392Y-24710213D01*
X77278857Y-24952397D01*
X77419318Y-25002509D01*
X77219697Y-25084990D01*
X76826371Y-25477630D01*
X76740051Y-25685512D01*
X76655010Y-25479697D01*
X76262370Y-25086371D01*
X76054488Y-25000051D01*
X76260303Y-24915010D01*
X76653629Y-24522370D01*
X76733395Y-24330273D01*
X76787603Y-24461143D01*
X77029787Y-24530608D01*
X77830395Y-23730000D01*
X77029787Y-22929392D01*
X76787603Y-22998857D01*
X76737491Y-23139318D01*
X76655010Y-22939697D01*
X76465432Y-22749787D01*
X77209392Y-22749787D01*
X78010000Y-23550395D01*
X78810608Y-22749787D01*
X78741143Y-22507603D01*
X78217698Y-22320856D01*
X77662632Y-22348638D01*
X77278857Y-22507603D01*
X77209392Y-22749787D01*
X76465432Y-22749787D01*
X76262370Y-22546371D01*
X75749100Y-22333243D01*
X75193339Y-22332758D01*
X74679697Y-22544990D01*
X74286371Y-22937630D01*
X74206605Y-23129727D01*
X74152397Y-22998857D01*
X73910213Y-22929392D01*
X73109605Y-23730000D01*
X73910213Y-24530608D01*
X74152397Y-24461143D01*
X74202509Y-24320682D01*
X74284990Y-24520303D01*
X74677630Y-24913629D01*
X74885512Y-24999949D01*
X74679697Y-25084990D01*
X74286371Y-25477630D01*
X74200051Y-25685512D01*
X74115010Y-25479697D01*
X73722370Y-25086371D01*
X73530273Y-25006605D01*
X73661143Y-24952397D01*
X73730608Y-24710213D01*
X72930000Y-23909605D01*
X72129392Y-24710213D01*
X72198857Y-24952397D01*
X72339318Y-25002509D01*
X72139697Y-25084990D01*
X71746371Y-25477630D01*
X71660051Y-25685512D01*
X71575010Y-25479697D01*
X71182370Y-25086371D01*
X70974488Y-25000051D01*
X71180303Y-24915010D01*
X71573629Y-24522370D01*
X71653395Y-24330273D01*
X71707603Y-24461143D01*
X71949787Y-24530608D01*
X72750395Y-23730000D01*
X71949787Y-22929392D01*
X71707603Y-22998857D01*
X71657491Y-23139318D01*
X71575010Y-22939697D01*
X71385432Y-22749787D01*
X72129392Y-22749787D01*
X72930000Y-23550395D01*
X73730608Y-22749787D01*
X73661143Y-22507603D01*
X73137698Y-22320856D01*
X72582632Y-22348638D01*
X72198857Y-22507603D01*
X72129392Y-22749787D01*
X71385432Y-22749787D01*
X71182370Y-22546371D01*
X70669100Y-22333243D01*
X70113339Y-22332758D01*
X69599697Y-22544990D01*
X69206371Y-22937630D01*
X69120051Y-23145512D01*
X69035010Y-22939697D01*
X68642370Y-22546371D01*
X68129100Y-22333243D01*
X67573339Y-22332758D01*
X67059697Y-22544990D01*
X66666371Y-22937630D01*
X66580051Y-23145512D01*
X66495010Y-22939697D01*
X66102370Y-22546371D01*
X65589100Y-22333243D01*
X65033339Y-22332758D01*
X64519697Y-22544990D01*
X64126371Y-22937630D01*
X64040051Y-23145512D01*
X63955010Y-22939697D01*
X63562370Y-22546371D01*
X63049100Y-22333243D01*
X62493339Y-22332758D01*
X61979697Y-22544990D01*
X61586371Y-22937630D01*
X61506605Y-23129727D01*
X61452397Y-22998857D01*
X61210213Y-22929392D01*
X60409605Y-23730000D01*
X61210213Y-24530608D01*
X61452397Y-24461143D01*
X61502509Y-24320682D01*
X61584990Y-24520303D01*
X61977630Y-24913629D01*
X62185512Y-24999949D01*
X61979697Y-25084990D01*
X61586371Y-25477630D01*
X61500051Y-25685512D01*
X61415010Y-25479697D01*
X61022370Y-25086371D01*
X60830273Y-25006605D01*
X60961143Y-24952397D01*
X61030608Y-24710213D01*
X60230000Y-23909605D01*
X59429392Y-24710213D01*
X59498857Y-24952397D01*
X59639318Y-25002509D01*
X59439697Y-25084990D01*
X59046371Y-25477630D01*
X58960051Y-25685512D01*
X58875010Y-25479697D01*
X58482370Y-25086371D01*
X58274488Y-25000051D01*
X58480303Y-24915010D01*
X58873629Y-24522370D01*
X58953395Y-24330273D01*
X59007603Y-24461143D01*
X59249787Y-24530608D01*
X60050395Y-23730000D01*
X59249787Y-22929392D01*
X59007603Y-22998857D01*
X58957491Y-23139318D01*
X58875010Y-22939697D01*
X58685432Y-22749787D01*
X59429392Y-22749787D01*
X60230000Y-23550395D01*
X61030608Y-22749787D01*
X60961143Y-22507603D01*
X60437698Y-22320856D01*
X59882632Y-22348638D01*
X59498857Y-22507603D01*
X59429392Y-22749787D01*
X58685432Y-22749787D01*
X58482370Y-22546371D01*
X57969100Y-22333243D01*
X57413339Y-22332758D01*
X56899697Y-22544990D01*
X56506371Y-22937630D01*
X56420051Y-23145512D01*
X56335010Y-22939697D01*
X55942370Y-22546371D01*
X55429100Y-22333243D01*
X54873339Y-22332758D01*
X54359697Y-22544990D01*
X53966371Y-22937630D01*
X53886605Y-23129727D01*
X53832397Y-22998857D01*
X53590213Y-22929392D01*
X52789605Y-23730000D01*
X52803748Y-23744143D01*
X52624143Y-23923748D01*
X52610000Y-23909605D01*
X52595858Y-23923748D01*
X52416253Y-23744143D01*
X52430395Y-23730000D01*
X51629787Y-22929392D01*
X51387603Y-22998857D01*
X51337491Y-23139318D01*
X51255010Y-22939697D01*
X51065432Y-22749787D01*
X51809392Y-22749787D01*
X52610000Y-23550395D01*
X53410608Y-22749787D01*
X53341143Y-22507603D01*
X52817698Y-22320856D01*
X52262632Y-22348638D01*
X51878857Y-22507603D01*
X51809392Y-22749787D01*
X51065432Y-22749787D01*
X50862370Y-22546371D01*
X50349100Y-22333243D01*
X49793339Y-22332758D01*
X49279697Y-22544990D01*
X48886371Y-22937630D01*
X48800051Y-23145512D01*
X48715010Y-22939697D01*
X48641000Y-22865558D01*
X48641000Y-21710000D01*
X90930069Y-21710000D01*
X91871023Y-21897167D01*
G36*
X47877491Y-22361641D02*
X47809100Y-22333243D01*
X47253339Y-22332758D01*
X46739697Y-22544990D01*
X46346371Y-22937630D01*
X46260051Y-23145512D01*
X46175010Y-22939697D01*
X45782370Y-22546371D01*
X45269100Y-22333243D01*
X44713339Y-22332758D01*
X44199697Y-22544990D01*
X43806371Y-22937630D01*
X43720051Y-23145512D01*
X43635010Y-22939697D01*
X43242370Y-22546371D01*
X42729100Y-22333243D01*
X42173339Y-22332758D01*
X41659697Y-22544990D01*
X41266371Y-22937630D01*
X41180051Y-23145512D01*
X41095010Y-22939697D01*
X40702370Y-22546371D01*
X40189100Y-22333243D01*
X39633339Y-22332758D01*
X39119697Y-22544990D01*
X38726371Y-22937630D01*
X38640051Y-23145512D01*
X38555010Y-22939697D01*
X38162370Y-22546371D01*
X37649100Y-22333243D01*
X37093339Y-22332758D01*
X36579697Y-22544990D01*
X36186371Y-22937630D01*
X35973243Y-23450900D01*
X35972758Y-24006661D01*
X36184990Y-24520303D01*
X36537833Y-24873763D01*
X36372683Y-24904838D01*
X36156559Y-25043910D01*
X36011569Y-25256110D01*
X35960560Y-25508000D01*
X35960560Y-27032000D01*
X36004838Y-27267317D01*
X36143910Y-27483441D01*
X36356110Y-27628431D01*
X36608000Y-27679440D01*
X38132000Y-27679440D01*
X38367317Y-27635162D01*
X38583441Y-27496090D01*
X38728431Y-27283890D01*
X38765492Y-27100876D01*
X39117630Y-27453629D01*
X39630900Y-27666757D01*
X40186661Y-27667242D01*
X40700303Y-27455010D01*
X41093629Y-27062370D01*
X41179949Y-26854488D01*
X41264990Y-27060303D01*
X41657630Y-27453629D01*
X42170900Y-27666757D01*
X42726661Y-27667242D01*
X43240303Y-27455010D01*
X43633629Y-27062370D01*
X43719949Y-26854488D01*
X43804990Y-27060303D01*
X44197630Y-27453629D01*
X44710900Y-27666757D01*
X45266661Y-27667242D01*
X45780303Y-27455010D01*
X46173629Y-27062370D01*
X46259949Y-26854488D01*
X46344990Y-27060303D01*
X46737630Y-27453629D01*
X47250900Y-27666757D01*
X47675548Y-27667128D01*
X47871309Y-27862889D01*
X47855267Y-42140560D01*
X46090000Y-42140560D01*
X45854683Y-42184838D01*
X45638559Y-42323910D01*
X45493569Y-42536110D01*
X45483234Y-42587146D01*
X45357576Y-42450034D01*
X44814742Y-42196954D01*
X44577000Y-42317003D01*
X44577000Y-43561000D01*
X44597000Y-43561000D01*
X44597000Y-43815000D01*
X44577000Y-43815000D01*
X44577000Y-45058997D01*
X44814742Y-45179046D01*
X45357576Y-44925966D01*
X45480844Y-44791462D01*
X45486838Y-44823317D01*
X45625910Y-45039441D01*
X45838110Y-45184431D01*
X46090000Y-45235440D01*
X47890000Y-45235440D01*
X48125317Y-45191162D01*
X48341441Y-45052090D01*
X48486431Y-44839890D01*
X48537440Y-44588000D01*
X48537440Y-42788000D01*
X48515613Y-42672000D01*
X52133730Y-42672000D01*
X52195650Y-76790000D01*
X47008000Y-76790000D01*
X46954000Y-76800741D01*
X46900000Y-76790000D01*
X32069931Y-76790000D01*
X31128977Y-76602833D01*
X30390561Y-76109439D01*
X29897167Y-75371023D01*
X29712497Y-74442619D01*
X30264613Y-74442619D01*
X30604155Y-75264372D01*
X31232321Y-75893636D01*
X32053481Y-76234611D01*
X32942619Y-76235387D01*
X33764372Y-75895845D01*
X34393636Y-75267679D01*
X34734611Y-74446519D01*
X34735387Y-73557381D01*
X34395845Y-72735628D01*
X33767679Y-72106364D01*
X33303813Y-71913750D01*
X38297000Y-71913750D01*
X38297000Y-72954310D01*
X38393673Y-73187699D01*
X38572302Y-73366327D01*
X38805691Y-73463000D01*
X39846250Y-73463000D01*
X40005000Y-73304250D01*
X40005000Y-71755000D01*
X40259000Y-71755000D01*
X40259000Y-73304250D01*
X40417750Y-73463000D01*
X41458309Y-73463000D01*
X41691698Y-73366327D01*
X41870327Y-73187699D01*
X41967000Y-72954310D01*
X41967000Y-71991403D01*
X43296682Y-71991403D01*
X43575455Y-72666086D01*
X44091199Y-73182730D01*
X44765395Y-73462681D01*
X45495403Y-73463318D01*
X46170086Y-73184545D01*
X46686730Y-72668801D01*
X46966681Y-71994605D01*
X46966683Y-71991403D01*
X48296682Y-71991403D01*
X48575455Y-72666086D01*
X49091199Y-73182730D01*
X49765395Y-73462681D01*
X50495403Y-73463318D01*
X51170086Y-73184545D01*
X51686730Y-72668801D01*
X51966681Y-71994605D01*
X51967318Y-71264597D01*
X51688545Y-70589914D01*
X51172801Y-70073270D01*
X50498605Y-69793319D01*
X49768597Y-69792682D01*
X49093914Y-70071455D01*
X48577270Y-70587199D01*
X48297319Y-71261395D01*
X48296682Y-71991403D01*
X46966683Y-71991403D01*
X46967318Y-71264597D01*
X46688545Y-70589914D01*
X46172801Y-70073270D01*
X45498605Y-69793319D01*
X44768597Y-69792682D01*
X44093914Y-70071455D01*
X43577270Y-70587199D01*
X43297319Y-71261395D01*
X43296682Y-71991403D01*
X41967000Y-71991403D01*
X41967000Y-71913750D01*
X41808250Y-71755000D01*
X40259000Y-71755000D01*
X40005000Y-71755000D01*
X38455750Y-71755000D01*
X38297000Y-71913750D01*
X33303813Y-71913750D01*
X32946519Y-71765389D01*
X32057381Y-71764613D01*
X31235628Y-72104155D01*
X30606364Y-72732321D01*
X30265389Y-73553481D01*
X30264613Y-74442619D01*
X29712497Y-74442619D01*
X29710000Y-74430069D01*
X29710000Y-70301690D01*
X38297000Y-70301690D01*
X38297000Y-71342250D01*
X38455750Y-71501000D01*
X40005000Y-71501000D01*
X40005000Y-69951750D01*
X40259000Y-69951750D01*
X40259000Y-71501000D01*
X41808250Y-71501000D01*
X41967000Y-71342250D01*
X41967000Y-70301690D01*
X41870327Y-70068301D01*
X41691698Y-69889673D01*
X41458309Y-69793000D01*
X40417750Y-69793000D01*
X40259000Y-69951750D01*
X40005000Y-69951750D01*
X39846250Y-69793000D01*
X38805691Y-69793000D01*
X38572302Y-69889673D01*
X38393673Y-70068301D01*
X38297000Y-70301690D01*
X29710000Y-70301690D01*
X29710000Y-60348000D01*
X42018275Y-60348000D01*
X42199822Y-61260700D01*
X42716825Y-62034450D01*
X43490575Y-62551453D01*
X44403275Y-62733000D01*
X44496725Y-62733000D01*
X45409425Y-62551453D01*
X46183175Y-62034450D01*
X46700178Y-61260700D01*
X46881725Y-60348000D01*
X46700178Y-59435300D01*
X46183175Y-58661550D01*
X45409425Y-58144547D01*
X44496725Y-57963000D01*
X44403275Y-57963000D01*
X43490575Y-58144547D01*
X42716825Y-58661550D01*
X42199822Y-59435300D01*
X42018275Y-60348000D01*
X29710000Y-60348000D01*
X29710000Y-59069930D01*
X29744926Y-58894345D01*
X29804774Y-58804775D01*
X29894345Y-58744926D01*
X30069930Y-58710000D01*
X33000000Y-58710000D01*
X33068584Y-58696358D01*
X33138513Y-58696358D01*
X33521196Y-58620238D01*
X33596160Y-58589187D01*
X33777138Y-58514224D01*
X34101561Y-58297451D01*
X34184379Y-58214633D01*
X34297451Y-58101562D01*
X34514223Y-57777138D01*
X34565072Y-57654378D01*
X34620238Y-57521196D01*
X34696358Y-57138514D01*
X34696358Y-57068584D01*
X34710000Y-57000000D01*
X34710000Y-43688000D01*
X40344928Y-43688000D01*
X40461773Y-44275419D01*
X40794519Y-44773409D01*
X41292509Y-45106155D01*
X41879928Y-45223000D01*
X41940072Y-45223000D01*
X42527491Y-45106155D01*
X43025481Y-44773409D01*
X43184501Y-44535418D01*
X43542424Y-44925966D01*
X44085258Y-45179046D01*
X44323000Y-45058997D01*
X44323000Y-43815000D01*
X44303000Y-43815000D01*
X44303000Y-43561000D01*
X44323000Y-43561000D01*
X44323000Y-42317003D01*
X44085258Y-42196954D01*
X43542424Y-42450034D01*
X43184501Y-42840582D01*
X43025481Y-42602591D01*
X42527491Y-42269845D01*
X41940072Y-42153000D01*
X41879928Y-42153000D01*
X41292509Y-42269845D01*
X40794519Y-42602591D01*
X40461773Y-43100581D01*
X40344928Y-43688000D01*
X34710000Y-43688000D01*
X34710000Y-42000000D01*
X34696358Y-41931416D01*
X34696358Y-41861486D01*
X34620238Y-41478804D01*
X34558136Y-41328877D01*
X34514223Y-41222862D01*
X34297451Y-40898438D01*
X34101562Y-40702550D01*
X34101561Y-40702549D01*
X33777138Y-40485776D01*
X33593368Y-40409657D01*
X33521196Y-40379762D01*
X33138513Y-40303642D01*
X33068584Y-40303642D01*
X33000000Y-40290000D01*
X30069930Y-40290000D01*
X29894345Y-40255074D01*
X29804774Y-40195225D01*
X29744926Y-40105655D01*
X29710000Y-39930070D01*
X29710000Y-38519000D01*
X31337250Y-38519000D01*
X31496000Y-38360250D01*
X31496000Y-37211000D01*
X31750000Y-37211000D01*
X31750000Y-38360250D01*
X31908750Y-38519000D01*
X34199310Y-38519000D01*
X34432699Y-38422327D01*
X34611327Y-38243698D01*
X34708000Y-38010309D01*
X34708000Y-37369750D01*
X34549250Y-37211000D01*
X31750000Y-37211000D01*
X31496000Y-37211000D01*
X31476000Y-37211000D01*
X31476000Y-36957000D01*
X31496000Y-36957000D01*
X31496000Y-35807750D01*
X31750000Y-35807750D01*
X31750000Y-36957000D01*
X34549250Y-36957000D01*
X34708000Y-36798250D01*
X34708000Y-36157691D01*
X34611327Y-35924302D01*
X34432699Y-35745673D01*
X34199310Y-35649000D01*
X31908750Y-35649000D01*
X31750000Y-35807750D01*
X31496000Y-35807750D01*
X31337250Y-35649000D01*
X29710000Y-35649000D01*
X29710000Y-33439000D01*
X31337250Y-33439000D01*
X31496000Y-33280250D01*
X31496000Y-32131000D01*
X31750000Y-32131000D01*
X31750000Y-33280250D01*
X31908750Y-33439000D01*
X34199310Y-33439000D01*
X34432699Y-33342327D01*
X34611327Y-33163698D01*
X34708000Y-32930309D01*
X34708000Y-32289750D01*
X34549250Y-32131000D01*
X31750000Y-32131000D01*
X31496000Y-32131000D01*
X31476000Y-32131000D01*
X31476000Y-31877000D01*
X31496000Y-31877000D01*
X31496000Y-30727750D01*
X31750000Y-30727750D01*
X31750000Y-31877000D01*
X34549250Y-31877000D01*
X34708000Y-31718250D01*
X34708000Y-31077691D01*
X34611327Y-30844302D01*
X34432699Y-30665673D01*
X34199310Y-30569000D01*
X31908750Y-30569000D01*
X31750000Y-30727750D01*
X31496000Y-30727750D01*
X31337250Y-30569000D01*
X29710000Y-30569000D01*
X29710000Y-25442619D01*
X30264613Y-25442619D01*
X30604155Y-26264372D01*
X31232321Y-26893636D01*
X32053481Y-27234611D01*
X32942619Y-27235387D01*
X33764372Y-26895845D01*
X34393636Y-26267679D01*
X34734611Y-25446519D01*
X34735387Y-24557381D01*
X34395845Y-23735628D01*
X33767679Y-23106364D01*
X32946519Y-22765389D01*
X32057381Y-22764613D01*
X31235628Y-23104155D01*
X30606364Y-23732321D01*
X30265389Y-24553481D01*
X30264613Y-25442619D01*
X29710000Y-25442619D01*
X29710000Y-24069931D01*
X29897167Y-23128977D01*
X30390561Y-22390561D01*
X31128977Y-21897167D01*
X32069931Y-21710000D01*
X47878223Y-21710000D01*
X47877491Y-22361641D01*
X47877491Y-22361641D01*
G37*
X47877491Y-22361641D02*
X47809100Y-22333243D01*
X47253339Y-22332758D01*
X46739697Y-22544990D01*
X46346371Y-22937630D01*
X46260051Y-23145512D01*
X46175010Y-22939697D01*
X45782370Y-22546371D01*
X45269100Y-22333243D01*
X44713339Y-22332758D01*
X44199697Y-22544990D01*
X43806371Y-22937630D01*
X43720051Y-23145512D01*
X43635010Y-22939697D01*
X43242370Y-22546371D01*
X42729100Y-22333243D01*
X42173339Y-22332758D01*
X41659697Y-22544990D01*
X41266371Y-22937630D01*
X41180051Y-23145512D01*
X41095010Y-22939697D01*
X40702370Y-22546371D01*
X40189100Y-22333243D01*
X39633339Y-22332758D01*
X39119697Y-22544990D01*
X38726371Y-22937630D01*
X38640051Y-23145512D01*
X38555010Y-22939697D01*
X38162370Y-22546371D01*
X37649100Y-22333243D01*
X37093339Y-22332758D01*
X36579697Y-22544990D01*
X36186371Y-22937630D01*
X35973243Y-23450900D01*
X35972758Y-24006661D01*
X36184990Y-24520303D01*
X36537833Y-24873763D01*
X36372683Y-24904838D01*
X36156559Y-25043910D01*
X36011569Y-25256110D01*
X35960560Y-25508000D01*
X35960560Y-27032000D01*
X36004838Y-27267317D01*
X36143910Y-27483441D01*
X36356110Y-27628431D01*
X36608000Y-27679440D01*
X38132000Y-27679440D01*
X38367317Y-27635162D01*
X38583441Y-27496090D01*
X38728431Y-27283890D01*
X38765492Y-27100876D01*
X39117630Y-27453629D01*
X39630900Y-27666757D01*
X40186661Y-27667242D01*
X40700303Y-27455010D01*
X41093629Y-27062370D01*
X41179949Y-26854488D01*
X41264990Y-27060303D01*
X41657630Y-27453629D01*
X42170900Y-27666757D01*
X42726661Y-27667242D01*
X43240303Y-27455010D01*
X43633629Y-27062370D01*
X43719949Y-26854488D01*
X43804990Y-27060303D01*
X44197630Y-27453629D01*
X44710900Y-27666757D01*
X45266661Y-27667242D01*
X45780303Y-27455010D01*
X46173629Y-27062370D01*
X46259949Y-26854488D01*
X46344990Y-27060303D01*
X46737630Y-27453629D01*
X47250900Y-27666757D01*
X47675548Y-27667128D01*
X47871309Y-27862889D01*
X47855267Y-42140560D01*
X46090000Y-42140560D01*
X45854683Y-42184838D01*
X45638559Y-42323910D01*
X45493569Y-42536110D01*
X45483234Y-42587146D01*
X45357576Y-42450034D01*
X44814742Y-42196954D01*
X44577000Y-42317003D01*
X44577000Y-43561000D01*
X44597000Y-43561000D01*
X44597000Y-43815000D01*
X44577000Y-43815000D01*
X44577000Y-45058997D01*
X44814742Y-45179046D01*
X45357576Y-44925966D01*
X45480844Y-44791462D01*
X45486838Y-44823317D01*
X45625910Y-45039441D01*
X45838110Y-45184431D01*
X46090000Y-45235440D01*
X47890000Y-45235440D01*
X48125317Y-45191162D01*
X48341441Y-45052090D01*
X48486431Y-44839890D01*
X48537440Y-44588000D01*
X48537440Y-42788000D01*
X48515613Y-42672000D01*
X52133730Y-42672000D01*
X52195650Y-76790000D01*
X47008000Y-76790000D01*
X46954000Y-76800741D01*
X46900000Y-76790000D01*
X32069931Y-76790000D01*
X31128977Y-76602833D01*
X30390561Y-76109439D01*
X29897167Y-75371023D01*
X29712497Y-74442619D01*
X30264613Y-74442619D01*
X30604155Y-75264372D01*
X31232321Y-75893636D01*
X32053481Y-76234611D01*
X32942619Y-76235387D01*
X33764372Y-75895845D01*
X34393636Y-75267679D01*
X34734611Y-74446519D01*
X34735387Y-73557381D01*
X34395845Y-72735628D01*
X33767679Y-72106364D01*
X33303813Y-71913750D01*
X38297000Y-71913750D01*
X38297000Y-72954310D01*
X38393673Y-73187699D01*
X38572302Y-73366327D01*
X38805691Y-73463000D01*
X39846250Y-73463000D01*
X40005000Y-73304250D01*
X40005000Y-71755000D01*
X40259000Y-71755000D01*
X40259000Y-73304250D01*
X40417750Y-73463000D01*
X41458309Y-73463000D01*
X41691698Y-73366327D01*
X41870327Y-73187699D01*
X41967000Y-72954310D01*
X41967000Y-71991403D01*
X43296682Y-71991403D01*
X43575455Y-72666086D01*
X44091199Y-73182730D01*
X44765395Y-73462681D01*
X45495403Y-73463318D01*
X46170086Y-73184545D01*
X46686730Y-72668801D01*
X46966681Y-71994605D01*
X46966683Y-71991403D01*
X48296682Y-71991403D01*
X48575455Y-72666086D01*
X49091199Y-73182730D01*
X49765395Y-73462681D01*
X50495403Y-73463318D01*
X51170086Y-73184545D01*
X51686730Y-72668801D01*
X51966681Y-71994605D01*
X51967318Y-71264597D01*
X51688545Y-70589914D01*
X51172801Y-70073270D01*
X50498605Y-69793319D01*
X49768597Y-69792682D01*
X49093914Y-70071455D01*
X48577270Y-70587199D01*
X48297319Y-71261395D01*
X48296682Y-71991403D01*
X46966683Y-71991403D01*
X46967318Y-71264597D01*
X46688545Y-70589914D01*
X46172801Y-70073270D01*
X45498605Y-69793319D01*
X44768597Y-69792682D01*
X44093914Y-70071455D01*
X43577270Y-70587199D01*
X43297319Y-71261395D01*
X43296682Y-71991403D01*
X41967000Y-71991403D01*
X41967000Y-71913750D01*
X41808250Y-71755000D01*
X40259000Y-71755000D01*
X40005000Y-71755000D01*
X38455750Y-71755000D01*
X38297000Y-71913750D01*
X33303813Y-71913750D01*
X32946519Y-71765389D01*
X32057381Y-71764613D01*
X31235628Y-72104155D01*
X30606364Y-72732321D01*
X30265389Y-73553481D01*
X30264613Y-74442619D01*
X29712497Y-74442619D01*
X29710000Y-74430069D01*
X29710000Y-70301690D01*
X38297000Y-70301690D01*
X38297000Y-71342250D01*
X38455750Y-71501000D01*
X40005000Y-71501000D01*
X40005000Y-69951750D01*
X40259000Y-69951750D01*
X40259000Y-71501000D01*
X41808250Y-71501000D01*
X41967000Y-71342250D01*
X41967000Y-70301690D01*
X41870327Y-70068301D01*
X41691698Y-69889673D01*
X41458309Y-69793000D01*
X40417750Y-69793000D01*
X40259000Y-69951750D01*
X40005000Y-69951750D01*
X39846250Y-69793000D01*
X38805691Y-69793000D01*
X38572302Y-69889673D01*
X38393673Y-70068301D01*
X38297000Y-70301690D01*
X29710000Y-70301690D01*
X29710000Y-60348000D01*
X42018275Y-60348000D01*
X42199822Y-61260700D01*
X42716825Y-62034450D01*
X43490575Y-62551453D01*
X44403275Y-62733000D01*
X44496725Y-62733000D01*
X45409425Y-62551453D01*
X46183175Y-62034450D01*
X46700178Y-61260700D01*
X46881725Y-60348000D01*
X46700178Y-59435300D01*
X46183175Y-58661550D01*
X45409425Y-58144547D01*
X44496725Y-57963000D01*
X44403275Y-57963000D01*
X43490575Y-58144547D01*
X42716825Y-58661550D01*
X42199822Y-59435300D01*
X42018275Y-60348000D01*
X29710000Y-60348000D01*
X29710000Y-59069930D01*
X29744926Y-58894345D01*
X29804774Y-58804775D01*
X29894345Y-58744926D01*
X30069930Y-58710000D01*
X33000000Y-58710000D01*
X33068584Y-58696358D01*
X33138513Y-58696358D01*
X33521196Y-58620238D01*
X33596160Y-58589187D01*
X33777138Y-58514224D01*
X34101561Y-58297451D01*
X34184379Y-58214633D01*
X34297451Y-58101562D01*
X34514223Y-57777138D01*
X34565072Y-57654378D01*
X34620238Y-57521196D01*
X34696358Y-57138514D01*
X34696358Y-57068584D01*
X34710000Y-57000000D01*
X34710000Y-43688000D01*
X40344928Y-43688000D01*
X40461773Y-44275419D01*
X40794519Y-44773409D01*
X41292509Y-45106155D01*
X41879928Y-45223000D01*
X41940072Y-45223000D01*
X42527491Y-45106155D01*
X43025481Y-44773409D01*
X43184501Y-44535418D01*
X43542424Y-44925966D01*
X44085258Y-45179046D01*
X44323000Y-45058997D01*
X44323000Y-43815000D01*
X44303000Y-43815000D01*
X44303000Y-43561000D01*
X44323000Y-43561000D01*
X44323000Y-42317003D01*
X44085258Y-42196954D01*
X43542424Y-42450034D01*
X43184501Y-42840582D01*
X43025481Y-42602591D01*
X42527491Y-42269845D01*
X41940072Y-42153000D01*
X41879928Y-42153000D01*
X41292509Y-42269845D01*
X40794519Y-42602591D01*
X40461773Y-43100581D01*
X40344928Y-43688000D01*
X34710000Y-43688000D01*
X34710000Y-42000000D01*
X34696358Y-41931416D01*
X34696358Y-41861486D01*
X34620238Y-41478804D01*
X34558136Y-41328877D01*
X34514223Y-41222862D01*
X34297451Y-40898438D01*
X34101562Y-40702550D01*
X34101561Y-40702549D01*
X33777138Y-40485776D01*
X33593368Y-40409657D01*
X33521196Y-40379762D01*
X33138513Y-40303642D01*
X33068584Y-40303642D01*
X33000000Y-40290000D01*
X30069930Y-40290000D01*
X29894345Y-40255074D01*
X29804774Y-40195225D01*
X29744926Y-40105655D01*
X29710000Y-39930070D01*
X29710000Y-38519000D01*
X31337250Y-38519000D01*
X31496000Y-38360250D01*
X31496000Y-37211000D01*
X31750000Y-37211000D01*
X31750000Y-38360250D01*
X31908750Y-38519000D01*
X34199310Y-38519000D01*
X34432699Y-38422327D01*
X34611327Y-38243698D01*
X34708000Y-38010309D01*
X34708000Y-37369750D01*
X34549250Y-37211000D01*
X31750000Y-37211000D01*
X31496000Y-37211000D01*
X31476000Y-37211000D01*
X31476000Y-36957000D01*
X31496000Y-36957000D01*
X31496000Y-35807750D01*
X31750000Y-35807750D01*
X31750000Y-36957000D01*
X34549250Y-36957000D01*
X34708000Y-36798250D01*
X34708000Y-36157691D01*
X34611327Y-35924302D01*
X34432699Y-35745673D01*
X34199310Y-35649000D01*
X31908750Y-35649000D01*
X31750000Y-35807750D01*
X31496000Y-35807750D01*
X31337250Y-35649000D01*
X29710000Y-35649000D01*
X29710000Y-33439000D01*
X31337250Y-33439000D01*
X31496000Y-33280250D01*
X31496000Y-32131000D01*
X31750000Y-32131000D01*
X31750000Y-33280250D01*
X31908750Y-33439000D01*
X34199310Y-33439000D01*
X34432699Y-33342327D01*
X34611327Y-33163698D01*
X34708000Y-32930309D01*
X34708000Y-32289750D01*
X34549250Y-32131000D01*
X31750000Y-32131000D01*
X31496000Y-32131000D01*
X31476000Y-32131000D01*
X31476000Y-31877000D01*
X31496000Y-31877000D01*
X31496000Y-30727750D01*
X31750000Y-30727750D01*
X31750000Y-31877000D01*
X34549250Y-31877000D01*
X34708000Y-31718250D01*
X34708000Y-31077691D01*
X34611327Y-30844302D01*
X34432699Y-30665673D01*
X34199310Y-30569000D01*
X31908750Y-30569000D01*
X31750000Y-30727750D01*
X31496000Y-30727750D01*
X31337250Y-30569000D01*
X29710000Y-30569000D01*
X29710000Y-25442619D01*
X30264613Y-25442619D01*
X30604155Y-26264372D01*
X31232321Y-26893636D01*
X32053481Y-27234611D01*
X32942619Y-27235387D01*
X33764372Y-26895845D01*
X34393636Y-26267679D01*
X34734611Y-25446519D01*
X34735387Y-24557381D01*
X34395845Y-23735628D01*
X33767679Y-23106364D01*
X32946519Y-22765389D01*
X32057381Y-22764613D01*
X31235628Y-23104155D01*
X30606364Y-23732321D01*
X30265389Y-24553481D01*
X30264613Y-25442619D01*
X29710000Y-25442619D01*
X29710000Y-24069931D01*
X29897167Y-23128977D01*
X30390561Y-22390561D01*
X31128977Y-21897167D01*
X32069931Y-21710000D01*
X47878223Y-21710000D01*
X47877491Y-22361641D01*
M02*
