G04 #@! TF.FileFunction,Paste,Top*
%FSLAX46Y46*%
G04 Gerber Fmt 4.6, Leading zero omitted, Abs format (unit mm)*
G04 Created by KiCad (PCBNEW 4.0.7-e2-6376~61~ubuntu18.04.1) date Tue Nov  6 15:25:27 2018*
%MOMM*%
%LPD*%
G01*
G04 APERTURE LIST*
%ADD10C,0.200000*%
%ADD11R,1.500000X1.250000*%
%ADD12R,1.250000X1.500000*%
%ADD13R,2.500000X3.750000*%
%ADD14R,1.500000X1.300000*%
%ADD15R,0.750000X0.400000*%
%ADD16R,0.400000X0.750000*%
%ADD17R,1.300000X1.500000*%
%ADD18R,1.400000X0.760000*%
%ADD19R,0.800000X0.900000*%
%ADD20R,4.900000X1.600000*%
%ADD21R,1.600000X4.900000*%
G04 APERTURE END LIST*
D10*
D11*
X66782000Y-36068000D03*
X64282000Y-36068000D03*
D12*
X66802000Y-61956000D03*
X66802000Y-59456000D03*
D11*
X64282000Y-43942000D03*
X66782000Y-43942000D03*
X64282000Y-51562000D03*
X66782000Y-51562000D03*
X42652000Y-34798000D03*
X40152000Y-34798000D03*
D12*
X51943000Y-37191000D03*
X51943000Y-34691000D03*
X61468000Y-69322000D03*
X61468000Y-66822000D03*
X56642000Y-46970000D03*
X56642000Y-44470000D03*
X56642000Y-54082000D03*
X56642000Y-51582000D03*
X56896000Y-61956000D03*
X56896000Y-59456000D03*
D11*
X40914000Y-38354000D03*
X43414000Y-38354000D03*
D13*
X32512000Y-61391000D03*
X32512000Y-67641000D03*
D12*
X37846000Y-43414000D03*
X37846000Y-40914000D03*
X62484000Y-31984000D03*
X62484000Y-29484000D03*
X59690000Y-31984000D03*
X59690000Y-29484000D03*
D14*
X66023500Y-64960500D03*
X68723500Y-64960500D03*
D15*
X54676000Y-37084000D03*
X56576000Y-37734000D03*
X56576000Y-36434000D03*
X56576000Y-37084000D03*
X54676000Y-36434000D03*
X54676000Y-37734000D03*
D16*
X61468000Y-63942000D03*
X62118000Y-62042000D03*
X60818000Y-62042000D03*
X61468000Y-62042000D03*
X60818000Y-63942000D03*
X62118000Y-63942000D03*
D17*
X66802000Y-41482000D03*
X66802000Y-38782000D03*
X66802000Y-48848000D03*
X66802000Y-46148000D03*
X66802000Y-56722000D03*
X66802000Y-54022000D03*
X37592000Y-34718000D03*
X37592000Y-37418000D03*
D14*
X59516000Y-49276000D03*
X56816000Y-49276000D03*
X59516000Y-56642000D03*
X56816000Y-56642000D03*
X54530000Y-29464000D03*
X57230000Y-29464000D03*
X54530000Y-31750000D03*
X57230000Y-31750000D03*
D17*
X39878000Y-29130000D03*
X39878000Y-31830000D03*
D14*
X68660000Y-67627500D03*
X65960000Y-67627500D03*
D17*
X46990000Y-31576000D03*
X46990000Y-28876000D03*
D18*
X45974000Y-34544000D03*
X45974000Y-35814000D03*
X45974000Y-37084000D03*
X49530000Y-37084000D03*
X49530000Y-34544000D03*
D19*
X44384000Y-29480000D03*
X42484000Y-29480000D03*
X43434000Y-31480000D03*
X51750000Y-29734000D03*
X49850000Y-29734000D03*
X50800000Y-31734000D03*
D17*
X55245000Y-65833000D03*
X55245000Y-68533000D03*
D20*
X31623000Y-32064000D03*
X31623000Y-32004000D03*
X31623000Y-37084000D03*
D21*
X58988000Y-74549000D03*
X58928000Y-74549000D03*
X64008000Y-74549000D03*
D17*
X58166000Y-68533000D03*
X58166000Y-65833000D03*
M02*
