G04 #@! TF.FileFunction,Copper,L1,Top,Signal*
%FSLAX46Y46*%
G04 Gerber Fmt 4.6, Leading zero omitted, Abs format (unit mm)*
G04 Created by KiCad (PCBNEW 4.0.7-e2-6376~61~ubuntu18.04.1) date Tue Nov  6 15:25:27 2018*
%MOMM*%
%LPD*%
G01*
G04 APERTURE LIST*
%ADD10C,0.200000*%
%ADD11C,0.250000*%
%ADD12R,1.524000X1.524000*%
%ADD13C,1.524000*%
%ADD14R,1.500000X1.250000*%
%ADD15R,1.250000X1.500000*%
%ADD16R,2.500000X3.750000*%
%ADD17R,1.500000X1.300000*%
%ADD18R,2.400000X2.400000*%
%ADD19C,2.400000*%
%ADD20R,0.750000X0.400000*%
%ADD21R,0.400000X0.750000*%
%ADD22R,1.300000X1.500000*%
%ADD23R,1.400000X0.760000*%
%ADD24R,0.800000X0.900000*%
%ADD25R,1.800000X1.800000*%
%ADD26O,1.800000X1.800000*%
%ADD27R,4.900000X1.600000*%
%ADD28R,1.600000X4.900000*%
%ADD29C,0.889000*%
%ADD30C,0.400000*%
%ADD31C,0.500000*%
%ADD32C,1.000000*%
%ADD33C,0.254000*%
%ADD34C,1.250000*%
G04 APERTURE END LIST*
D10*
D11*
X68382238Y-29599000D02*
X68287000Y-29551381D01*
X68144143Y-29551381D01*
X68001285Y-29599000D01*
X67906047Y-29694238D01*
X67858428Y-29789476D01*
X67810809Y-29979952D01*
X67810809Y-30122810D01*
X67858428Y-30313286D01*
X67906047Y-30408524D01*
X68001285Y-30503762D01*
X68144143Y-30551381D01*
X68239381Y-30551381D01*
X68382238Y-30503762D01*
X68429857Y-30456143D01*
X68429857Y-30122810D01*
X68239381Y-30122810D01*
X68858428Y-30551381D02*
X68858428Y-29884714D01*
X68858428Y-29551381D02*
X68810809Y-29599000D01*
X68858428Y-29646619D01*
X68906047Y-29599000D01*
X68858428Y-29551381D01*
X68858428Y-29646619D01*
X69763190Y-29884714D02*
X69763190Y-30694238D01*
X69715571Y-30789476D01*
X69667952Y-30837095D01*
X69572713Y-30884714D01*
X69429856Y-30884714D01*
X69334618Y-30837095D01*
X69763190Y-30503762D02*
X69667952Y-30551381D01*
X69477475Y-30551381D01*
X69382237Y-30503762D01*
X69334618Y-30456143D01*
X69286999Y-30360905D01*
X69286999Y-30075190D01*
X69334618Y-29979952D01*
X69382237Y-29932333D01*
X69477475Y-29884714D01*
X69667952Y-29884714D01*
X69763190Y-29932333D01*
X70667952Y-30551381D02*
X70667952Y-30027571D01*
X70620333Y-29932333D01*
X70525095Y-29884714D01*
X70334618Y-29884714D01*
X70239380Y-29932333D01*
X70667952Y-30503762D02*
X70572714Y-30551381D01*
X70334618Y-30551381D01*
X70239380Y-30503762D01*
X70191761Y-30408524D01*
X70191761Y-30313286D01*
X70239380Y-30218048D01*
X70334618Y-30170429D01*
X70572714Y-30170429D01*
X70667952Y-30122810D01*
X71763190Y-29551381D02*
X72334619Y-29551381D01*
X72048904Y-30551381D02*
X72048904Y-29551381D01*
X73048905Y-30503762D02*
X72953667Y-30551381D01*
X72763190Y-30551381D01*
X72667952Y-30503762D01*
X72620333Y-30408524D01*
X72620333Y-30027571D01*
X72667952Y-29932333D01*
X72763190Y-29884714D01*
X72953667Y-29884714D01*
X73048905Y-29932333D01*
X73096524Y-30027571D01*
X73096524Y-30122810D01*
X72620333Y-30218048D01*
X73953667Y-30503762D02*
X73858429Y-30551381D01*
X73667952Y-30551381D01*
X73572714Y-30503762D01*
X73525095Y-30456143D01*
X73477476Y-30360905D01*
X73477476Y-30075190D01*
X73525095Y-29979952D01*
X73572714Y-29932333D01*
X73667952Y-29884714D01*
X73858429Y-29884714D01*
X73953667Y-29932333D01*
X74382238Y-30551381D02*
X74382238Y-29551381D01*
X74810810Y-30551381D02*
X74810810Y-30027571D01*
X74763191Y-29932333D01*
X74667953Y-29884714D01*
X74525095Y-29884714D01*
X74429857Y-29932333D01*
X74382238Y-29979952D01*
X75287000Y-29884714D02*
X75287000Y-30551381D01*
X75287000Y-29979952D02*
X75334619Y-29932333D01*
X75429857Y-29884714D01*
X75572715Y-29884714D01*
X75667953Y-29932333D01*
X75715572Y-30027571D01*
X75715572Y-30551381D01*
X76334619Y-30551381D02*
X76239381Y-30503762D01*
X76191762Y-30456143D01*
X76144143Y-30360905D01*
X76144143Y-30075190D01*
X76191762Y-29979952D01*
X76239381Y-29932333D01*
X76334619Y-29884714D01*
X76477477Y-29884714D01*
X76572715Y-29932333D01*
X76620334Y-29979952D01*
X76667953Y-30075190D01*
X76667953Y-30360905D01*
X76620334Y-30456143D01*
X76572715Y-30503762D01*
X76477477Y-30551381D01*
X76334619Y-30551381D01*
X77239381Y-30551381D02*
X77144143Y-30503762D01*
X77096524Y-30408524D01*
X77096524Y-29551381D01*
X77763191Y-30551381D02*
X77667953Y-30503762D01*
X77620334Y-30456143D01*
X77572715Y-30360905D01*
X77572715Y-30075190D01*
X77620334Y-29979952D01*
X77667953Y-29932333D01*
X77763191Y-29884714D01*
X77906049Y-29884714D01*
X78001287Y-29932333D01*
X78048906Y-29979952D01*
X78096525Y-30075190D01*
X78096525Y-30360905D01*
X78048906Y-30456143D01*
X78001287Y-30503762D01*
X77906049Y-30551381D01*
X77763191Y-30551381D01*
X78953668Y-29884714D02*
X78953668Y-30694238D01*
X78906049Y-30789476D01*
X78858430Y-30837095D01*
X78763191Y-30884714D01*
X78620334Y-30884714D01*
X78525096Y-30837095D01*
X78953668Y-30503762D02*
X78858430Y-30551381D01*
X78667953Y-30551381D01*
X78572715Y-30503762D01*
X78525096Y-30456143D01*
X78477477Y-30360905D01*
X78477477Y-30075190D01*
X78525096Y-29979952D01*
X78572715Y-29932333D01*
X78667953Y-29884714D01*
X78858430Y-29884714D01*
X78953668Y-29932333D01*
X79334620Y-29884714D02*
X79572715Y-30551381D01*
X79810811Y-29884714D02*
X79572715Y-30551381D01*
X79477477Y-30789476D01*
X79429858Y-30837095D01*
X79334620Y-30884714D01*
D12*
X37370000Y-26270000D03*
D13*
X37370000Y-23730000D03*
X50070000Y-26270000D03*
X39910000Y-23730000D03*
X52610000Y-26270000D03*
X42450000Y-23730000D03*
X55150000Y-26270000D03*
X44990000Y-23730000D03*
X57690000Y-26270000D03*
X47530000Y-23730000D03*
X60230000Y-26270000D03*
X50070000Y-23730000D03*
X62770000Y-26270000D03*
X52610000Y-23730000D03*
X65310000Y-26270000D03*
X55150000Y-23730000D03*
X67850000Y-26270000D03*
X57690000Y-23730000D03*
X70390000Y-26270000D03*
X60230000Y-23730000D03*
X72930000Y-26270000D03*
X62770000Y-23730000D03*
X75470000Y-26270000D03*
X65310000Y-23730000D03*
X67850000Y-23730000D03*
X78010000Y-26270000D03*
X70390000Y-23730000D03*
X75470000Y-23730000D03*
X78010000Y-23730000D03*
X80550000Y-23730000D03*
X83090000Y-23730000D03*
X80550000Y-26270000D03*
X83090000Y-26270000D03*
X39910000Y-26270000D03*
X42450000Y-26270000D03*
X44990000Y-26270000D03*
X47530000Y-26270000D03*
X85630000Y-26270000D03*
X85630000Y-23730000D03*
X72930000Y-23730000D03*
D14*
X66782000Y-36068000D03*
X64282000Y-36068000D03*
D15*
X66802000Y-61956000D03*
X66802000Y-59456000D03*
D14*
X64282000Y-43942000D03*
X66782000Y-43942000D03*
X64282000Y-51562000D03*
X66782000Y-51562000D03*
X42652000Y-34798000D03*
X40152000Y-34798000D03*
D15*
X51943000Y-37191000D03*
X51943000Y-34691000D03*
X61468000Y-69322000D03*
X61468000Y-66822000D03*
X56642000Y-46970000D03*
X56642000Y-44470000D03*
X56642000Y-54082000D03*
X56642000Y-51582000D03*
X56896000Y-61956000D03*
X56896000Y-59456000D03*
D14*
X40914000Y-38354000D03*
X43414000Y-38354000D03*
D16*
X32512000Y-61391000D03*
X32512000Y-67641000D03*
D15*
X37846000Y-43414000D03*
X37846000Y-40914000D03*
X62484000Y-31984000D03*
X62484000Y-29484000D03*
X59690000Y-31984000D03*
X59690000Y-29484000D03*
D17*
X66023500Y-64960500D03*
X68723500Y-64960500D03*
D18*
X40132000Y-71628000D03*
D19*
X45132000Y-71628000D03*
X50132000Y-71628000D03*
D20*
X54676000Y-37084000D03*
X56576000Y-37734000D03*
X56576000Y-36434000D03*
X56576000Y-37084000D03*
X54676000Y-36434000D03*
X54676000Y-37734000D03*
D21*
X61468000Y-63942000D03*
X62118000Y-62042000D03*
X60818000Y-62042000D03*
X61468000Y-62042000D03*
X60818000Y-63942000D03*
X62118000Y-63942000D03*
D22*
X66802000Y-41482000D03*
X66802000Y-38782000D03*
X66802000Y-48848000D03*
X66802000Y-46148000D03*
X66802000Y-56722000D03*
X66802000Y-54022000D03*
X37592000Y-34718000D03*
X37592000Y-37418000D03*
D17*
X59516000Y-49276000D03*
X56816000Y-49276000D03*
X59516000Y-56642000D03*
X56816000Y-56642000D03*
X54530000Y-29464000D03*
X57230000Y-29464000D03*
X54530000Y-31750000D03*
X57230000Y-31750000D03*
D22*
X39878000Y-29130000D03*
X39878000Y-31830000D03*
D17*
X68660000Y-67627500D03*
X65960000Y-67627500D03*
D22*
X46990000Y-31576000D03*
X46990000Y-28876000D03*
D23*
X45974000Y-34544000D03*
X45974000Y-35814000D03*
X45974000Y-37084000D03*
X49530000Y-37084000D03*
X49530000Y-34544000D03*
D24*
X44384000Y-29480000D03*
X42484000Y-29480000D03*
X43434000Y-31480000D03*
X51750000Y-29734000D03*
X49850000Y-29734000D03*
X50800000Y-31734000D03*
D25*
X46990000Y-43688000D03*
D26*
X44450000Y-43688000D03*
X41910000Y-43688000D03*
D22*
X55245000Y-65833000D03*
X55245000Y-68533000D03*
D27*
X31623000Y-34544000D03*
X31623000Y-37024000D03*
X31623000Y-32064000D03*
D28*
X61468000Y-74549000D03*
X63948000Y-74549000D03*
X58988000Y-74549000D03*
D22*
X58166000Y-68533000D03*
X58166000Y-65833000D03*
D29*
X69151500Y-42862500D03*
X69151500Y-46418500D03*
X69151500Y-49911000D03*
X69151500Y-52514500D03*
X69151500Y-54737000D03*
X69151500Y-57150000D03*
X69151500Y-59690000D03*
X70993000Y-66929000D03*
X70993000Y-64770000D03*
X70993000Y-62357000D03*
X59055000Y-62992000D03*
X59944000Y-65278000D03*
X63881000Y-62992000D03*
X63881000Y-66421000D03*
X63881000Y-65024000D03*
X58928000Y-70612000D03*
X64008000Y-70670000D03*
X49873000Y-28613000D03*
X64262000Y-40386000D03*
X64071500Y-38036500D03*
X61849000Y-37782500D03*
X58547000Y-37782500D03*
X64282000Y-45910500D03*
X64262000Y-49022000D03*
X64452500Y-53721000D03*
X64770000Y-60325000D03*
X62865000Y-60325000D03*
X59055000Y-60515500D03*
X59055000Y-58801000D03*
X59499500Y-54610000D03*
X59516000Y-51752500D03*
X58801000Y-47307500D03*
X58483500Y-45720000D03*
X58483500Y-42862500D03*
X58483500Y-40640000D03*
X55943500Y-34988500D03*
X59118500Y-34925000D03*
X62357000Y-34925000D03*
X69151500Y-35433000D03*
X69151500Y-39116000D03*
X54737000Y-62928500D03*
X54419500Y-60833000D03*
X54419500Y-57404000D03*
X54419500Y-53403500D03*
X54419500Y-49974500D03*
X54419500Y-46355000D03*
X54419500Y-43434000D03*
X54419500Y-40703500D03*
X59118500Y-39179500D03*
X50863500Y-39052500D03*
X64516000Y-56642000D03*
X45656500Y-55054500D03*
X45656500Y-53149500D03*
X45656500Y-50990500D03*
X45656500Y-48704500D03*
X45847000Y-46799500D03*
X47434500Y-46799500D03*
X47434500Y-48577500D03*
X47434500Y-50419000D03*
X47434500Y-52197000D03*
X47434500Y-53975000D03*
X47434500Y-55626000D03*
X47434500Y-57086500D03*
X45402500Y-57086500D03*
X43561000Y-57086500D03*
X43561000Y-55054500D03*
X43561000Y-52070000D03*
X43561000Y-49339500D03*
X43561000Y-46990000D03*
X41338500Y-36576000D03*
X43243500Y-36576000D03*
X38036500Y-32131000D03*
X35179000Y-36512500D03*
X35242500Y-32131000D03*
X45910500Y-38989000D03*
X59690000Y-68199000D03*
X63246000Y-68072000D03*
X56578500Y-27813000D03*
D30*
X69151500Y-46418500D02*
X69151500Y-49911000D01*
X69151500Y-52514500D02*
X69151500Y-54737000D01*
X69151500Y-57150000D02*
X69151500Y-59690000D01*
X69151500Y-39116000D02*
X69151500Y-42862500D01*
X70993000Y-62357000D02*
X70993000Y-64770000D01*
X63881000Y-65024000D02*
X63881000Y-66421000D01*
X64008000Y-70670000D02*
X64008000Y-70612000D01*
X49850000Y-29734000D02*
X49850000Y-28636000D01*
X49850000Y-28636000D02*
X49873000Y-28613000D01*
X47530000Y-26270000D02*
X47606000Y-26270000D01*
X41941750Y-28035250D02*
X41941750Y-28937750D01*
X41941750Y-28937750D02*
X42484000Y-29480000D01*
X42450000Y-23730000D02*
X42450000Y-24161500D01*
X42450000Y-24161500D02*
X41275000Y-25336500D01*
X41275000Y-25336500D02*
X41275000Y-27368500D01*
X58166000Y-37084000D02*
X58166000Y-37401500D01*
X62103000Y-38036500D02*
X64071500Y-38036500D01*
X61849000Y-37782500D02*
X62103000Y-38036500D01*
X58166000Y-37401500D02*
X58547000Y-37782500D01*
X64262000Y-40386000D02*
X64282000Y-40386000D01*
X64282000Y-40386000D02*
X64262000Y-40386000D01*
X64262000Y-40386000D02*
X64282000Y-40386000D01*
X64262000Y-49022000D02*
X64262000Y-49276000D01*
X64262000Y-49276000D02*
X64262000Y-49022000D01*
X64262000Y-49022000D02*
X64262000Y-49276000D01*
X59118500Y-39179500D02*
X59118500Y-40005000D01*
X64516000Y-60071000D02*
X64516000Y-56642000D01*
X64770000Y-60325000D02*
X64516000Y-60071000D01*
X59245500Y-60325000D02*
X62865000Y-60325000D01*
X59055000Y-60515500D02*
X59245500Y-60325000D01*
X60960000Y-58801000D02*
X59055000Y-58801000D01*
X62103000Y-57658000D02*
X60960000Y-58801000D01*
X62103000Y-55562500D02*
X62103000Y-57658000D01*
X61277500Y-54737000D02*
X62103000Y-55562500D01*
X59626500Y-54737000D02*
X61277500Y-54737000D01*
X59499500Y-54610000D02*
X59626500Y-54737000D01*
X60896500Y-51752500D02*
X59516000Y-51752500D01*
X61722000Y-50927000D02*
X60896500Y-51752500D01*
X61722000Y-47688500D02*
X61722000Y-50927000D01*
X61341000Y-47307500D02*
X61722000Y-47688500D01*
X58801000Y-47307500D02*
X61341000Y-47307500D01*
X58483500Y-42862500D02*
X58483500Y-45720000D01*
X59118500Y-40005000D02*
X58483500Y-40640000D01*
X62357000Y-34925000D02*
X59118500Y-34925000D01*
X69151500Y-39116000D02*
X69151500Y-35433000D01*
D31*
X54737000Y-61150500D02*
X54737000Y-62928500D01*
X54419500Y-60833000D02*
X54737000Y-61150500D01*
X54419500Y-53403500D02*
X54419500Y-57404000D01*
X54419500Y-46355000D02*
X54419500Y-49974500D01*
X54419500Y-40703500D02*
X54419500Y-43434000D01*
X61468000Y-62042000D02*
X61468000Y-58594000D01*
X61468000Y-58594000D02*
X59516000Y-56642000D01*
X60230000Y-23730000D02*
X60230000Y-24161500D01*
X60230000Y-24161500D02*
X58928000Y-25463500D01*
X58928000Y-28722000D02*
X59690000Y-29484000D01*
X58928000Y-25463500D02*
X58928000Y-28722000D01*
X67850000Y-26270000D02*
X68027500Y-26270000D01*
X68027500Y-26270000D02*
X69278500Y-25019000D01*
X69278500Y-25019000D02*
X71641000Y-25019000D01*
X71641000Y-25019000D02*
X72930000Y-23730000D01*
X49530000Y-37084000D02*
X49530000Y-37719000D01*
X59118500Y-39179500D02*
X63881000Y-43942000D01*
X49530000Y-37719000D02*
X50863500Y-39052500D01*
X63881000Y-43942000D02*
X64282000Y-43942000D01*
X56576000Y-37084000D02*
X58166000Y-37084000D01*
X58166000Y-37084000D02*
X61214000Y-37084000D01*
X64282000Y-40152000D02*
X64282000Y-40386000D01*
X64282000Y-40386000D02*
X64282000Y-43942000D01*
X61214000Y-37084000D02*
X64282000Y-40152000D01*
D32*
X64516000Y-56642000D02*
X59516000Y-56642000D01*
X47530000Y-26270000D02*
X47530000Y-26321000D01*
X59516000Y-56642000D02*
X59516000Y-49276000D01*
X59516000Y-49276000D02*
X64262000Y-49276000D01*
X64262000Y-49276000D02*
X64282000Y-49276000D01*
X64262000Y-49530000D02*
X64282000Y-49530000D01*
X64262000Y-49296000D02*
X64262000Y-49530000D01*
X64282000Y-49276000D02*
X64262000Y-49296000D01*
X64282000Y-51562000D02*
X64282000Y-49530000D01*
X64282000Y-49530000D02*
X64282000Y-45910500D01*
X64282000Y-45910500D02*
X64282000Y-43942000D01*
X32500000Y-74000000D02*
X34312500Y-74000000D01*
X54552000Y-70670000D02*
X57088000Y-70670000D01*
X54102000Y-71120000D02*
X54552000Y-70670000D01*
X54102000Y-74803000D02*
X54102000Y-71120000D01*
X53149500Y-75755500D02*
X54102000Y-74803000D01*
X36068000Y-75755500D02*
X53149500Y-75755500D01*
X34312500Y-74000000D02*
X36068000Y-75755500D01*
X90500000Y-74000000D02*
X87671000Y-74000000D01*
X87671000Y-74000000D02*
X86296500Y-75374500D01*
X86296500Y-75374500D02*
X72199500Y-75374500D01*
X72199500Y-75374500D02*
X67495000Y-70670000D01*
X67495000Y-70670000D02*
X65848000Y-70670000D01*
X78010000Y-22352000D02*
X78041500Y-22352000D01*
X88392000Y-21653500D02*
X90500000Y-23761500D01*
X78740000Y-21653500D02*
X88392000Y-21653500D01*
X78041500Y-22352000D02*
X78740000Y-21653500D01*
X90500000Y-23761500D02*
X90500000Y-25000000D01*
X85630000Y-26270000D02*
X89230000Y-26270000D01*
X89230000Y-26270000D02*
X90500000Y-25000000D01*
X72930000Y-23730000D02*
X72930000Y-22383500D01*
X78010000Y-22003000D02*
X78010000Y-22352000D01*
X78010000Y-22352000D02*
X78010000Y-23730000D01*
X77660500Y-21653500D02*
X78010000Y-22003000D01*
X73660000Y-21653500D02*
X77660500Y-21653500D01*
X72930000Y-22383500D02*
X73660000Y-21653500D01*
X60230000Y-22542500D02*
X60230000Y-22193000D01*
X72930000Y-22447500D02*
X72930000Y-23730000D01*
X72136000Y-21653500D02*
X72930000Y-22447500D01*
X60769500Y-21653500D02*
X72136000Y-21653500D01*
X60230000Y-22193000D02*
X60769500Y-21653500D01*
X52610000Y-23730000D02*
X52610000Y-22510500D01*
X52610000Y-22510500D02*
X53467000Y-21653500D01*
X53467000Y-21653500D02*
X59817000Y-21653500D01*
X59817000Y-21653500D02*
X60230000Y-22066500D01*
X60230000Y-22066500D02*
X60230000Y-22542500D01*
X60230000Y-22542500D02*
X60230000Y-23730000D01*
X42450000Y-22193500D02*
X43021000Y-22193500D01*
X43021000Y-22193500D02*
X43561000Y-21653500D01*
X43561000Y-21653500D02*
X51943000Y-21653500D01*
X51943000Y-21653500D02*
X52610000Y-22320500D01*
X52610000Y-22320500D02*
X52610000Y-23730000D01*
X32500000Y-25000000D02*
X32500000Y-24332500D01*
X32500000Y-24332500D02*
X35115500Y-21717000D01*
X35115500Y-21717000D02*
X41973500Y-21717000D01*
X41973500Y-21717000D02*
X42450000Y-22193500D01*
X42450000Y-22193500D02*
X42450000Y-23730000D01*
X59690000Y-29484000D02*
X62484000Y-29484000D01*
D33*
X85630000Y-26270000D02*
X85706000Y-26270000D01*
X78010000Y-23730000D02*
X78010000Y-24162000D01*
X60230000Y-23730000D02*
X60230000Y-23908000D01*
X42450000Y-23730000D02*
X42526000Y-23730000D01*
X42450000Y-23730000D02*
X42450000Y-23082000D01*
D30*
X41275000Y-27368500D02*
X41941750Y-28035250D01*
X41941750Y-28035250D02*
X42037000Y-28130500D01*
D34*
X66802000Y-38782000D02*
X66802000Y-36088000D01*
X66802000Y-36088000D02*
X66782000Y-36068000D01*
D30*
X56576000Y-36434000D02*
X57101500Y-36434000D01*
X61468000Y-36068000D02*
X64282000Y-36068000D01*
X61277500Y-36258500D02*
X61468000Y-36068000D01*
X57277000Y-36258500D02*
X61277500Y-36258500D01*
X57101500Y-36434000D02*
X57277000Y-36258500D01*
X62118000Y-62042000D02*
X66716000Y-62042000D01*
X66716000Y-62042000D02*
X66802000Y-61956000D01*
D34*
X66802000Y-59456000D02*
X66802000Y-56722000D01*
X66782000Y-43942000D02*
X66782000Y-41502000D01*
X66782000Y-41502000D02*
X66802000Y-41482000D01*
X66802000Y-46148000D02*
X66802000Y-43962000D01*
X66802000Y-43962000D02*
X66782000Y-43942000D01*
X66782000Y-51562000D02*
X66782000Y-48868000D01*
X66782000Y-48868000D02*
X66802000Y-48848000D01*
X66802000Y-54022000D02*
X66802000Y-51582000D01*
X66802000Y-51582000D02*
X66782000Y-51562000D01*
X45974000Y-34544000D02*
X42906000Y-34544000D01*
X42906000Y-34544000D02*
X42652000Y-34798000D01*
X37592000Y-34718000D02*
X40072000Y-34718000D01*
X40072000Y-34718000D02*
X40152000Y-34798000D01*
X37418000Y-34544000D02*
X37592000Y-34718000D01*
X31808000Y-34544000D02*
X37418000Y-34544000D01*
D30*
X54676000Y-37084000D02*
X52050000Y-37084000D01*
X52050000Y-37084000D02*
X51943000Y-37191000D01*
D34*
X49530000Y-34544000D02*
X51796000Y-34544000D01*
X51796000Y-34544000D02*
X51943000Y-34691000D01*
X61468000Y-74110000D02*
X61468000Y-69322000D01*
D30*
X61468000Y-63942000D02*
X61468000Y-66822000D01*
D34*
X56816000Y-49276000D02*
X56816000Y-47144000D01*
X56816000Y-47144000D02*
X56642000Y-46970000D01*
X56642000Y-51582000D02*
X56642000Y-49450000D01*
X56642000Y-49450000D02*
X56816000Y-49276000D01*
D30*
X56642000Y-44470000D02*
X56642000Y-37800000D01*
X56642000Y-37800000D02*
X56576000Y-37734000D01*
D34*
X56816000Y-56642000D02*
X56816000Y-54256000D01*
X56816000Y-54256000D02*
X56642000Y-54082000D01*
X56896000Y-59456000D02*
X56896000Y-56722000D01*
X56896000Y-56722000D02*
X56816000Y-56642000D01*
D30*
X60818000Y-62042000D02*
X56982000Y-62042000D01*
X56982000Y-62042000D02*
X56896000Y-61956000D01*
D34*
X40914000Y-38354000D02*
X40914000Y-42692000D01*
X40914000Y-42692000D02*
X41910000Y-43688000D01*
X45132000Y-71628000D02*
X45132000Y-65452000D01*
X41465500Y-61785500D02*
X41465500Y-44132500D01*
X45132000Y-65452000D02*
X41465500Y-61785500D01*
X41465500Y-44132500D02*
X41910000Y-43688000D01*
X37846000Y-43414000D02*
X41636000Y-43414000D01*
X41636000Y-43414000D02*
X41910000Y-43688000D01*
X40914000Y-38354000D02*
X40449500Y-38354000D01*
X40449500Y-38354000D02*
X39513500Y-37418000D01*
X39513500Y-37418000D02*
X37592000Y-37418000D01*
D30*
X44450000Y-43688000D02*
X44450000Y-46101000D01*
X45656500Y-50990500D02*
X45656500Y-53149500D01*
X45656500Y-46990000D02*
X45656500Y-48704500D01*
X45847000Y-46799500D02*
X45656500Y-46990000D01*
X47434500Y-48577500D02*
X47434500Y-46799500D01*
X47434500Y-52197000D02*
X47434500Y-50419000D01*
X47434500Y-55626000D02*
X47434500Y-53975000D01*
X45402500Y-57086500D02*
X47434500Y-57086500D01*
X43561000Y-55054500D02*
X43561000Y-57086500D01*
X43561000Y-49339500D02*
X43561000Y-52070000D01*
X44450000Y-46101000D02*
X43561000Y-46990000D01*
X45974000Y-37084000D02*
X43751500Y-37084000D01*
X43751500Y-37084000D02*
X43243500Y-36576000D01*
X35242500Y-32131000D02*
X38036500Y-32131000D01*
X35433000Y-32131000D02*
X35242500Y-32131000D01*
D32*
X45974000Y-37084000D02*
X44684000Y-37084000D01*
X44684000Y-37084000D02*
X43414000Y-38354000D01*
X45974000Y-38925500D02*
X45974000Y-37084000D01*
X45910500Y-38989000D02*
X45974000Y-38925500D01*
X35248000Y-38924000D02*
X35856000Y-38924000D01*
X35856000Y-38924000D02*
X37846000Y-40914000D01*
X44450000Y-43688000D02*
X44450000Y-39390000D01*
X44450000Y-39390000D02*
X43414000Y-38354000D01*
X32512000Y-67641000D02*
X36145000Y-67641000D01*
X36145000Y-67641000D02*
X40132000Y-71628000D01*
D34*
X32512000Y-61391000D02*
X35292500Y-61391000D01*
X47641502Y-74118498D02*
X50132000Y-71628000D01*
X44132500Y-74118498D02*
X47641502Y-74118498D01*
X42735500Y-72721498D02*
X44132500Y-74118498D01*
X42735500Y-68834000D02*
X42735500Y-72721498D01*
X35292500Y-61391000D02*
X42735500Y-68834000D01*
X50132000Y-71628000D02*
X50132000Y-46830000D01*
X50132000Y-46830000D02*
X46990000Y-43688000D01*
D31*
X65960000Y-67627500D02*
X65960000Y-68373000D01*
X68941000Y-31984000D02*
X62484000Y-31984000D01*
X72263000Y-35306000D02*
X68941000Y-31984000D01*
X72263000Y-67437000D02*
X72263000Y-35306000D01*
X70358000Y-69342000D02*
X72263000Y-67437000D01*
X66929000Y-69342000D02*
X70358000Y-69342000D01*
X65960000Y-68373000D02*
X66929000Y-69342000D01*
X58166000Y-65833000D02*
X58721000Y-65833000D01*
X58721000Y-65833000D02*
X59690000Y-66802000D01*
X59690000Y-66802000D02*
X59690000Y-68199000D01*
X63246000Y-68072000D02*
X63690500Y-67627500D01*
X63690500Y-67627500D02*
X65960000Y-67627500D01*
X57230000Y-29464000D02*
X57230000Y-28464500D01*
X57230000Y-28464500D02*
X56578500Y-27813000D01*
D32*
X57230000Y-31750000D02*
X57230000Y-29464000D01*
X57230000Y-31750000D02*
X59456000Y-31750000D01*
X59456000Y-31750000D02*
X59690000Y-31984000D01*
X59690000Y-31984000D02*
X62484000Y-31984000D01*
X37370000Y-23730000D02*
X39910000Y-23730000D01*
D31*
X65960000Y-67627500D02*
X64770000Y-67627500D01*
D34*
X68723500Y-64960500D02*
X68723500Y-67564000D01*
X68723500Y-67564000D02*
X68660000Y-67627500D01*
X39910000Y-26270000D02*
X39910000Y-29098000D01*
X39910000Y-29098000D02*
X39878000Y-29130000D01*
D30*
X42450000Y-26270000D02*
X42462500Y-26270000D01*
X42462500Y-26270000D02*
X44132500Y-27940000D01*
X44132500Y-27940000D02*
X46054000Y-27940000D01*
X46054000Y-27940000D02*
X46990000Y-28876000D01*
D33*
X39878000Y-31830000D02*
X40560000Y-31830000D01*
X43384000Y-30480000D02*
X44384000Y-29480000D01*
X41910000Y-30480000D02*
X43384000Y-30480000D01*
X40560000Y-31830000D02*
X41910000Y-30480000D01*
D31*
X44384000Y-29480000D02*
X44339000Y-29480000D01*
D34*
X39878000Y-31830000D02*
X40134000Y-31830000D01*
D33*
X46990000Y-31576000D02*
X46990000Y-30988000D01*
X46990000Y-30988000D02*
X48514000Y-29464000D01*
X48514000Y-29464000D02*
X48514000Y-28702000D01*
X48514000Y-28702000D02*
X49403000Y-27813000D01*
X49403000Y-27813000D02*
X51308000Y-27813000D01*
X51308000Y-27813000D02*
X51750000Y-28255000D01*
X51750000Y-28255000D02*
X51750000Y-29734000D01*
X66023500Y-64960500D02*
X67674500Y-63944500D01*
X67691000Y-64008000D02*
X67691000Y-63944500D01*
X67691000Y-63961000D02*
X67691000Y-64008000D01*
X67674500Y-63944500D02*
X67691000Y-63961000D01*
D30*
X54530000Y-31750000D02*
X54530000Y-36288000D01*
X54530000Y-36288000D02*
X54676000Y-36434000D01*
X62118000Y-63942000D02*
X63185000Y-63942000D01*
X63185000Y-63942000D02*
X65341500Y-63944500D01*
X65341500Y-63944500D02*
X67691000Y-63944500D01*
X67691000Y-63944500D02*
X68199000Y-63436500D01*
X68199000Y-63436500D02*
X70739000Y-60896500D01*
X70739000Y-60896500D02*
X70739000Y-35115500D01*
X70739000Y-35115500D02*
X69469000Y-33845500D01*
X69469000Y-33845500D02*
X55308500Y-33845500D01*
X55308500Y-33845500D02*
X54676000Y-34478000D01*
X54676000Y-34478000D02*
X54676000Y-36434000D01*
X50800000Y-31734000D02*
X54514000Y-31734000D01*
X54514000Y-31734000D02*
X54530000Y-31750000D01*
D33*
X55245000Y-65833000D02*
X55245000Y-63942000D01*
X55245000Y-63942000D02*
X55245000Y-64008000D01*
X55245000Y-64008000D02*
X55245000Y-63942000D01*
D30*
X47847250Y-33686750D02*
X47847250Y-33305750D01*
X52832000Y-30734000D02*
X54102000Y-29464000D01*
X49911000Y-30734000D02*
X52832000Y-30734000D01*
X49149000Y-31496000D02*
X49911000Y-30734000D01*
X49149000Y-32004000D02*
X49149000Y-31496000D01*
X47847250Y-33305750D02*
X49149000Y-32004000D01*
X54102000Y-29464000D02*
X54530000Y-29464000D01*
X54229000Y-29464000D02*
X54530000Y-29464000D01*
X43434000Y-31480000D02*
X43545000Y-31480000D01*
X43545000Y-31480000D02*
X45275500Y-33210500D01*
X45275500Y-33210500D02*
X47371000Y-33210500D01*
X47371000Y-33210500D02*
X47847250Y-33686750D01*
X47847250Y-33686750D02*
X47879000Y-33718500D01*
X47879000Y-33718500D02*
X47879000Y-38290500D01*
X47879000Y-38290500D02*
X50609500Y-41021000D01*
X50609500Y-41021000D02*
X52197000Y-41021000D01*
X54676000Y-37734000D02*
X54676000Y-38542000D01*
X53972500Y-63942000D02*
X55245000Y-63942000D01*
X55245000Y-63942000D02*
X60818000Y-63942000D01*
X52197000Y-62166500D02*
X53972500Y-63942000D01*
X52197000Y-41021000D02*
X52197000Y-62166500D01*
X54676000Y-38542000D02*
X52197000Y-41021000D01*
D33*
X55245000Y-68533000D02*
X58166000Y-68533000D01*
G36*
X36477910Y-35919441D02*
X36690110Y-36064431D01*
X36703197Y-36067081D01*
X36490559Y-36203910D01*
X36345569Y-36416110D01*
X36294560Y-36668000D01*
X36294560Y-38168000D01*
X36338838Y-38403317D01*
X36477910Y-38619441D01*
X36690110Y-38764431D01*
X36942000Y-38815440D01*
X38242000Y-38815440D01*
X38477317Y-38771162D01*
X38622095Y-38678000D01*
X38991590Y-38678000D01*
X39558543Y-39244952D01*
X39558545Y-39244955D01*
X39597153Y-39270752D01*
X39654000Y-39359095D01*
X39654000Y-42154000D01*
X38879026Y-42154000D01*
X39009327Y-42023698D01*
X39106000Y-41790309D01*
X39106000Y-41199750D01*
X38947250Y-41041000D01*
X37973000Y-41041000D01*
X37973000Y-41061000D01*
X37719000Y-41061000D01*
X37719000Y-41041000D01*
X36744750Y-41041000D01*
X36586000Y-41199750D01*
X36586000Y-41790309D01*
X36682673Y-42023698D01*
X36823910Y-42164936D01*
X36769559Y-42199910D01*
X36624569Y-42412110D01*
X36573560Y-42664000D01*
X36573560Y-44164000D01*
X36617838Y-44399317D01*
X36756910Y-44615441D01*
X36969110Y-44760431D01*
X37221000Y-44811440D01*
X38471000Y-44811440D01*
X38706317Y-44767162D01*
X38851095Y-44674000D01*
X40205500Y-44674000D01*
X40205500Y-61785495D01*
X40205499Y-61785500D01*
X40301412Y-62267681D01*
X40574545Y-62676455D01*
X43872000Y-65973910D01*
X43872000Y-68310530D01*
X43626455Y-67943045D01*
X43626452Y-67943043D01*
X36183455Y-60500045D01*
X35774681Y-60226912D01*
X35292500Y-60130999D01*
X35292495Y-60131000D01*
X34409440Y-60131000D01*
X34409440Y-59516000D01*
X34365162Y-59280683D01*
X34226090Y-59064559D01*
X34013890Y-58919569D01*
X33762000Y-58868560D01*
X31262000Y-58868560D01*
X31026683Y-58912838D01*
X30810559Y-59051910D01*
X30665569Y-59264110D01*
X30614560Y-59516000D01*
X30614560Y-63266000D01*
X30658838Y-63501317D01*
X30797910Y-63717441D01*
X31010110Y-63862431D01*
X31262000Y-63913440D01*
X33762000Y-63913440D01*
X33997317Y-63869162D01*
X34213441Y-63730090D01*
X34358431Y-63517890D01*
X34409440Y-63266000D01*
X34409440Y-62651000D01*
X34770590Y-62651000D01*
X41475500Y-69355909D01*
X41475500Y-69800121D01*
X41458309Y-69793000D01*
X40417750Y-69793000D01*
X40259000Y-69951750D01*
X40259000Y-71501000D01*
X40279000Y-71501000D01*
X40279000Y-71755000D01*
X40259000Y-71755000D01*
X40259000Y-73304250D01*
X40417750Y-73463000D01*
X41458309Y-73463000D01*
X41682606Y-73370093D01*
X41844545Y-73612453D01*
X42852593Y-74620500D01*
X36538132Y-74620500D01*
X35115066Y-73197434D01*
X34977546Y-73105546D01*
X34746846Y-72951397D01*
X34461551Y-72894648D01*
X34395845Y-72735628D01*
X33767679Y-72106364D01*
X33303813Y-71913750D01*
X38297000Y-71913750D01*
X38297000Y-72954310D01*
X38393673Y-73187699D01*
X38572302Y-73366327D01*
X38805691Y-73463000D01*
X39846250Y-73463000D01*
X40005000Y-73304250D01*
X40005000Y-71755000D01*
X38455750Y-71755000D01*
X38297000Y-71913750D01*
X33303813Y-71913750D01*
X32946519Y-71765389D01*
X32057381Y-71764613D01*
X31235628Y-72104155D01*
X30606364Y-72732321D01*
X30265389Y-73553481D01*
X30264613Y-74442619D01*
X30604155Y-75264372D01*
X31232321Y-75893636D01*
X32053481Y-76234611D01*
X32942619Y-76235387D01*
X33764372Y-75895845D01*
X34184159Y-75476791D01*
X35265434Y-76558066D01*
X35612547Y-76790000D01*
X32069931Y-76790000D01*
X31128977Y-76602833D01*
X30390561Y-76109439D01*
X29897167Y-75371023D01*
X29710000Y-74430069D01*
X29710000Y-70301690D01*
X38297000Y-70301690D01*
X38297000Y-71342250D01*
X38455750Y-71501000D01*
X40005000Y-71501000D01*
X40005000Y-69951750D01*
X39846250Y-69793000D01*
X38805691Y-69793000D01*
X38572302Y-69889673D01*
X38393673Y-70068301D01*
X38297000Y-70301690D01*
X29710000Y-70301690D01*
X29710000Y-67926750D01*
X30627000Y-67926750D01*
X30627000Y-69642309D01*
X30723673Y-69875698D01*
X30902301Y-70054327D01*
X31135690Y-70151000D01*
X32226250Y-70151000D01*
X32385000Y-69992250D01*
X32385000Y-67768000D01*
X32639000Y-67768000D01*
X32639000Y-69992250D01*
X32797750Y-70151000D01*
X33888310Y-70151000D01*
X34121699Y-70054327D01*
X34300327Y-69875698D01*
X34397000Y-69642309D01*
X34397000Y-67926750D01*
X34238250Y-67768000D01*
X32639000Y-67768000D01*
X32385000Y-67768000D01*
X30785750Y-67768000D01*
X30627000Y-67926750D01*
X29710000Y-67926750D01*
X29710000Y-65639691D01*
X30627000Y-65639691D01*
X30627000Y-67355250D01*
X30785750Y-67514000D01*
X32385000Y-67514000D01*
X32385000Y-65289750D01*
X32639000Y-65289750D01*
X32639000Y-67514000D01*
X34238250Y-67514000D01*
X34397000Y-67355250D01*
X34397000Y-65639691D01*
X34300327Y-65406302D01*
X34121699Y-65227673D01*
X33888310Y-65131000D01*
X32797750Y-65131000D01*
X32639000Y-65289750D01*
X32385000Y-65289750D01*
X32226250Y-65131000D01*
X31135690Y-65131000D01*
X30902301Y-65227673D01*
X30723673Y-65406302D01*
X30627000Y-65639691D01*
X29710000Y-65639691D01*
X29710000Y-59069930D01*
X29744926Y-58894345D01*
X29804774Y-58804775D01*
X29894345Y-58744926D01*
X30069930Y-58710000D01*
X33000000Y-58710000D01*
X33068584Y-58696358D01*
X33138513Y-58696358D01*
X33521196Y-58620238D01*
X33596160Y-58589187D01*
X33777138Y-58514224D01*
X34101561Y-58297451D01*
X34184379Y-58214633D01*
X34297451Y-58101562D01*
X34514223Y-57777138D01*
X34565072Y-57654378D01*
X34620238Y-57521196D01*
X34696358Y-57138514D01*
X34696358Y-57068584D01*
X34710000Y-57000000D01*
X34710000Y-42000000D01*
X34696358Y-41931416D01*
X34696358Y-41861486D01*
X34620238Y-41478804D01*
X34558136Y-41328877D01*
X34514223Y-41222862D01*
X34297451Y-40898438D01*
X34101562Y-40702550D01*
X34101561Y-40702549D01*
X33777138Y-40485776D01*
X33593368Y-40409657D01*
X33521196Y-40379762D01*
X33138513Y-40303642D01*
X33068584Y-40303642D01*
X33000000Y-40290000D01*
X30069930Y-40290000D01*
X29894345Y-40255074D01*
X29804774Y-40195225D01*
X29744926Y-40105655D01*
X29731408Y-40037691D01*
X36586000Y-40037691D01*
X36586000Y-40628250D01*
X36744750Y-40787000D01*
X37719000Y-40787000D01*
X37719000Y-39687750D01*
X37973000Y-39687750D01*
X37973000Y-40787000D01*
X38947250Y-40787000D01*
X39106000Y-40628250D01*
X39106000Y-40037691D01*
X39009327Y-39804302D01*
X38830699Y-39625673D01*
X38597310Y-39529000D01*
X38131750Y-39529000D01*
X37973000Y-39687750D01*
X37719000Y-39687750D01*
X37560250Y-39529000D01*
X37094690Y-39529000D01*
X36861301Y-39625673D01*
X36682673Y-39804302D01*
X36586000Y-40037691D01*
X29731408Y-40037691D01*
X29710000Y-39930070D01*
X29710000Y-38459000D01*
X31337250Y-38459000D01*
X31496000Y-38300250D01*
X31496000Y-37151000D01*
X31750000Y-37151000D01*
X31750000Y-38300250D01*
X31908750Y-38459000D01*
X34199310Y-38459000D01*
X34432699Y-38362327D01*
X34611327Y-38183698D01*
X34708000Y-37950309D01*
X34708000Y-37309750D01*
X34549250Y-37151000D01*
X31750000Y-37151000D01*
X31496000Y-37151000D01*
X31476000Y-37151000D01*
X31476000Y-36897000D01*
X31496000Y-36897000D01*
X31496000Y-36877000D01*
X31750000Y-36877000D01*
X31750000Y-36897000D01*
X34549250Y-36897000D01*
X34708000Y-36738250D01*
X34708000Y-36097691D01*
X34611327Y-35864302D01*
X34551025Y-35804000D01*
X36403626Y-35804000D01*
X36477910Y-35919441D01*
X36477910Y-35919441D01*
G37*
X36477910Y-35919441D02*
X36690110Y-36064431D01*
X36703197Y-36067081D01*
X36490559Y-36203910D01*
X36345569Y-36416110D01*
X36294560Y-36668000D01*
X36294560Y-38168000D01*
X36338838Y-38403317D01*
X36477910Y-38619441D01*
X36690110Y-38764431D01*
X36942000Y-38815440D01*
X38242000Y-38815440D01*
X38477317Y-38771162D01*
X38622095Y-38678000D01*
X38991590Y-38678000D01*
X39558543Y-39244952D01*
X39558545Y-39244955D01*
X39597153Y-39270752D01*
X39654000Y-39359095D01*
X39654000Y-42154000D01*
X38879026Y-42154000D01*
X39009327Y-42023698D01*
X39106000Y-41790309D01*
X39106000Y-41199750D01*
X38947250Y-41041000D01*
X37973000Y-41041000D01*
X37973000Y-41061000D01*
X37719000Y-41061000D01*
X37719000Y-41041000D01*
X36744750Y-41041000D01*
X36586000Y-41199750D01*
X36586000Y-41790309D01*
X36682673Y-42023698D01*
X36823910Y-42164936D01*
X36769559Y-42199910D01*
X36624569Y-42412110D01*
X36573560Y-42664000D01*
X36573560Y-44164000D01*
X36617838Y-44399317D01*
X36756910Y-44615441D01*
X36969110Y-44760431D01*
X37221000Y-44811440D01*
X38471000Y-44811440D01*
X38706317Y-44767162D01*
X38851095Y-44674000D01*
X40205500Y-44674000D01*
X40205500Y-61785495D01*
X40205499Y-61785500D01*
X40301412Y-62267681D01*
X40574545Y-62676455D01*
X43872000Y-65973910D01*
X43872000Y-68310530D01*
X43626455Y-67943045D01*
X43626452Y-67943043D01*
X36183455Y-60500045D01*
X35774681Y-60226912D01*
X35292500Y-60130999D01*
X35292495Y-60131000D01*
X34409440Y-60131000D01*
X34409440Y-59516000D01*
X34365162Y-59280683D01*
X34226090Y-59064559D01*
X34013890Y-58919569D01*
X33762000Y-58868560D01*
X31262000Y-58868560D01*
X31026683Y-58912838D01*
X30810559Y-59051910D01*
X30665569Y-59264110D01*
X30614560Y-59516000D01*
X30614560Y-63266000D01*
X30658838Y-63501317D01*
X30797910Y-63717441D01*
X31010110Y-63862431D01*
X31262000Y-63913440D01*
X33762000Y-63913440D01*
X33997317Y-63869162D01*
X34213441Y-63730090D01*
X34358431Y-63517890D01*
X34409440Y-63266000D01*
X34409440Y-62651000D01*
X34770590Y-62651000D01*
X41475500Y-69355909D01*
X41475500Y-69800121D01*
X41458309Y-69793000D01*
X40417750Y-69793000D01*
X40259000Y-69951750D01*
X40259000Y-71501000D01*
X40279000Y-71501000D01*
X40279000Y-71755000D01*
X40259000Y-71755000D01*
X40259000Y-73304250D01*
X40417750Y-73463000D01*
X41458309Y-73463000D01*
X41682606Y-73370093D01*
X41844545Y-73612453D01*
X42852593Y-74620500D01*
X36538132Y-74620500D01*
X35115066Y-73197434D01*
X34977546Y-73105546D01*
X34746846Y-72951397D01*
X34461551Y-72894648D01*
X34395845Y-72735628D01*
X33767679Y-72106364D01*
X33303813Y-71913750D01*
X38297000Y-71913750D01*
X38297000Y-72954310D01*
X38393673Y-73187699D01*
X38572302Y-73366327D01*
X38805691Y-73463000D01*
X39846250Y-73463000D01*
X40005000Y-73304250D01*
X40005000Y-71755000D01*
X38455750Y-71755000D01*
X38297000Y-71913750D01*
X33303813Y-71913750D01*
X32946519Y-71765389D01*
X32057381Y-71764613D01*
X31235628Y-72104155D01*
X30606364Y-72732321D01*
X30265389Y-73553481D01*
X30264613Y-74442619D01*
X30604155Y-75264372D01*
X31232321Y-75893636D01*
X32053481Y-76234611D01*
X32942619Y-76235387D01*
X33764372Y-75895845D01*
X34184159Y-75476791D01*
X35265434Y-76558066D01*
X35612547Y-76790000D01*
X32069931Y-76790000D01*
X31128977Y-76602833D01*
X30390561Y-76109439D01*
X29897167Y-75371023D01*
X29710000Y-74430069D01*
X29710000Y-70301690D01*
X38297000Y-70301690D01*
X38297000Y-71342250D01*
X38455750Y-71501000D01*
X40005000Y-71501000D01*
X40005000Y-69951750D01*
X39846250Y-69793000D01*
X38805691Y-69793000D01*
X38572302Y-69889673D01*
X38393673Y-70068301D01*
X38297000Y-70301690D01*
X29710000Y-70301690D01*
X29710000Y-67926750D01*
X30627000Y-67926750D01*
X30627000Y-69642309D01*
X30723673Y-69875698D01*
X30902301Y-70054327D01*
X31135690Y-70151000D01*
X32226250Y-70151000D01*
X32385000Y-69992250D01*
X32385000Y-67768000D01*
X32639000Y-67768000D01*
X32639000Y-69992250D01*
X32797750Y-70151000D01*
X33888310Y-70151000D01*
X34121699Y-70054327D01*
X34300327Y-69875698D01*
X34397000Y-69642309D01*
X34397000Y-67926750D01*
X34238250Y-67768000D01*
X32639000Y-67768000D01*
X32385000Y-67768000D01*
X30785750Y-67768000D01*
X30627000Y-67926750D01*
X29710000Y-67926750D01*
X29710000Y-65639691D01*
X30627000Y-65639691D01*
X30627000Y-67355250D01*
X30785750Y-67514000D01*
X32385000Y-67514000D01*
X32385000Y-65289750D01*
X32639000Y-65289750D01*
X32639000Y-67514000D01*
X34238250Y-67514000D01*
X34397000Y-67355250D01*
X34397000Y-65639691D01*
X34300327Y-65406302D01*
X34121699Y-65227673D01*
X33888310Y-65131000D01*
X32797750Y-65131000D01*
X32639000Y-65289750D01*
X32385000Y-65289750D01*
X32226250Y-65131000D01*
X31135690Y-65131000D01*
X30902301Y-65227673D01*
X30723673Y-65406302D01*
X30627000Y-65639691D01*
X29710000Y-65639691D01*
X29710000Y-59069930D01*
X29744926Y-58894345D01*
X29804774Y-58804775D01*
X29894345Y-58744926D01*
X30069930Y-58710000D01*
X33000000Y-58710000D01*
X33068584Y-58696358D01*
X33138513Y-58696358D01*
X33521196Y-58620238D01*
X33596160Y-58589187D01*
X33777138Y-58514224D01*
X34101561Y-58297451D01*
X34184379Y-58214633D01*
X34297451Y-58101562D01*
X34514223Y-57777138D01*
X34565072Y-57654378D01*
X34620238Y-57521196D01*
X34696358Y-57138514D01*
X34696358Y-57068584D01*
X34710000Y-57000000D01*
X34710000Y-42000000D01*
X34696358Y-41931416D01*
X34696358Y-41861486D01*
X34620238Y-41478804D01*
X34558136Y-41328877D01*
X34514223Y-41222862D01*
X34297451Y-40898438D01*
X34101562Y-40702550D01*
X34101561Y-40702549D01*
X33777138Y-40485776D01*
X33593368Y-40409657D01*
X33521196Y-40379762D01*
X33138513Y-40303642D01*
X33068584Y-40303642D01*
X33000000Y-40290000D01*
X30069930Y-40290000D01*
X29894345Y-40255074D01*
X29804774Y-40195225D01*
X29744926Y-40105655D01*
X29731408Y-40037691D01*
X36586000Y-40037691D01*
X36586000Y-40628250D01*
X36744750Y-40787000D01*
X37719000Y-40787000D01*
X37719000Y-39687750D01*
X37973000Y-39687750D01*
X37973000Y-40787000D01*
X38947250Y-40787000D01*
X39106000Y-40628250D01*
X39106000Y-40037691D01*
X39009327Y-39804302D01*
X38830699Y-39625673D01*
X38597310Y-39529000D01*
X38131750Y-39529000D01*
X37973000Y-39687750D01*
X37719000Y-39687750D01*
X37560250Y-39529000D01*
X37094690Y-39529000D01*
X36861301Y-39625673D01*
X36682673Y-39804302D01*
X36586000Y-40037691D01*
X29731408Y-40037691D01*
X29710000Y-39930070D01*
X29710000Y-38459000D01*
X31337250Y-38459000D01*
X31496000Y-38300250D01*
X31496000Y-37151000D01*
X31750000Y-37151000D01*
X31750000Y-38300250D01*
X31908750Y-38459000D01*
X34199310Y-38459000D01*
X34432699Y-38362327D01*
X34611327Y-38183698D01*
X34708000Y-37950309D01*
X34708000Y-37309750D01*
X34549250Y-37151000D01*
X31750000Y-37151000D01*
X31496000Y-37151000D01*
X31476000Y-37151000D01*
X31476000Y-36897000D01*
X31496000Y-36897000D01*
X31496000Y-36877000D01*
X31750000Y-36877000D01*
X31750000Y-36897000D01*
X34549250Y-36897000D01*
X34708000Y-36738250D01*
X34708000Y-36097691D01*
X34611327Y-35864302D01*
X34551025Y-35804000D01*
X36403626Y-35804000D01*
X36477910Y-35919441D01*
G36*
X44626560Y-36194000D02*
X44670838Y-36429317D01*
X44688858Y-36457321D01*
X44639000Y-36577690D01*
X44639000Y-36798250D01*
X44797750Y-36957000D01*
X45847000Y-36957000D01*
X45847000Y-36937000D01*
X46101000Y-36937000D01*
X46101000Y-36957000D01*
X46121000Y-36957000D01*
X46121000Y-37211000D01*
X46101000Y-37211000D01*
X46101000Y-37940250D01*
X46259750Y-38099000D01*
X46800309Y-38099000D01*
X47033698Y-38002327D01*
X47044000Y-37992025D01*
X47044000Y-38290500D01*
X47107561Y-38610041D01*
X47152970Y-38678000D01*
X47288566Y-38880934D01*
X47920414Y-39512782D01*
X47926355Y-42147922D01*
X47890000Y-42140560D01*
X46090000Y-42140560D01*
X45854683Y-42184838D01*
X45638559Y-42323910D01*
X45493569Y-42536110D01*
X45483234Y-42587146D01*
X45357576Y-42450034D01*
X44814742Y-42196954D01*
X44577000Y-42317003D01*
X44577000Y-43561000D01*
X44597000Y-43561000D01*
X44597000Y-43815000D01*
X44577000Y-43815000D01*
X44577000Y-45058997D01*
X44814742Y-45179046D01*
X45357576Y-44925966D01*
X45480844Y-44791462D01*
X45486838Y-44823317D01*
X45625910Y-45039441D01*
X45838110Y-45184431D01*
X46090000Y-45235440D01*
X46755530Y-45235440D01*
X47935979Y-46415889D01*
X47942500Y-49308142D01*
X47952618Y-49357530D01*
X47981152Y-49399090D01*
X48023608Y-49426274D01*
X48073295Y-49434799D01*
X48122384Y-49423322D01*
X48163140Y-49393650D01*
X48189141Y-49350459D01*
X48196500Y-49307856D01*
X48196500Y-46676410D01*
X48872000Y-47351910D01*
X48872000Y-70292982D01*
X48577270Y-70587199D01*
X48297319Y-71261395D01*
X48296953Y-71681137D01*
X47119592Y-72858498D01*
X46496702Y-72858498D01*
X46686730Y-72668801D01*
X46966681Y-71994605D01*
X46967318Y-71264597D01*
X46688545Y-70589914D01*
X46392000Y-70292852D01*
X46392000Y-65452005D01*
X46392001Y-65452000D01*
X46296088Y-64969819D01*
X46022955Y-64561045D01*
X44143172Y-62681262D01*
X44403275Y-62733000D01*
X44496725Y-62733000D01*
X45409425Y-62551453D01*
X46183175Y-62034450D01*
X46700178Y-61260700D01*
X46881725Y-60348000D01*
X46700178Y-59435300D01*
X46183175Y-58661550D01*
X45409425Y-58144547D01*
X44496725Y-57963000D01*
X44403275Y-57963000D01*
X43490575Y-58144547D01*
X42725500Y-58655754D01*
X42725500Y-44973850D01*
X43025481Y-44773409D01*
X43184501Y-44535418D01*
X43542424Y-44925966D01*
X44085258Y-45179046D01*
X44323000Y-45058997D01*
X44323000Y-43815000D01*
X44303000Y-43815000D01*
X44303000Y-43561000D01*
X44323000Y-43561000D01*
X44323000Y-42317003D01*
X44085258Y-42196954D01*
X43542424Y-42450034D01*
X43184501Y-42840582D01*
X43025481Y-42602591D01*
X42527491Y-42269845D01*
X42210751Y-42206841D01*
X42174000Y-42170090D01*
X42174000Y-39387026D01*
X42304302Y-39517327D01*
X42537691Y-39614000D01*
X43128250Y-39614000D01*
X43287000Y-39455250D01*
X43287000Y-38481000D01*
X43541000Y-38481000D01*
X43541000Y-39455250D01*
X43699750Y-39614000D01*
X44290309Y-39614000D01*
X44523698Y-39517327D01*
X44702327Y-39338699D01*
X44799000Y-39105310D01*
X44799000Y-38639750D01*
X44640250Y-38481000D01*
X43541000Y-38481000D01*
X43287000Y-38481000D01*
X43267000Y-38481000D01*
X43267000Y-38227000D01*
X43287000Y-38227000D01*
X43287000Y-37252750D01*
X43541000Y-37252750D01*
X43541000Y-38227000D01*
X44640250Y-38227000D01*
X44799000Y-38068250D01*
X44799000Y-37887026D01*
X44914302Y-38002327D01*
X45147691Y-38099000D01*
X45688250Y-38099000D01*
X45847000Y-37940250D01*
X45847000Y-37211000D01*
X44797750Y-37211000D01*
X44670888Y-37337862D01*
X44523698Y-37190673D01*
X44290309Y-37094000D01*
X43699750Y-37094000D01*
X43541000Y-37252750D01*
X43287000Y-37252750D01*
X43128250Y-37094000D01*
X42537691Y-37094000D01*
X42304302Y-37190673D01*
X42163064Y-37331910D01*
X42128090Y-37277559D01*
X41915890Y-37132569D01*
X41664000Y-37081560D01*
X40958969Y-37081560D01*
X40404455Y-36527045D01*
X39995681Y-36253912D01*
X39513500Y-36157999D01*
X39513495Y-36158000D01*
X38620386Y-36158000D01*
X38493890Y-36071569D01*
X38480803Y-36068919D01*
X38622095Y-35978000D01*
X39089474Y-35978000D01*
X39150110Y-36019431D01*
X39402000Y-36070440D01*
X40902000Y-36070440D01*
X41137317Y-36026162D01*
X41353441Y-35887090D01*
X41401134Y-35817289D01*
X41437910Y-35874441D01*
X41650110Y-36019431D01*
X41902000Y-36070440D01*
X43402000Y-36070440D01*
X43637317Y-36026162D01*
X43853441Y-35887090D01*
X43910214Y-35804000D01*
X44626560Y-35804000D01*
X44626560Y-36194000D01*
X44626560Y-36194000D01*
G37*
X44626560Y-36194000D02*
X44670838Y-36429317D01*
X44688858Y-36457321D01*
X44639000Y-36577690D01*
X44639000Y-36798250D01*
X44797750Y-36957000D01*
X45847000Y-36957000D01*
X45847000Y-36937000D01*
X46101000Y-36937000D01*
X46101000Y-36957000D01*
X46121000Y-36957000D01*
X46121000Y-37211000D01*
X46101000Y-37211000D01*
X46101000Y-37940250D01*
X46259750Y-38099000D01*
X46800309Y-38099000D01*
X47033698Y-38002327D01*
X47044000Y-37992025D01*
X47044000Y-38290500D01*
X47107561Y-38610041D01*
X47152970Y-38678000D01*
X47288566Y-38880934D01*
X47920414Y-39512782D01*
X47926355Y-42147922D01*
X47890000Y-42140560D01*
X46090000Y-42140560D01*
X45854683Y-42184838D01*
X45638559Y-42323910D01*
X45493569Y-42536110D01*
X45483234Y-42587146D01*
X45357576Y-42450034D01*
X44814742Y-42196954D01*
X44577000Y-42317003D01*
X44577000Y-43561000D01*
X44597000Y-43561000D01*
X44597000Y-43815000D01*
X44577000Y-43815000D01*
X44577000Y-45058997D01*
X44814742Y-45179046D01*
X45357576Y-44925966D01*
X45480844Y-44791462D01*
X45486838Y-44823317D01*
X45625910Y-45039441D01*
X45838110Y-45184431D01*
X46090000Y-45235440D01*
X46755530Y-45235440D01*
X47935979Y-46415889D01*
X47942500Y-49308142D01*
X47952618Y-49357530D01*
X47981152Y-49399090D01*
X48023608Y-49426274D01*
X48073295Y-49434799D01*
X48122384Y-49423322D01*
X48163140Y-49393650D01*
X48189141Y-49350459D01*
X48196500Y-49307856D01*
X48196500Y-46676410D01*
X48872000Y-47351910D01*
X48872000Y-70292982D01*
X48577270Y-70587199D01*
X48297319Y-71261395D01*
X48296953Y-71681137D01*
X47119592Y-72858498D01*
X46496702Y-72858498D01*
X46686730Y-72668801D01*
X46966681Y-71994605D01*
X46967318Y-71264597D01*
X46688545Y-70589914D01*
X46392000Y-70292852D01*
X46392000Y-65452005D01*
X46392001Y-65452000D01*
X46296088Y-64969819D01*
X46022955Y-64561045D01*
X44143172Y-62681262D01*
X44403275Y-62733000D01*
X44496725Y-62733000D01*
X45409425Y-62551453D01*
X46183175Y-62034450D01*
X46700178Y-61260700D01*
X46881725Y-60348000D01*
X46700178Y-59435300D01*
X46183175Y-58661550D01*
X45409425Y-58144547D01*
X44496725Y-57963000D01*
X44403275Y-57963000D01*
X43490575Y-58144547D01*
X42725500Y-58655754D01*
X42725500Y-44973850D01*
X43025481Y-44773409D01*
X43184501Y-44535418D01*
X43542424Y-44925966D01*
X44085258Y-45179046D01*
X44323000Y-45058997D01*
X44323000Y-43815000D01*
X44303000Y-43815000D01*
X44303000Y-43561000D01*
X44323000Y-43561000D01*
X44323000Y-42317003D01*
X44085258Y-42196954D01*
X43542424Y-42450034D01*
X43184501Y-42840582D01*
X43025481Y-42602591D01*
X42527491Y-42269845D01*
X42210751Y-42206841D01*
X42174000Y-42170090D01*
X42174000Y-39387026D01*
X42304302Y-39517327D01*
X42537691Y-39614000D01*
X43128250Y-39614000D01*
X43287000Y-39455250D01*
X43287000Y-38481000D01*
X43541000Y-38481000D01*
X43541000Y-39455250D01*
X43699750Y-39614000D01*
X44290309Y-39614000D01*
X44523698Y-39517327D01*
X44702327Y-39338699D01*
X44799000Y-39105310D01*
X44799000Y-38639750D01*
X44640250Y-38481000D01*
X43541000Y-38481000D01*
X43287000Y-38481000D01*
X43267000Y-38481000D01*
X43267000Y-38227000D01*
X43287000Y-38227000D01*
X43287000Y-37252750D01*
X43541000Y-37252750D01*
X43541000Y-38227000D01*
X44640250Y-38227000D01*
X44799000Y-38068250D01*
X44799000Y-37887026D01*
X44914302Y-38002327D01*
X45147691Y-38099000D01*
X45688250Y-38099000D01*
X45847000Y-37940250D01*
X45847000Y-37211000D01*
X44797750Y-37211000D01*
X44670888Y-37337862D01*
X44523698Y-37190673D01*
X44290309Y-37094000D01*
X43699750Y-37094000D01*
X43541000Y-37252750D01*
X43287000Y-37252750D01*
X43128250Y-37094000D01*
X42537691Y-37094000D01*
X42304302Y-37190673D01*
X42163064Y-37331910D01*
X42128090Y-37277559D01*
X41915890Y-37132569D01*
X41664000Y-37081560D01*
X40958969Y-37081560D01*
X40404455Y-36527045D01*
X39995681Y-36253912D01*
X39513500Y-36157999D01*
X39513495Y-36158000D01*
X38620386Y-36158000D01*
X38493890Y-36071569D01*
X38480803Y-36068919D01*
X38622095Y-35978000D01*
X39089474Y-35978000D01*
X39150110Y-36019431D01*
X39402000Y-36070440D01*
X40902000Y-36070440D01*
X41137317Y-36026162D01*
X41353441Y-35887090D01*
X41401134Y-35817289D01*
X41437910Y-35874441D01*
X41650110Y-36019431D01*
X41902000Y-36070440D01*
X43402000Y-36070440D01*
X43637317Y-36026162D01*
X43853441Y-35887090D01*
X43910214Y-35804000D01*
X44626560Y-35804000D01*
X44626560Y-36194000D01*
G36*
X32462402Y-22764966D02*
X32057381Y-22764613D01*
X31235628Y-23104155D01*
X30606364Y-23732321D01*
X30265389Y-24553481D01*
X30264613Y-25442619D01*
X30604155Y-26264372D01*
X31232321Y-26893636D01*
X32053481Y-27234611D01*
X32942619Y-27235387D01*
X33764372Y-26895845D01*
X34393636Y-26267679D01*
X34734611Y-25446519D01*
X34735387Y-24557381D01*
X34485360Y-23952272D01*
X35585632Y-22852000D01*
X36272151Y-22852000D01*
X36186371Y-22937630D01*
X35973243Y-23450900D01*
X35972758Y-24006661D01*
X36184990Y-24520303D01*
X36537833Y-24873763D01*
X36372683Y-24904838D01*
X36156559Y-25043910D01*
X36011569Y-25256110D01*
X35960560Y-25508000D01*
X35960560Y-27032000D01*
X36004838Y-27267317D01*
X36143910Y-27483441D01*
X36356110Y-27628431D01*
X36608000Y-27679440D01*
X38132000Y-27679440D01*
X38367317Y-27635162D01*
X38583441Y-27496090D01*
X38650000Y-27398678D01*
X38650000Y-28101135D01*
X38631569Y-28128110D01*
X38580560Y-28380000D01*
X38580560Y-29880000D01*
X38624838Y-30115317D01*
X38763910Y-30331441D01*
X38976110Y-30476431D01*
X38989197Y-30479081D01*
X38776559Y-30615910D01*
X38631569Y-30828110D01*
X38580560Y-31080000D01*
X38580560Y-32580000D01*
X38624838Y-32815317D01*
X38763910Y-33031441D01*
X38976110Y-33176431D01*
X39228000Y-33227440D01*
X40528000Y-33227440D01*
X40763317Y-33183162D01*
X40979441Y-33044090D01*
X41124431Y-32831890D01*
X41175440Y-32580000D01*
X41175440Y-32495737D01*
X41298088Y-32312181D01*
X41333506Y-32134124D01*
X42225631Y-31242000D01*
X42386560Y-31242000D01*
X42386560Y-31930000D01*
X42430838Y-32165317D01*
X42569910Y-32381441D01*
X42782110Y-32526431D01*
X43034000Y-32577440D01*
X43461572Y-32577440D01*
X44168132Y-33284000D01*
X42906000Y-33284000D01*
X42423819Y-33379912D01*
X42205841Y-33525560D01*
X41902000Y-33525560D01*
X41666683Y-33569838D01*
X41450559Y-33708910D01*
X41402866Y-33778711D01*
X41366090Y-33721559D01*
X41153890Y-33576569D01*
X40902000Y-33525560D01*
X40411648Y-33525560D01*
X40072000Y-33457999D01*
X40071995Y-33458000D01*
X38620386Y-33458000D01*
X38493890Y-33371569D01*
X38242000Y-33320560D01*
X37601802Y-33320560D01*
X37418000Y-33283999D01*
X37417995Y-33284000D01*
X34551025Y-33284000D01*
X34611327Y-33223698D01*
X34708000Y-32990309D01*
X34708000Y-32349750D01*
X34549250Y-32191000D01*
X31750000Y-32191000D01*
X31750000Y-32211000D01*
X31496000Y-32211000D01*
X31496000Y-32191000D01*
X31476000Y-32191000D01*
X31476000Y-31937000D01*
X31496000Y-31937000D01*
X31496000Y-30787750D01*
X31750000Y-30787750D01*
X31750000Y-31937000D01*
X34549250Y-31937000D01*
X34708000Y-31778250D01*
X34708000Y-31137691D01*
X34611327Y-30904302D01*
X34432699Y-30725673D01*
X34199310Y-30629000D01*
X31908750Y-30629000D01*
X31750000Y-30787750D01*
X31496000Y-30787750D01*
X31337250Y-30629000D01*
X29710000Y-30629000D01*
X29710000Y-24069931D01*
X29897167Y-23128977D01*
X30390561Y-22390561D01*
X31128977Y-21897167D01*
X32069931Y-21710000D01*
X33517368Y-21710000D01*
X32462402Y-22764966D01*
X32462402Y-22764966D01*
G37*
X32462402Y-22764966D02*
X32057381Y-22764613D01*
X31235628Y-23104155D01*
X30606364Y-23732321D01*
X30265389Y-24553481D01*
X30264613Y-25442619D01*
X30604155Y-26264372D01*
X31232321Y-26893636D01*
X32053481Y-27234611D01*
X32942619Y-27235387D01*
X33764372Y-26895845D01*
X34393636Y-26267679D01*
X34734611Y-25446519D01*
X34735387Y-24557381D01*
X34485360Y-23952272D01*
X35585632Y-22852000D01*
X36272151Y-22852000D01*
X36186371Y-22937630D01*
X35973243Y-23450900D01*
X35972758Y-24006661D01*
X36184990Y-24520303D01*
X36537833Y-24873763D01*
X36372683Y-24904838D01*
X36156559Y-25043910D01*
X36011569Y-25256110D01*
X35960560Y-25508000D01*
X35960560Y-27032000D01*
X36004838Y-27267317D01*
X36143910Y-27483441D01*
X36356110Y-27628431D01*
X36608000Y-27679440D01*
X38132000Y-27679440D01*
X38367317Y-27635162D01*
X38583441Y-27496090D01*
X38650000Y-27398678D01*
X38650000Y-28101135D01*
X38631569Y-28128110D01*
X38580560Y-28380000D01*
X38580560Y-29880000D01*
X38624838Y-30115317D01*
X38763910Y-30331441D01*
X38976110Y-30476431D01*
X38989197Y-30479081D01*
X38776559Y-30615910D01*
X38631569Y-30828110D01*
X38580560Y-31080000D01*
X38580560Y-32580000D01*
X38624838Y-32815317D01*
X38763910Y-33031441D01*
X38976110Y-33176431D01*
X39228000Y-33227440D01*
X40528000Y-33227440D01*
X40763317Y-33183162D01*
X40979441Y-33044090D01*
X41124431Y-32831890D01*
X41175440Y-32580000D01*
X41175440Y-32495737D01*
X41298088Y-32312181D01*
X41333506Y-32134124D01*
X42225631Y-31242000D01*
X42386560Y-31242000D01*
X42386560Y-31930000D01*
X42430838Y-32165317D01*
X42569910Y-32381441D01*
X42782110Y-32526431D01*
X43034000Y-32577440D01*
X43461572Y-32577440D01*
X44168132Y-33284000D01*
X42906000Y-33284000D01*
X42423819Y-33379912D01*
X42205841Y-33525560D01*
X41902000Y-33525560D01*
X41666683Y-33569838D01*
X41450559Y-33708910D01*
X41402866Y-33778711D01*
X41366090Y-33721559D01*
X41153890Y-33576569D01*
X40902000Y-33525560D01*
X40411648Y-33525560D01*
X40072000Y-33457999D01*
X40071995Y-33458000D01*
X38620386Y-33458000D01*
X38493890Y-33371569D01*
X38242000Y-33320560D01*
X37601802Y-33320560D01*
X37418000Y-33283999D01*
X37417995Y-33284000D01*
X34551025Y-33284000D01*
X34611327Y-33223698D01*
X34708000Y-32990309D01*
X34708000Y-32349750D01*
X34549250Y-32191000D01*
X31750000Y-32191000D01*
X31750000Y-32211000D01*
X31496000Y-32211000D01*
X31496000Y-32191000D01*
X31476000Y-32191000D01*
X31476000Y-31937000D01*
X31496000Y-31937000D01*
X31496000Y-30787750D01*
X31750000Y-30787750D01*
X31750000Y-31937000D01*
X34549250Y-31937000D01*
X34708000Y-31778250D01*
X34708000Y-31137691D01*
X34611327Y-30904302D01*
X34432699Y-30725673D01*
X34199310Y-30629000D01*
X31908750Y-30629000D01*
X31750000Y-30787750D01*
X31496000Y-30787750D01*
X31337250Y-30629000D01*
X29710000Y-30629000D01*
X29710000Y-24069931D01*
X29897167Y-23128977D01*
X30390561Y-22390561D01*
X31128977Y-21897167D01*
X32069931Y-21710000D01*
X33517368Y-21710000D01*
X32462402Y-22764966D01*
G36*
X55736910Y-38385441D02*
X55807000Y-38433331D01*
X55807000Y-41719500D01*
X53032000Y-41719500D01*
X53032000Y-41366868D01*
X55266434Y-39132434D01*
X55313537Y-39061939D01*
X55447439Y-38861541D01*
X55511000Y-38542000D01*
X55511000Y-38385563D01*
X55627383Y-38215231D01*
X55736910Y-38385441D01*
X55736910Y-38385441D01*
G37*
X55736910Y-38385441D02*
X55807000Y-38433331D01*
X55807000Y-41719500D01*
X53032000Y-41719500D01*
X53032000Y-41366868D01*
X55266434Y-39132434D01*
X55313537Y-39061939D01*
X55447439Y-38861541D01*
X55511000Y-38542000D01*
X55511000Y-38385563D01*
X55627383Y-38215231D01*
X55736910Y-38385441D01*
G36*
X62928838Y-36928317D02*
X63067910Y-37144441D01*
X63280110Y-37289431D01*
X63532000Y-37340440D01*
X65032000Y-37340440D01*
X65267317Y-37296162D01*
X65483441Y-37157090D01*
X65531134Y-37087289D01*
X65542000Y-37104176D01*
X65542000Y-37847116D01*
X65504560Y-38032000D01*
X65504560Y-39532000D01*
X65548838Y-39767317D01*
X65687910Y-39983441D01*
X65900110Y-40128431D01*
X65913197Y-40131081D01*
X65700559Y-40267910D01*
X65555569Y-40480110D01*
X65504560Y-40732000D01*
X65504560Y-41719500D01*
X57477000Y-41719500D01*
X57477000Y-38288969D01*
X57547431Y-38185890D01*
X57598440Y-37934000D01*
X57598440Y-37534000D01*
X57578550Y-37428295D01*
X57586000Y-37410310D01*
X57586000Y-37342750D01*
X57556996Y-37313746D01*
X57554162Y-37298683D01*
X57497741Y-37211002D01*
X57586000Y-37211002D01*
X57586000Y-37095217D01*
X57588569Y-37093500D01*
X61277500Y-37093500D01*
X61597041Y-37029939D01*
X61787019Y-36903000D01*
X62924074Y-36903000D01*
X62928838Y-36928317D01*
X62928838Y-36928317D01*
G37*
X62928838Y-36928317D02*
X63067910Y-37144441D01*
X63280110Y-37289431D01*
X63532000Y-37340440D01*
X65032000Y-37340440D01*
X65267317Y-37296162D01*
X65483441Y-37157090D01*
X65531134Y-37087289D01*
X65542000Y-37104176D01*
X65542000Y-37847116D01*
X65504560Y-38032000D01*
X65504560Y-39532000D01*
X65548838Y-39767317D01*
X65687910Y-39983441D01*
X65900110Y-40128431D01*
X65913197Y-40131081D01*
X65700559Y-40267910D01*
X65555569Y-40480110D01*
X65504560Y-40732000D01*
X65504560Y-41719500D01*
X57477000Y-41719500D01*
X57477000Y-38288969D01*
X57547431Y-38185890D01*
X57598440Y-37934000D01*
X57598440Y-37534000D01*
X57578550Y-37428295D01*
X57586000Y-37410310D01*
X57586000Y-37342750D01*
X57556996Y-37313746D01*
X57554162Y-37298683D01*
X57497741Y-37211002D01*
X57586000Y-37211002D01*
X57586000Y-37095217D01*
X57588569Y-37093500D01*
X61277500Y-37093500D01*
X61597041Y-37029939D01*
X61787019Y-36903000D01*
X62924074Y-36903000D01*
X62928838Y-36928317D01*
G36*
X69904000Y-35461368D02*
X69904000Y-41719500D01*
X68099440Y-41719500D01*
X68099440Y-40732000D01*
X68055162Y-40496683D01*
X67916090Y-40280559D01*
X67703890Y-40135569D01*
X67690803Y-40132919D01*
X67903441Y-39996090D01*
X68048431Y-39783890D01*
X68099440Y-39532000D01*
X68099440Y-38032000D01*
X68062000Y-37833024D01*
X68062000Y-37042115D01*
X68128431Y-36944890D01*
X68179440Y-36693000D01*
X68179440Y-35443000D01*
X68135162Y-35207683D01*
X67996090Y-34991559D01*
X67783890Y-34846569D01*
X67532000Y-34795560D01*
X66032000Y-34795560D01*
X65796683Y-34839838D01*
X65580559Y-34978910D01*
X65532866Y-35048711D01*
X65496090Y-34991559D01*
X65283890Y-34846569D01*
X65032000Y-34795560D01*
X63532000Y-34795560D01*
X63296683Y-34839838D01*
X63080559Y-34978910D01*
X62935569Y-35191110D01*
X62927086Y-35233000D01*
X61468000Y-35233000D01*
X61148460Y-35296560D01*
X60958481Y-35423500D01*
X57277000Y-35423500D01*
X56957459Y-35487061D01*
X56897444Y-35527162D01*
X56808548Y-35586560D01*
X56201000Y-35586560D01*
X55965683Y-35630838D01*
X55749559Y-35769910D01*
X55624617Y-35952769D01*
X55515090Y-35782559D01*
X55511000Y-35779764D01*
X55511000Y-34823868D01*
X55654368Y-34680500D01*
X69123132Y-34680500D01*
X69904000Y-35461368D01*
X69904000Y-35461368D01*
G37*
X69904000Y-35461368D02*
X69904000Y-41719500D01*
X68099440Y-41719500D01*
X68099440Y-40732000D01*
X68055162Y-40496683D01*
X67916090Y-40280559D01*
X67703890Y-40135569D01*
X67690803Y-40132919D01*
X67903441Y-39996090D01*
X68048431Y-39783890D01*
X68099440Y-39532000D01*
X68099440Y-38032000D01*
X68062000Y-37833024D01*
X68062000Y-37042115D01*
X68128431Y-36944890D01*
X68179440Y-36693000D01*
X68179440Y-35443000D01*
X68135162Y-35207683D01*
X67996090Y-34991559D01*
X67783890Y-34846569D01*
X67532000Y-34795560D01*
X66032000Y-34795560D01*
X65796683Y-34839838D01*
X65580559Y-34978910D01*
X65532866Y-35048711D01*
X65496090Y-34991559D01*
X65283890Y-34846569D01*
X65032000Y-34795560D01*
X63532000Y-34795560D01*
X63296683Y-34839838D01*
X63080559Y-34978910D01*
X62935569Y-35191110D01*
X62927086Y-35233000D01*
X61468000Y-35233000D01*
X61148460Y-35296560D01*
X60958481Y-35423500D01*
X57277000Y-35423500D01*
X56957459Y-35487061D01*
X56897444Y-35527162D01*
X56808548Y-35586560D01*
X56201000Y-35586560D01*
X55965683Y-35630838D01*
X55749559Y-35769910D01*
X55624617Y-35952769D01*
X55515090Y-35782559D01*
X55511000Y-35779764D01*
X55511000Y-34823868D01*
X55654368Y-34680500D01*
X69123132Y-34680500D01*
X69904000Y-35461368D01*
G36*
X91871023Y-21897167D02*
X92609439Y-22390561D01*
X93102833Y-23128977D01*
X93290000Y-24069931D01*
X93290000Y-41719500D01*
X73148000Y-41719500D01*
X73148000Y-37272619D01*
X75234613Y-37272619D01*
X75574155Y-38094372D01*
X76202321Y-38723636D01*
X77023481Y-39064611D01*
X77912619Y-39065387D01*
X78734372Y-38725845D01*
X79363636Y-38097679D01*
X79704611Y-37276519D01*
X79704614Y-37272619D01*
X87807613Y-37272619D01*
X88147155Y-38094372D01*
X88775321Y-38723636D01*
X89596481Y-39064611D01*
X90485619Y-39065387D01*
X91307372Y-38725845D01*
X91936636Y-38097679D01*
X92277611Y-37276519D01*
X92278387Y-36387381D01*
X91938845Y-35565628D01*
X91310679Y-34936364D01*
X90489519Y-34595389D01*
X89600381Y-34594613D01*
X88778628Y-34934155D01*
X88149364Y-35562321D01*
X87808389Y-36383481D01*
X87807613Y-37272619D01*
X79704614Y-37272619D01*
X79705387Y-36387381D01*
X79365845Y-35565628D01*
X78737679Y-34936364D01*
X77916519Y-34595389D01*
X77027381Y-34594613D01*
X76205628Y-34934155D01*
X75576364Y-35562321D01*
X75235389Y-36383481D01*
X75234613Y-37272619D01*
X73148000Y-37272619D01*
X73148000Y-35306000D01*
X73080633Y-34967325D01*
X72888790Y-34680210D01*
X72888787Y-34680208D01*
X69867580Y-31659000D01*
X80588668Y-31659000D01*
X80588668Y-28639000D01*
X66985333Y-28639000D01*
X66985333Y-31099000D01*
X63731038Y-31099000D01*
X63712162Y-30998683D01*
X63573090Y-30782559D01*
X63504994Y-30736031D01*
X63647327Y-30593698D01*
X63744000Y-30360309D01*
X63744000Y-29769750D01*
X63585250Y-29611000D01*
X62611000Y-29611000D01*
X62611000Y-29631000D01*
X62357000Y-29631000D01*
X62357000Y-29611000D01*
X61382750Y-29611000D01*
X61224000Y-29769750D01*
X61224000Y-30360309D01*
X61320673Y-30593698D01*
X61461910Y-30734936D01*
X61407559Y-30769910D01*
X61353519Y-30849000D01*
X60821844Y-30849000D01*
X60779090Y-30782559D01*
X60710994Y-30736031D01*
X60853327Y-30593698D01*
X60950000Y-30360309D01*
X60950000Y-29769750D01*
X60791250Y-29611000D01*
X59817000Y-29611000D01*
X59817000Y-29631000D01*
X59563000Y-29631000D01*
X59563000Y-29611000D01*
X59543000Y-29611000D01*
X59543000Y-29357000D01*
X59563000Y-29357000D01*
X59563000Y-28257750D01*
X59817000Y-28257750D01*
X59817000Y-29357000D01*
X60791250Y-29357000D01*
X60950000Y-29198250D01*
X60950000Y-28607691D01*
X61224000Y-28607691D01*
X61224000Y-29198250D01*
X61382750Y-29357000D01*
X62357000Y-29357000D01*
X62357000Y-28257750D01*
X62611000Y-28257750D01*
X62611000Y-29357000D01*
X63585250Y-29357000D01*
X63744000Y-29198250D01*
X63744000Y-28607691D01*
X63647327Y-28374302D01*
X63468699Y-28195673D01*
X63235310Y-28099000D01*
X62769750Y-28099000D01*
X62611000Y-28257750D01*
X62357000Y-28257750D01*
X62198250Y-28099000D01*
X61732690Y-28099000D01*
X61499301Y-28195673D01*
X61320673Y-28374302D01*
X61224000Y-28607691D01*
X60950000Y-28607691D01*
X60853327Y-28374302D01*
X60674699Y-28195673D01*
X60441310Y-28099000D01*
X59975750Y-28099000D01*
X59817000Y-28257750D01*
X59563000Y-28257750D01*
X59404250Y-28099000D01*
X58938690Y-28099000D01*
X58705301Y-28195673D01*
X58526673Y-28374302D01*
X58497291Y-28445236D01*
X58444090Y-28362559D01*
X58231890Y-28217569D01*
X58058915Y-28182541D01*
X58047633Y-28125825D01*
X57923469Y-27940000D01*
X57855790Y-27838710D01*
X57855787Y-27838708D01*
X57684075Y-27666995D01*
X57966661Y-27667242D01*
X58480303Y-27455010D01*
X58873629Y-27062370D01*
X58959949Y-26854488D01*
X59044990Y-27060303D01*
X59437630Y-27453629D01*
X59950900Y-27666757D01*
X60506661Y-27667242D01*
X61020303Y-27455010D01*
X61413629Y-27062370D01*
X61499949Y-26854488D01*
X61584990Y-27060303D01*
X61977630Y-27453629D01*
X62490900Y-27666757D01*
X63046661Y-27667242D01*
X63560303Y-27455010D01*
X63953629Y-27062370D01*
X64039949Y-26854488D01*
X64124990Y-27060303D01*
X64517630Y-27453629D01*
X65030900Y-27666757D01*
X65586661Y-27667242D01*
X66100303Y-27455010D01*
X66305457Y-27250213D01*
X67049392Y-27250213D01*
X67118857Y-27492397D01*
X67642302Y-27679144D01*
X68197368Y-27651362D01*
X68581143Y-27492397D01*
X68650608Y-27250213D01*
X67850000Y-26449605D01*
X67049392Y-27250213D01*
X66305457Y-27250213D01*
X66493629Y-27062370D01*
X66573395Y-26870273D01*
X66627603Y-27001143D01*
X66869787Y-27070608D01*
X67670395Y-26270000D01*
X66869787Y-25469392D01*
X66627603Y-25538857D01*
X66577491Y-25679318D01*
X66495010Y-25479697D01*
X66102370Y-25086371D01*
X65894488Y-25000051D01*
X66100303Y-24915010D01*
X66493629Y-24522370D01*
X66579949Y-24314488D01*
X66664990Y-24520303D01*
X67057630Y-24913629D01*
X67249727Y-24993395D01*
X67118857Y-25047603D01*
X67049392Y-25289787D01*
X67850000Y-26090395D01*
X68650608Y-25289787D01*
X68581143Y-25047603D01*
X68440682Y-24997491D01*
X68640303Y-24915010D01*
X69033629Y-24522370D01*
X69119949Y-24314488D01*
X69204990Y-24520303D01*
X69597630Y-24913629D01*
X69805512Y-24999949D01*
X69599697Y-25084990D01*
X69206371Y-25477630D01*
X69126605Y-25669727D01*
X69072397Y-25538857D01*
X68830213Y-25469392D01*
X68029605Y-26270000D01*
X68830213Y-27070608D01*
X69072397Y-27001143D01*
X69122509Y-26860682D01*
X69204990Y-27060303D01*
X69597630Y-27453629D01*
X70110900Y-27666757D01*
X70666661Y-27667242D01*
X71180303Y-27455010D01*
X71573629Y-27062370D01*
X71659949Y-26854488D01*
X71744990Y-27060303D01*
X72137630Y-27453629D01*
X72650900Y-27666757D01*
X73206661Y-27667242D01*
X73720303Y-27455010D01*
X74113629Y-27062370D01*
X74199949Y-26854488D01*
X74284990Y-27060303D01*
X74677630Y-27453629D01*
X75190900Y-27666757D01*
X75746661Y-27667242D01*
X76260303Y-27455010D01*
X76653629Y-27062370D01*
X76739949Y-26854488D01*
X76824990Y-27060303D01*
X77217630Y-27453629D01*
X77730900Y-27666757D01*
X78286661Y-27667242D01*
X78800303Y-27455010D01*
X79193629Y-27062370D01*
X79279949Y-26854488D01*
X79364990Y-27060303D01*
X79757630Y-27453629D01*
X80270900Y-27666757D01*
X80826661Y-27667242D01*
X81340303Y-27455010D01*
X81733629Y-27062370D01*
X81819949Y-26854488D01*
X81904990Y-27060303D01*
X82297630Y-27453629D01*
X82810900Y-27666757D01*
X83366661Y-27667242D01*
X83880303Y-27455010D01*
X84085457Y-27250213D01*
X84829392Y-27250213D01*
X84898857Y-27492397D01*
X85422302Y-27679144D01*
X85977368Y-27651362D01*
X86361143Y-27492397D01*
X86430608Y-27250213D01*
X85630000Y-26449605D01*
X84829392Y-27250213D01*
X84085457Y-27250213D01*
X84273629Y-27062370D01*
X84353395Y-26870273D01*
X84407603Y-27001143D01*
X84649787Y-27070608D01*
X85450395Y-26270000D01*
X85809605Y-26270000D01*
X86610213Y-27070608D01*
X86852397Y-27001143D01*
X87000433Y-26586202D01*
X89093403Y-26586202D01*
X89265390Y-26915360D01*
X90092346Y-27242026D01*
X90981363Y-27227365D01*
X91734610Y-26915360D01*
X91906597Y-26586202D01*
X90500000Y-25179605D01*
X89093403Y-26586202D01*
X87000433Y-26586202D01*
X87039144Y-26477698D01*
X87011362Y-25922632D01*
X86852397Y-25538857D01*
X86610213Y-25469392D01*
X85809605Y-26270000D01*
X85450395Y-26270000D01*
X84649787Y-25469392D01*
X84407603Y-25538857D01*
X84357491Y-25679318D01*
X84275010Y-25479697D01*
X83882370Y-25086371D01*
X83674488Y-25000051D01*
X83880303Y-24915010D01*
X84273629Y-24522370D01*
X84359949Y-24314488D01*
X84444990Y-24520303D01*
X84837630Y-24913629D01*
X85029727Y-24993395D01*
X84898857Y-25047603D01*
X84829392Y-25289787D01*
X85630000Y-26090395D01*
X86430608Y-25289787D01*
X86361143Y-25047603D01*
X86220682Y-24997491D01*
X86420303Y-24915010D01*
X86743530Y-24592346D01*
X88257974Y-24592346D01*
X88272635Y-25481363D01*
X88584640Y-26234610D01*
X88913798Y-26406597D01*
X90320395Y-25000000D01*
X90679605Y-25000000D01*
X92086202Y-26406597D01*
X92415360Y-26234610D01*
X92742026Y-25407654D01*
X92727365Y-24518637D01*
X92415360Y-23765390D01*
X92086202Y-23593403D01*
X90679605Y-25000000D01*
X90320395Y-25000000D01*
X88913798Y-23593403D01*
X88584640Y-23765390D01*
X88257974Y-24592346D01*
X86743530Y-24592346D01*
X86813629Y-24522370D01*
X87026757Y-24009100D01*
X87027242Y-23453339D01*
X87010905Y-23413798D01*
X89093403Y-23413798D01*
X90500000Y-24820395D01*
X91906597Y-23413798D01*
X91734610Y-23084640D01*
X90907654Y-22757974D01*
X90018637Y-22772635D01*
X89265390Y-23084640D01*
X89093403Y-23413798D01*
X87010905Y-23413798D01*
X86815010Y-22939697D01*
X86422370Y-22546371D01*
X85909100Y-22333243D01*
X85353339Y-22332758D01*
X84839697Y-22544990D01*
X84446371Y-22937630D01*
X84360051Y-23145512D01*
X84275010Y-22939697D01*
X83882370Y-22546371D01*
X83369100Y-22333243D01*
X82813339Y-22332758D01*
X82299697Y-22544990D01*
X81906371Y-22937630D01*
X81820051Y-23145512D01*
X81735010Y-22939697D01*
X81342370Y-22546371D01*
X80829100Y-22333243D01*
X80273339Y-22332758D01*
X79759697Y-22544990D01*
X79366371Y-22937630D01*
X79286605Y-23129727D01*
X79232397Y-22998857D01*
X78990213Y-22929392D01*
X78189605Y-23730000D01*
X78990213Y-24530608D01*
X79232397Y-24461143D01*
X79282509Y-24320682D01*
X79364990Y-24520303D01*
X79757630Y-24913629D01*
X79965512Y-24999949D01*
X79759697Y-25084990D01*
X79366371Y-25477630D01*
X79280051Y-25685512D01*
X79195010Y-25479697D01*
X78802370Y-25086371D01*
X78610273Y-25006605D01*
X78741143Y-24952397D01*
X78810608Y-24710213D01*
X78010000Y-23909605D01*
X77209392Y-24710213D01*
X77278857Y-24952397D01*
X77419318Y-25002509D01*
X77219697Y-25084990D01*
X76826371Y-25477630D01*
X76740051Y-25685512D01*
X76655010Y-25479697D01*
X76262370Y-25086371D01*
X76054488Y-25000051D01*
X76260303Y-24915010D01*
X76653629Y-24522370D01*
X76733395Y-24330273D01*
X76787603Y-24461143D01*
X77029787Y-24530608D01*
X77830395Y-23730000D01*
X77029787Y-22929392D01*
X76787603Y-22998857D01*
X76737491Y-23139318D01*
X76655010Y-22939697D01*
X76465432Y-22749787D01*
X77209392Y-22749787D01*
X78010000Y-23550395D01*
X78810608Y-22749787D01*
X78741143Y-22507603D01*
X78217698Y-22320856D01*
X77662632Y-22348638D01*
X77278857Y-22507603D01*
X77209392Y-22749787D01*
X76465432Y-22749787D01*
X76262370Y-22546371D01*
X75749100Y-22333243D01*
X75193339Y-22332758D01*
X74679697Y-22544990D01*
X74286371Y-22937630D01*
X74206605Y-23129727D01*
X74152397Y-22998857D01*
X73910213Y-22929392D01*
X73109605Y-23730000D01*
X73910213Y-24530608D01*
X74152397Y-24461143D01*
X74202509Y-24320682D01*
X74284990Y-24520303D01*
X74677630Y-24913629D01*
X74885512Y-24999949D01*
X74679697Y-25084990D01*
X74286371Y-25477630D01*
X74200051Y-25685512D01*
X74115010Y-25479697D01*
X73722370Y-25086371D01*
X73530273Y-25006605D01*
X73661143Y-24952397D01*
X73730608Y-24710213D01*
X72930000Y-23909605D01*
X72129392Y-24710213D01*
X72198857Y-24952397D01*
X72339318Y-25002509D01*
X72139697Y-25084990D01*
X71746371Y-25477630D01*
X71660051Y-25685512D01*
X71575010Y-25479697D01*
X71182370Y-25086371D01*
X70974488Y-25000051D01*
X71180303Y-24915010D01*
X71573629Y-24522370D01*
X71653395Y-24330273D01*
X71707603Y-24461143D01*
X71949787Y-24530608D01*
X72750395Y-23730000D01*
X71949787Y-22929392D01*
X71707603Y-22998857D01*
X71657491Y-23139318D01*
X71575010Y-22939697D01*
X71385432Y-22749787D01*
X72129392Y-22749787D01*
X72930000Y-23550395D01*
X73730608Y-22749787D01*
X73661143Y-22507603D01*
X73137698Y-22320856D01*
X72582632Y-22348638D01*
X72198857Y-22507603D01*
X72129392Y-22749787D01*
X71385432Y-22749787D01*
X71182370Y-22546371D01*
X70669100Y-22333243D01*
X70113339Y-22332758D01*
X69599697Y-22544990D01*
X69206371Y-22937630D01*
X69120051Y-23145512D01*
X69035010Y-22939697D01*
X68642370Y-22546371D01*
X68129100Y-22333243D01*
X67573339Y-22332758D01*
X67059697Y-22544990D01*
X66666371Y-22937630D01*
X66580051Y-23145512D01*
X66495010Y-22939697D01*
X66102370Y-22546371D01*
X65589100Y-22333243D01*
X65033339Y-22332758D01*
X64519697Y-22544990D01*
X64126371Y-22937630D01*
X64040051Y-23145512D01*
X63955010Y-22939697D01*
X63562370Y-22546371D01*
X63049100Y-22333243D01*
X62493339Y-22332758D01*
X61979697Y-22544990D01*
X61586371Y-22937630D01*
X61506605Y-23129727D01*
X61452397Y-22998857D01*
X61210213Y-22929392D01*
X60409605Y-23730000D01*
X61210213Y-24530608D01*
X61452397Y-24461143D01*
X61502509Y-24320682D01*
X61584990Y-24520303D01*
X61977630Y-24913629D01*
X62185512Y-24999949D01*
X61979697Y-25084990D01*
X61586371Y-25477630D01*
X61500051Y-25685512D01*
X61415010Y-25479697D01*
X61022370Y-25086371D01*
X60830273Y-25006605D01*
X60961143Y-24952397D01*
X61030608Y-24710213D01*
X60230000Y-23909605D01*
X59429392Y-24710213D01*
X59498857Y-24952397D01*
X59639318Y-25002509D01*
X59439697Y-25084990D01*
X59046371Y-25477630D01*
X58960051Y-25685512D01*
X58875010Y-25479697D01*
X58482370Y-25086371D01*
X58274488Y-25000051D01*
X58480303Y-24915010D01*
X58873629Y-24522370D01*
X58953395Y-24330273D01*
X59007603Y-24461143D01*
X59249787Y-24530608D01*
X60050395Y-23730000D01*
X59249787Y-22929392D01*
X59007603Y-22998857D01*
X58957491Y-23139318D01*
X58875010Y-22939697D01*
X58685432Y-22749787D01*
X59429392Y-22749787D01*
X60230000Y-23550395D01*
X61030608Y-22749787D01*
X60961143Y-22507603D01*
X60437698Y-22320856D01*
X59882632Y-22348638D01*
X59498857Y-22507603D01*
X59429392Y-22749787D01*
X58685432Y-22749787D01*
X58482370Y-22546371D01*
X57969100Y-22333243D01*
X57413339Y-22332758D01*
X56899697Y-22544990D01*
X56506371Y-22937630D01*
X56420051Y-23145512D01*
X56335010Y-22939697D01*
X55942370Y-22546371D01*
X55429100Y-22333243D01*
X54873339Y-22332758D01*
X54359697Y-22544990D01*
X53966371Y-22937630D01*
X53886605Y-23129727D01*
X53832397Y-22998857D01*
X53590213Y-22929392D01*
X52789605Y-23730000D01*
X53590213Y-24530608D01*
X53832397Y-24461143D01*
X53882509Y-24320682D01*
X53964990Y-24520303D01*
X54357630Y-24913629D01*
X54565512Y-24999949D01*
X54359697Y-25084990D01*
X53966371Y-25477630D01*
X53880051Y-25685512D01*
X53795010Y-25479697D01*
X53402370Y-25086371D01*
X53210273Y-25006605D01*
X53341143Y-24952397D01*
X53410608Y-24710213D01*
X52610000Y-23909605D01*
X51809392Y-24710213D01*
X51878857Y-24952397D01*
X52019318Y-25002509D01*
X51819697Y-25084990D01*
X51426371Y-25477630D01*
X51340051Y-25685512D01*
X51255010Y-25479697D01*
X50862370Y-25086371D01*
X50654488Y-25000051D01*
X50860303Y-24915010D01*
X51253629Y-24522370D01*
X51333395Y-24330273D01*
X51387603Y-24461143D01*
X51629787Y-24530608D01*
X52430395Y-23730000D01*
X51629787Y-22929392D01*
X51387603Y-22998857D01*
X51337491Y-23139318D01*
X51255010Y-22939697D01*
X51065432Y-22749787D01*
X51809392Y-22749787D01*
X52610000Y-23550395D01*
X53410608Y-22749787D01*
X53341143Y-22507603D01*
X52817698Y-22320856D01*
X52262632Y-22348638D01*
X51878857Y-22507603D01*
X51809392Y-22749787D01*
X51065432Y-22749787D01*
X50862370Y-22546371D01*
X50349100Y-22333243D01*
X49793339Y-22332758D01*
X49279697Y-22544990D01*
X48886371Y-22937630D01*
X48800051Y-23145512D01*
X48715010Y-22939697D01*
X48646648Y-22871216D01*
X48643108Y-21710000D01*
X90930069Y-21710000D01*
X91871023Y-21897167D01*
X91871023Y-21897167D01*
G37*
X91871023Y-21897167D02*
X92609439Y-22390561D01*
X93102833Y-23128977D01*
X93290000Y-24069931D01*
X93290000Y-41719500D01*
X73148000Y-41719500D01*
X73148000Y-37272619D01*
X75234613Y-37272619D01*
X75574155Y-38094372D01*
X76202321Y-38723636D01*
X77023481Y-39064611D01*
X77912619Y-39065387D01*
X78734372Y-38725845D01*
X79363636Y-38097679D01*
X79704611Y-37276519D01*
X79704614Y-37272619D01*
X87807613Y-37272619D01*
X88147155Y-38094372D01*
X88775321Y-38723636D01*
X89596481Y-39064611D01*
X90485619Y-39065387D01*
X91307372Y-38725845D01*
X91936636Y-38097679D01*
X92277611Y-37276519D01*
X92278387Y-36387381D01*
X91938845Y-35565628D01*
X91310679Y-34936364D01*
X90489519Y-34595389D01*
X89600381Y-34594613D01*
X88778628Y-34934155D01*
X88149364Y-35562321D01*
X87808389Y-36383481D01*
X87807613Y-37272619D01*
X79704614Y-37272619D01*
X79705387Y-36387381D01*
X79365845Y-35565628D01*
X78737679Y-34936364D01*
X77916519Y-34595389D01*
X77027381Y-34594613D01*
X76205628Y-34934155D01*
X75576364Y-35562321D01*
X75235389Y-36383481D01*
X75234613Y-37272619D01*
X73148000Y-37272619D01*
X73148000Y-35306000D01*
X73080633Y-34967325D01*
X72888790Y-34680210D01*
X72888787Y-34680208D01*
X69867580Y-31659000D01*
X80588668Y-31659000D01*
X80588668Y-28639000D01*
X66985333Y-28639000D01*
X66985333Y-31099000D01*
X63731038Y-31099000D01*
X63712162Y-30998683D01*
X63573090Y-30782559D01*
X63504994Y-30736031D01*
X63647327Y-30593698D01*
X63744000Y-30360309D01*
X63744000Y-29769750D01*
X63585250Y-29611000D01*
X62611000Y-29611000D01*
X62611000Y-29631000D01*
X62357000Y-29631000D01*
X62357000Y-29611000D01*
X61382750Y-29611000D01*
X61224000Y-29769750D01*
X61224000Y-30360309D01*
X61320673Y-30593698D01*
X61461910Y-30734936D01*
X61407559Y-30769910D01*
X61353519Y-30849000D01*
X60821844Y-30849000D01*
X60779090Y-30782559D01*
X60710994Y-30736031D01*
X60853327Y-30593698D01*
X60950000Y-30360309D01*
X60950000Y-29769750D01*
X60791250Y-29611000D01*
X59817000Y-29611000D01*
X59817000Y-29631000D01*
X59563000Y-29631000D01*
X59563000Y-29611000D01*
X59543000Y-29611000D01*
X59543000Y-29357000D01*
X59563000Y-29357000D01*
X59563000Y-28257750D01*
X59817000Y-28257750D01*
X59817000Y-29357000D01*
X60791250Y-29357000D01*
X60950000Y-29198250D01*
X60950000Y-28607691D01*
X61224000Y-28607691D01*
X61224000Y-29198250D01*
X61382750Y-29357000D01*
X62357000Y-29357000D01*
X62357000Y-28257750D01*
X62611000Y-28257750D01*
X62611000Y-29357000D01*
X63585250Y-29357000D01*
X63744000Y-29198250D01*
X63744000Y-28607691D01*
X63647327Y-28374302D01*
X63468699Y-28195673D01*
X63235310Y-28099000D01*
X62769750Y-28099000D01*
X62611000Y-28257750D01*
X62357000Y-28257750D01*
X62198250Y-28099000D01*
X61732690Y-28099000D01*
X61499301Y-28195673D01*
X61320673Y-28374302D01*
X61224000Y-28607691D01*
X60950000Y-28607691D01*
X60853327Y-28374302D01*
X60674699Y-28195673D01*
X60441310Y-28099000D01*
X59975750Y-28099000D01*
X59817000Y-28257750D01*
X59563000Y-28257750D01*
X59404250Y-28099000D01*
X58938690Y-28099000D01*
X58705301Y-28195673D01*
X58526673Y-28374302D01*
X58497291Y-28445236D01*
X58444090Y-28362559D01*
X58231890Y-28217569D01*
X58058915Y-28182541D01*
X58047633Y-28125825D01*
X57923469Y-27940000D01*
X57855790Y-27838710D01*
X57855787Y-27838708D01*
X57684075Y-27666995D01*
X57966661Y-27667242D01*
X58480303Y-27455010D01*
X58873629Y-27062370D01*
X58959949Y-26854488D01*
X59044990Y-27060303D01*
X59437630Y-27453629D01*
X59950900Y-27666757D01*
X60506661Y-27667242D01*
X61020303Y-27455010D01*
X61413629Y-27062370D01*
X61499949Y-26854488D01*
X61584990Y-27060303D01*
X61977630Y-27453629D01*
X62490900Y-27666757D01*
X63046661Y-27667242D01*
X63560303Y-27455010D01*
X63953629Y-27062370D01*
X64039949Y-26854488D01*
X64124990Y-27060303D01*
X64517630Y-27453629D01*
X65030900Y-27666757D01*
X65586661Y-27667242D01*
X66100303Y-27455010D01*
X66305457Y-27250213D01*
X67049392Y-27250213D01*
X67118857Y-27492397D01*
X67642302Y-27679144D01*
X68197368Y-27651362D01*
X68581143Y-27492397D01*
X68650608Y-27250213D01*
X67850000Y-26449605D01*
X67049392Y-27250213D01*
X66305457Y-27250213D01*
X66493629Y-27062370D01*
X66573395Y-26870273D01*
X66627603Y-27001143D01*
X66869787Y-27070608D01*
X67670395Y-26270000D01*
X66869787Y-25469392D01*
X66627603Y-25538857D01*
X66577491Y-25679318D01*
X66495010Y-25479697D01*
X66102370Y-25086371D01*
X65894488Y-25000051D01*
X66100303Y-24915010D01*
X66493629Y-24522370D01*
X66579949Y-24314488D01*
X66664990Y-24520303D01*
X67057630Y-24913629D01*
X67249727Y-24993395D01*
X67118857Y-25047603D01*
X67049392Y-25289787D01*
X67850000Y-26090395D01*
X68650608Y-25289787D01*
X68581143Y-25047603D01*
X68440682Y-24997491D01*
X68640303Y-24915010D01*
X69033629Y-24522370D01*
X69119949Y-24314488D01*
X69204990Y-24520303D01*
X69597630Y-24913629D01*
X69805512Y-24999949D01*
X69599697Y-25084990D01*
X69206371Y-25477630D01*
X69126605Y-25669727D01*
X69072397Y-25538857D01*
X68830213Y-25469392D01*
X68029605Y-26270000D01*
X68830213Y-27070608D01*
X69072397Y-27001143D01*
X69122509Y-26860682D01*
X69204990Y-27060303D01*
X69597630Y-27453629D01*
X70110900Y-27666757D01*
X70666661Y-27667242D01*
X71180303Y-27455010D01*
X71573629Y-27062370D01*
X71659949Y-26854488D01*
X71744990Y-27060303D01*
X72137630Y-27453629D01*
X72650900Y-27666757D01*
X73206661Y-27667242D01*
X73720303Y-27455010D01*
X74113629Y-27062370D01*
X74199949Y-26854488D01*
X74284990Y-27060303D01*
X74677630Y-27453629D01*
X75190900Y-27666757D01*
X75746661Y-27667242D01*
X76260303Y-27455010D01*
X76653629Y-27062370D01*
X76739949Y-26854488D01*
X76824990Y-27060303D01*
X77217630Y-27453629D01*
X77730900Y-27666757D01*
X78286661Y-27667242D01*
X78800303Y-27455010D01*
X79193629Y-27062370D01*
X79279949Y-26854488D01*
X79364990Y-27060303D01*
X79757630Y-27453629D01*
X80270900Y-27666757D01*
X80826661Y-27667242D01*
X81340303Y-27455010D01*
X81733629Y-27062370D01*
X81819949Y-26854488D01*
X81904990Y-27060303D01*
X82297630Y-27453629D01*
X82810900Y-27666757D01*
X83366661Y-27667242D01*
X83880303Y-27455010D01*
X84085457Y-27250213D01*
X84829392Y-27250213D01*
X84898857Y-27492397D01*
X85422302Y-27679144D01*
X85977368Y-27651362D01*
X86361143Y-27492397D01*
X86430608Y-27250213D01*
X85630000Y-26449605D01*
X84829392Y-27250213D01*
X84085457Y-27250213D01*
X84273629Y-27062370D01*
X84353395Y-26870273D01*
X84407603Y-27001143D01*
X84649787Y-27070608D01*
X85450395Y-26270000D01*
X85809605Y-26270000D01*
X86610213Y-27070608D01*
X86852397Y-27001143D01*
X87000433Y-26586202D01*
X89093403Y-26586202D01*
X89265390Y-26915360D01*
X90092346Y-27242026D01*
X90981363Y-27227365D01*
X91734610Y-26915360D01*
X91906597Y-26586202D01*
X90500000Y-25179605D01*
X89093403Y-26586202D01*
X87000433Y-26586202D01*
X87039144Y-26477698D01*
X87011362Y-25922632D01*
X86852397Y-25538857D01*
X86610213Y-25469392D01*
X85809605Y-26270000D01*
X85450395Y-26270000D01*
X84649787Y-25469392D01*
X84407603Y-25538857D01*
X84357491Y-25679318D01*
X84275010Y-25479697D01*
X83882370Y-25086371D01*
X83674488Y-25000051D01*
X83880303Y-24915010D01*
X84273629Y-24522370D01*
X84359949Y-24314488D01*
X84444990Y-24520303D01*
X84837630Y-24913629D01*
X85029727Y-24993395D01*
X84898857Y-25047603D01*
X84829392Y-25289787D01*
X85630000Y-26090395D01*
X86430608Y-25289787D01*
X86361143Y-25047603D01*
X86220682Y-24997491D01*
X86420303Y-24915010D01*
X86743530Y-24592346D01*
X88257974Y-24592346D01*
X88272635Y-25481363D01*
X88584640Y-26234610D01*
X88913798Y-26406597D01*
X90320395Y-25000000D01*
X90679605Y-25000000D01*
X92086202Y-26406597D01*
X92415360Y-26234610D01*
X92742026Y-25407654D01*
X92727365Y-24518637D01*
X92415360Y-23765390D01*
X92086202Y-23593403D01*
X90679605Y-25000000D01*
X90320395Y-25000000D01*
X88913798Y-23593403D01*
X88584640Y-23765390D01*
X88257974Y-24592346D01*
X86743530Y-24592346D01*
X86813629Y-24522370D01*
X87026757Y-24009100D01*
X87027242Y-23453339D01*
X87010905Y-23413798D01*
X89093403Y-23413798D01*
X90500000Y-24820395D01*
X91906597Y-23413798D01*
X91734610Y-23084640D01*
X90907654Y-22757974D01*
X90018637Y-22772635D01*
X89265390Y-23084640D01*
X89093403Y-23413798D01*
X87010905Y-23413798D01*
X86815010Y-22939697D01*
X86422370Y-22546371D01*
X85909100Y-22333243D01*
X85353339Y-22332758D01*
X84839697Y-22544990D01*
X84446371Y-22937630D01*
X84360051Y-23145512D01*
X84275010Y-22939697D01*
X83882370Y-22546371D01*
X83369100Y-22333243D01*
X82813339Y-22332758D01*
X82299697Y-22544990D01*
X81906371Y-22937630D01*
X81820051Y-23145512D01*
X81735010Y-22939697D01*
X81342370Y-22546371D01*
X80829100Y-22333243D01*
X80273339Y-22332758D01*
X79759697Y-22544990D01*
X79366371Y-22937630D01*
X79286605Y-23129727D01*
X79232397Y-22998857D01*
X78990213Y-22929392D01*
X78189605Y-23730000D01*
X78990213Y-24530608D01*
X79232397Y-24461143D01*
X79282509Y-24320682D01*
X79364990Y-24520303D01*
X79757630Y-24913629D01*
X79965512Y-24999949D01*
X79759697Y-25084990D01*
X79366371Y-25477630D01*
X79280051Y-25685512D01*
X79195010Y-25479697D01*
X78802370Y-25086371D01*
X78610273Y-25006605D01*
X78741143Y-24952397D01*
X78810608Y-24710213D01*
X78010000Y-23909605D01*
X77209392Y-24710213D01*
X77278857Y-24952397D01*
X77419318Y-25002509D01*
X77219697Y-25084990D01*
X76826371Y-25477630D01*
X76740051Y-25685512D01*
X76655010Y-25479697D01*
X76262370Y-25086371D01*
X76054488Y-25000051D01*
X76260303Y-24915010D01*
X76653629Y-24522370D01*
X76733395Y-24330273D01*
X76787603Y-24461143D01*
X77029787Y-24530608D01*
X77830395Y-23730000D01*
X77029787Y-22929392D01*
X76787603Y-22998857D01*
X76737491Y-23139318D01*
X76655010Y-22939697D01*
X76465432Y-22749787D01*
X77209392Y-22749787D01*
X78010000Y-23550395D01*
X78810608Y-22749787D01*
X78741143Y-22507603D01*
X78217698Y-22320856D01*
X77662632Y-22348638D01*
X77278857Y-22507603D01*
X77209392Y-22749787D01*
X76465432Y-22749787D01*
X76262370Y-22546371D01*
X75749100Y-22333243D01*
X75193339Y-22332758D01*
X74679697Y-22544990D01*
X74286371Y-22937630D01*
X74206605Y-23129727D01*
X74152397Y-22998857D01*
X73910213Y-22929392D01*
X73109605Y-23730000D01*
X73910213Y-24530608D01*
X74152397Y-24461143D01*
X74202509Y-24320682D01*
X74284990Y-24520303D01*
X74677630Y-24913629D01*
X74885512Y-24999949D01*
X74679697Y-25084990D01*
X74286371Y-25477630D01*
X74200051Y-25685512D01*
X74115010Y-25479697D01*
X73722370Y-25086371D01*
X73530273Y-25006605D01*
X73661143Y-24952397D01*
X73730608Y-24710213D01*
X72930000Y-23909605D01*
X72129392Y-24710213D01*
X72198857Y-24952397D01*
X72339318Y-25002509D01*
X72139697Y-25084990D01*
X71746371Y-25477630D01*
X71660051Y-25685512D01*
X71575010Y-25479697D01*
X71182370Y-25086371D01*
X70974488Y-25000051D01*
X71180303Y-24915010D01*
X71573629Y-24522370D01*
X71653395Y-24330273D01*
X71707603Y-24461143D01*
X71949787Y-24530608D01*
X72750395Y-23730000D01*
X71949787Y-22929392D01*
X71707603Y-22998857D01*
X71657491Y-23139318D01*
X71575010Y-22939697D01*
X71385432Y-22749787D01*
X72129392Y-22749787D01*
X72930000Y-23550395D01*
X73730608Y-22749787D01*
X73661143Y-22507603D01*
X73137698Y-22320856D01*
X72582632Y-22348638D01*
X72198857Y-22507603D01*
X72129392Y-22749787D01*
X71385432Y-22749787D01*
X71182370Y-22546371D01*
X70669100Y-22333243D01*
X70113339Y-22332758D01*
X69599697Y-22544990D01*
X69206371Y-22937630D01*
X69120051Y-23145512D01*
X69035010Y-22939697D01*
X68642370Y-22546371D01*
X68129100Y-22333243D01*
X67573339Y-22332758D01*
X67059697Y-22544990D01*
X66666371Y-22937630D01*
X66580051Y-23145512D01*
X66495010Y-22939697D01*
X66102370Y-22546371D01*
X65589100Y-22333243D01*
X65033339Y-22332758D01*
X64519697Y-22544990D01*
X64126371Y-22937630D01*
X64040051Y-23145512D01*
X63955010Y-22939697D01*
X63562370Y-22546371D01*
X63049100Y-22333243D01*
X62493339Y-22332758D01*
X61979697Y-22544990D01*
X61586371Y-22937630D01*
X61506605Y-23129727D01*
X61452397Y-22998857D01*
X61210213Y-22929392D01*
X60409605Y-23730000D01*
X61210213Y-24530608D01*
X61452397Y-24461143D01*
X61502509Y-24320682D01*
X61584990Y-24520303D01*
X61977630Y-24913629D01*
X62185512Y-24999949D01*
X61979697Y-25084990D01*
X61586371Y-25477630D01*
X61500051Y-25685512D01*
X61415010Y-25479697D01*
X61022370Y-25086371D01*
X60830273Y-25006605D01*
X60961143Y-24952397D01*
X61030608Y-24710213D01*
X60230000Y-23909605D01*
X59429392Y-24710213D01*
X59498857Y-24952397D01*
X59639318Y-25002509D01*
X59439697Y-25084990D01*
X59046371Y-25477630D01*
X58960051Y-25685512D01*
X58875010Y-25479697D01*
X58482370Y-25086371D01*
X58274488Y-25000051D01*
X58480303Y-24915010D01*
X58873629Y-24522370D01*
X58953395Y-24330273D01*
X59007603Y-24461143D01*
X59249787Y-24530608D01*
X60050395Y-23730000D01*
X59249787Y-22929392D01*
X59007603Y-22998857D01*
X58957491Y-23139318D01*
X58875010Y-22939697D01*
X58685432Y-22749787D01*
X59429392Y-22749787D01*
X60230000Y-23550395D01*
X61030608Y-22749787D01*
X60961143Y-22507603D01*
X60437698Y-22320856D01*
X59882632Y-22348638D01*
X59498857Y-22507603D01*
X59429392Y-22749787D01*
X58685432Y-22749787D01*
X58482370Y-22546371D01*
X57969100Y-22333243D01*
X57413339Y-22332758D01*
X56899697Y-22544990D01*
X56506371Y-22937630D01*
X56420051Y-23145512D01*
X56335010Y-22939697D01*
X55942370Y-22546371D01*
X55429100Y-22333243D01*
X54873339Y-22332758D01*
X54359697Y-22544990D01*
X53966371Y-22937630D01*
X53886605Y-23129727D01*
X53832397Y-22998857D01*
X53590213Y-22929392D01*
X52789605Y-23730000D01*
X53590213Y-24530608D01*
X53832397Y-24461143D01*
X53882509Y-24320682D01*
X53964990Y-24520303D01*
X54357630Y-24913629D01*
X54565512Y-24999949D01*
X54359697Y-25084990D01*
X53966371Y-25477630D01*
X53880051Y-25685512D01*
X53795010Y-25479697D01*
X53402370Y-25086371D01*
X53210273Y-25006605D01*
X53341143Y-24952397D01*
X53410608Y-24710213D01*
X52610000Y-23909605D01*
X51809392Y-24710213D01*
X51878857Y-24952397D01*
X52019318Y-25002509D01*
X51819697Y-25084990D01*
X51426371Y-25477630D01*
X51340051Y-25685512D01*
X51255010Y-25479697D01*
X50862370Y-25086371D01*
X50654488Y-25000051D01*
X50860303Y-24915010D01*
X51253629Y-24522370D01*
X51333395Y-24330273D01*
X51387603Y-24461143D01*
X51629787Y-24530608D01*
X52430395Y-23730000D01*
X51629787Y-22929392D01*
X51387603Y-22998857D01*
X51337491Y-23139318D01*
X51255010Y-22939697D01*
X51065432Y-22749787D01*
X51809392Y-22749787D01*
X52610000Y-23550395D01*
X53410608Y-22749787D01*
X53341143Y-22507603D01*
X52817698Y-22320856D01*
X52262632Y-22348638D01*
X51878857Y-22507603D01*
X51809392Y-22749787D01*
X51065432Y-22749787D01*
X50862370Y-22546371D01*
X50349100Y-22333243D01*
X49793339Y-22332758D01*
X49279697Y-22544990D01*
X48886371Y-22937630D01*
X48800051Y-23145512D01*
X48715010Y-22939697D01*
X48646648Y-22871216D01*
X48643108Y-21710000D01*
X90930069Y-21710000D01*
X91871023Y-21897167D01*
G36*
X48830000Y-35571440D02*
X48843310Y-35571440D01*
X49047819Y-35708088D01*
X49530000Y-35804000D01*
X50797000Y-35804000D01*
X50853910Y-35892441D01*
X50923711Y-35940134D01*
X50866559Y-35976910D01*
X50721569Y-36189110D01*
X50703309Y-36279283D01*
X50589698Y-36165673D01*
X50356309Y-36069000D01*
X49815750Y-36069000D01*
X49657000Y-36227750D01*
X49657000Y-36957000D01*
X49677000Y-36957000D01*
X49677000Y-37211000D01*
X49657000Y-37211000D01*
X49657000Y-37940250D01*
X49815750Y-38099000D01*
X50356309Y-38099000D01*
X50589698Y-38002327D01*
X50670560Y-37921465D01*
X50670560Y-37941000D01*
X50714838Y-38176317D01*
X50853910Y-38392441D01*
X51066110Y-38537431D01*
X51318000Y-38588440D01*
X52568000Y-38588440D01*
X52803317Y-38544162D01*
X53019441Y-38405090D01*
X53164431Y-38192890D01*
X53215440Y-37941000D01*
X53215440Y-37919000D01*
X53653560Y-37919000D01*
X53653560Y-37934000D01*
X53697838Y-38169317D01*
X53764390Y-38272742D01*
X51851132Y-40186000D01*
X50955368Y-40186000D01*
X48868368Y-38099000D01*
X49244250Y-38099000D01*
X49403000Y-37940250D01*
X49403000Y-37211000D01*
X49383000Y-37211000D01*
X49383000Y-36957000D01*
X49403000Y-36957000D01*
X49403000Y-36227750D01*
X49244250Y-36069000D01*
X48714000Y-36069000D01*
X48714000Y-35547949D01*
X48830000Y-35571440D01*
X48830000Y-35571440D01*
G37*
X48830000Y-35571440D02*
X48843310Y-35571440D01*
X49047819Y-35708088D01*
X49530000Y-35804000D01*
X50797000Y-35804000D01*
X50853910Y-35892441D01*
X50923711Y-35940134D01*
X50866559Y-35976910D01*
X50721569Y-36189110D01*
X50703309Y-36279283D01*
X50589698Y-36165673D01*
X50356309Y-36069000D01*
X49815750Y-36069000D01*
X49657000Y-36227750D01*
X49657000Y-36957000D01*
X49677000Y-36957000D01*
X49677000Y-37211000D01*
X49657000Y-37211000D01*
X49657000Y-37940250D01*
X49815750Y-38099000D01*
X50356309Y-38099000D01*
X50589698Y-38002327D01*
X50670560Y-37921465D01*
X50670560Y-37941000D01*
X50714838Y-38176317D01*
X50853910Y-38392441D01*
X51066110Y-38537431D01*
X51318000Y-38588440D01*
X52568000Y-38588440D01*
X52803317Y-38544162D01*
X53019441Y-38405090D01*
X53164431Y-38192890D01*
X53215440Y-37941000D01*
X53215440Y-37919000D01*
X53653560Y-37919000D01*
X53653560Y-37934000D01*
X53697838Y-38169317D01*
X53764390Y-38272742D01*
X51851132Y-40186000D01*
X50955368Y-40186000D01*
X48868368Y-38099000D01*
X49244250Y-38099000D01*
X49403000Y-37940250D01*
X49403000Y-37211000D01*
X49383000Y-37211000D01*
X49383000Y-36957000D01*
X49403000Y-36957000D01*
X49403000Y-36227750D01*
X49244250Y-36069000D01*
X48714000Y-36069000D01*
X48714000Y-35547949D01*
X48830000Y-35571440D01*
G36*
X50988000Y-28762356D02*
X50898559Y-28819910D01*
X50803010Y-28959750D01*
X50788327Y-28924302D01*
X50609699Y-28745673D01*
X50376310Y-28649000D01*
X50135750Y-28649000D01*
X49977000Y-28807750D01*
X49977000Y-29607000D01*
X49997000Y-29607000D01*
X49997000Y-29861000D01*
X49977000Y-29861000D01*
X49977000Y-29881000D01*
X49723000Y-29881000D01*
X49723000Y-29861000D01*
X49703000Y-29861000D01*
X49703000Y-29607000D01*
X49723000Y-29607000D01*
X49723000Y-28807750D01*
X49604440Y-28689190D01*
X49718630Y-28575000D01*
X50988000Y-28575000D01*
X50988000Y-28762356D01*
X50988000Y-28762356D01*
G37*
X50988000Y-28762356D02*
X50898559Y-28819910D01*
X50803010Y-28959750D01*
X50788327Y-28924302D01*
X50609699Y-28745673D01*
X50376310Y-28649000D01*
X50135750Y-28649000D01*
X49977000Y-28807750D01*
X49977000Y-29607000D01*
X49997000Y-29607000D01*
X49997000Y-29861000D01*
X49977000Y-29861000D01*
X49977000Y-29881000D01*
X49723000Y-29881000D01*
X49723000Y-29861000D01*
X49703000Y-29861000D01*
X49703000Y-29607000D01*
X49723000Y-29607000D01*
X49723000Y-28807750D01*
X49604440Y-28689190D01*
X49718630Y-28575000D01*
X50988000Y-28575000D01*
X50988000Y-28762356D01*
G36*
X53382066Y-64532434D02*
X53652959Y-64713439D01*
X53972500Y-64777000D01*
X54035541Y-64777000D01*
X53998569Y-64831110D01*
X53947560Y-65083000D01*
X53947560Y-66583000D01*
X53991838Y-66818317D01*
X54130910Y-67034441D01*
X54343110Y-67179431D01*
X54356197Y-67182081D01*
X54143559Y-67318910D01*
X53998569Y-67531110D01*
X53947560Y-67783000D01*
X53947560Y-69283000D01*
X53991838Y-69518317D01*
X54130910Y-69734441D01*
X54343110Y-69879431D01*
X54595000Y-69930440D01*
X55895000Y-69930440D01*
X56130317Y-69886162D01*
X56346441Y-69747090D01*
X56491431Y-69534890D01*
X56540010Y-69295000D01*
X56870818Y-69295000D01*
X56912838Y-69518317D01*
X57051910Y-69734441D01*
X57264110Y-69879431D01*
X57516000Y-69930440D01*
X58816000Y-69930440D01*
X59051317Y-69886162D01*
X59267441Y-69747090D01*
X59412431Y-69534890D01*
X59463440Y-69283000D01*
X59463440Y-69273790D01*
X59474332Y-69278313D01*
X59903784Y-69278687D01*
X60195560Y-69158127D01*
X60195560Y-70072000D01*
X60208000Y-70138113D01*
X60208000Y-71620975D01*
X60147698Y-71560673D01*
X59914309Y-71464000D01*
X59273750Y-71464000D01*
X59115000Y-71622750D01*
X59115000Y-74422000D01*
X59135000Y-74422000D01*
X59135000Y-74676000D01*
X59115000Y-74676000D01*
X59115000Y-74696000D01*
X58861000Y-74696000D01*
X58861000Y-74676000D01*
X57711750Y-74676000D01*
X57553000Y-74834750D01*
X57553000Y-76790000D01*
X53148177Y-76790000D01*
X53139606Y-71972690D01*
X57553000Y-71972690D01*
X57553000Y-74263250D01*
X57711750Y-74422000D01*
X58861000Y-74422000D01*
X58861000Y-71622750D01*
X58702250Y-71464000D01*
X58061691Y-71464000D01*
X57828302Y-71560673D01*
X57649673Y-71739301D01*
X57553000Y-71972690D01*
X53139606Y-71972690D01*
X53125911Y-64276279D01*
X53382066Y-64532434D01*
X53382066Y-64532434D01*
G37*
X53382066Y-64532434D02*
X53652959Y-64713439D01*
X53972500Y-64777000D01*
X54035541Y-64777000D01*
X53998569Y-64831110D01*
X53947560Y-65083000D01*
X53947560Y-66583000D01*
X53991838Y-66818317D01*
X54130910Y-67034441D01*
X54343110Y-67179431D01*
X54356197Y-67182081D01*
X54143559Y-67318910D01*
X53998569Y-67531110D01*
X53947560Y-67783000D01*
X53947560Y-69283000D01*
X53991838Y-69518317D01*
X54130910Y-69734441D01*
X54343110Y-69879431D01*
X54595000Y-69930440D01*
X55895000Y-69930440D01*
X56130317Y-69886162D01*
X56346441Y-69747090D01*
X56491431Y-69534890D01*
X56540010Y-69295000D01*
X56870818Y-69295000D01*
X56912838Y-69518317D01*
X57051910Y-69734441D01*
X57264110Y-69879431D01*
X57516000Y-69930440D01*
X58816000Y-69930440D01*
X59051317Y-69886162D01*
X59267441Y-69747090D01*
X59412431Y-69534890D01*
X59463440Y-69283000D01*
X59463440Y-69273790D01*
X59474332Y-69278313D01*
X59903784Y-69278687D01*
X60195560Y-69158127D01*
X60195560Y-70072000D01*
X60208000Y-70138113D01*
X60208000Y-71620975D01*
X60147698Y-71560673D01*
X59914309Y-71464000D01*
X59273750Y-71464000D01*
X59115000Y-71622750D01*
X59115000Y-74422000D01*
X59135000Y-74422000D01*
X59135000Y-74676000D01*
X59115000Y-74676000D01*
X59115000Y-74696000D01*
X58861000Y-74696000D01*
X58861000Y-74676000D01*
X57711750Y-74676000D01*
X57553000Y-74834750D01*
X57553000Y-76790000D01*
X53148177Y-76790000D01*
X53139606Y-71972690D01*
X57553000Y-71972690D01*
X57553000Y-74263250D01*
X57711750Y-74422000D01*
X58861000Y-74422000D01*
X58861000Y-71622750D01*
X58702250Y-71464000D01*
X58061691Y-71464000D01*
X57828302Y-71560673D01*
X57649673Y-71739301D01*
X57553000Y-71972690D01*
X53139606Y-71972690D01*
X53125911Y-64276279D01*
X53382066Y-64532434D01*
G36*
X93290000Y-42035548D02*
X93290000Y-74430069D01*
X93102833Y-75371023D01*
X92609439Y-76109439D01*
X91871023Y-76602833D01*
X90930069Y-76790000D01*
X65383000Y-76790000D01*
X65383000Y-75586202D01*
X89093403Y-75586202D01*
X89265390Y-75915360D01*
X90092346Y-76242026D01*
X90981363Y-76227365D01*
X91734610Y-75915360D01*
X91906597Y-75586202D01*
X90500000Y-74179605D01*
X89093403Y-75586202D01*
X65383000Y-75586202D01*
X65383000Y-74834750D01*
X65224250Y-74676000D01*
X64075000Y-74676000D01*
X64075000Y-74696000D01*
X63821000Y-74696000D01*
X63821000Y-74676000D01*
X63801000Y-74676000D01*
X63801000Y-74422000D01*
X63821000Y-74422000D01*
X63821000Y-71622750D01*
X64075000Y-71622750D01*
X64075000Y-74422000D01*
X65224250Y-74422000D01*
X65383000Y-74263250D01*
X65383000Y-71972690D01*
X65286327Y-71739301D01*
X65107698Y-71560673D01*
X64874309Y-71464000D01*
X64233750Y-71464000D01*
X64075000Y-71622750D01*
X63821000Y-71622750D01*
X63662250Y-71464000D01*
X63021691Y-71464000D01*
X62788302Y-71560673D01*
X62728000Y-71620975D01*
X62728000Y-70133431D01*
X62740440Y-70072000D01*
X62740440Y-69030939D01*
X63030332Y-69151313D01*
X63459784Y-69151687D01*
X63856689Y-68987689D01*
X64160622Y-68684286D01*
X64231954Y-68512500D01*
X64606778Y-68512500D01*
X64606838Y-68512817D01*
X64745910Y-68728941D01*
X64958110Y-68873931D01*
X65210000Y-68924940D01*
X65284865Y-68924940D01*
X65334210Y-68998790D01*
X66303208Y-69967787D01*
X66303210Y-69967790D01*
X66590325Y-70159633D01*
X66646516Y-70170810D01*
X66929000Y-70227001D01*
X66929005Y-70227000D01*
X70357995Y-70227000D01*
X70358000Y-70227001D01*
X70640484Y-70170810D01*
X70696675Y-70159633D01*
X70983790Y-69967790D01*
X72290000Y-68661579D01*
X72290000Y-73500000D01*
X72303642Y-73568584D01*
X72303642Y-73638513D01*
X72379762Y-74021196D01*
X72399395Y-74068593D01*
X72485776Y-74277138D01*
X72702549Y-74601561D01*
X72702550Y-74601562D01*
X72898438Y-74797451D01*
X73222862Y-75014223D01*
X73327842Y-75057707D01*
X73478804Y-75120238D01*
X73861486Y-75196358D01*
X74138513Y-75196358D01*
X74521196Y-75120238D01*
X74596160Y-75089187D01*
X74777138Y-75014224D01*
X75101561Y-74797451D01*
X75127307Y-74771705D01*
X75297451Y-74601562D01*
X75514223Y-74277138D01*
X75585299Y-74105545D01*
X75620238Y-74021196D01*
X75696358Y-73638514D01*
X75696358Y-73592346D01*
X88257974Y-73592346D01*
X88272635Y-74481363D01*
X88584640Y-75234610D01*
X88913798Y-75406597D01*
X90320395Y-74000000D01*
X90679605Y-74000000D01*
X92086202Y-75406597D01*
X92415360Y-75234610D01*
X92742026Y-74407654D01*
X92727365Y-73518637D01*
X92415360Y-72765390D01*
X92086202Y-72593403D01*
X90679605Y-74000000D01*
X90320395Y-74000000D01*
X88913798Y-72593403D01*
X88584640Y-72765390D01*
X88257974Y-73592346D01*
X75696358Y-73592346D01*
X75696358Y-73568584D01*
X75710000Y-73500000D01*
X75710000Y-72413798D01*
X89093403Y-72413798D01*
X90500000Y-73820395D01*
X91906597Y-72413798D01*
X91734610Y-72084640D01*
X90907654Y-71757974D01*
X90018637Y-71772635D01*
X89265390Y-72084640D01*
X89093403Y-72413798D01*
X75710000Y-72413798D01*
X75710000Y-58500000D01*
X75696358Y-58431416D01*
X75696358Y-58361486D01*
X75620238Y-57978804D01*
X75516473Y-57728295D01*
X75514223Y-57722862D01*
X75297451Y-57398438D01*
X75101562Y-57202550D01*
X75101561Y-57202549D01*
X74777138Y-56985776D01*
X74593368Y-56909657D01*
X74521196Y-56879762D01*
X74138513Y-56803642D01*
X74000000Y-56803642D01*
X73478804Y-56879762D01*
X73406632Y-56909657D01*
X73222862Y-56985777D01*
X73148000Y-57035798D01*
X73148000Y-54290619D01*
X74472613Y-54290619D01*
X74812155Y-55112372D01*
X75440321Y-55741636D01*
X76261481Y-56082611D01*
X77150619Y-56083387D01*
X77972372Y-55743845D01*
X78601636Y-55115679D01*
X78942611Y-54294519D01*
X78942614Y-54290619D01*
X87807613Y-54290619D01*
X88147155Y-55112372D01*
X88775321Y-55741636D01*
X89596481Y-56082611D01*
X90485619Y-56083387D01*
X91307372Y-55743845D01*
X91936636Y-55115679D01*
X92277611Y-54294519D01*
X92278387Y-53405381D01*
X91938845Y-52583628D01*
X91310679Y-51954364D01*
X90489519Y-51613389D01*
X89600381Y-51612613D01*
X88778628Y-51952155D01*
X88149364Y-52580321D01*
X87808389Y-53401481D01*
X87807613Y-54290619D01*
X78942614Y-54290619D01*
X78943387Y-53405381D01*
X78603845Y-52583628D01*
X77975679Y-51954364D01*
X77154519Y-51613389D01*
X76265381Y-51612613D01*
X75443628Y-51952155D01*
X74814364Y-52580321D01*
X74473389Y-53401481D01*
X74472613Y-54290619D01*
X73148000Y-54290619D01*
X73148000Y-42004560D01*
X93290000Y-42035548D01*
X93290000Y-42035548D01*
G37*
X93290000Y-42035548D02*
X93290000Y-74430069D01*
X93102833Y-75371023D01*
X92609439Y-76109439D01*
X91871023Y-76602833D01*
X90930069Y-76790000D01*
X65383000Y-76790000D01*
X65383000Y-75586202D01*
X89093403Y-75586202D01*
X89265390Y-75915360D01*
X90092346Y-76242026D01*
X90981363Y-76227365D01*
X91734610Y-75915360D01*
X91906597Y-75586202D01*
X90500000Y-74179605D01*
X89093403Y-75586202D01*
X65383000Y-75586202D01*
X65383000Y-74834750D01*
X65224250Y-74676000D01*
X64075000Y-74676000D01*
X64075000Y-74696000D01*
X63821000Y-74696000D01*
X63821000Y-74676000D01*
X63801000Y-74676000D01*
X63801000Y-74422000D01*
X63821000Y-74422000D01*
X63821000Y-71622750D01*
X64075000Y-71622750D01*
X64075000Y-74422000D01*
X65224250Y-74422000D01*
X65383000Y-74263250D01*
X65383000Y-71972690D01*
X65286327Y-71739301D01*
X65107698Y-71560673D01*
X64874309Y-71464000D01*
X64233750Y-71464000D01*
X64075000Y-71622750D01*
X63821000Y-71622750D01*
X63662250Y-71464000D01*
X63021691Y-71464000D01*
X62788302Y-71560673D01*
X62728000Y-71620975D01*
X62728000Y-70133431D01*
X62740440Y-70072000D01*
X62740440Y-69030939D01*
X63030332Y-69151313D01*
X63459784Y-69151687D01*
X63856689Y-68987689D01*
X64160622Y-68684286D01*
X64231954Y-68512500D01*
X64606778Y-68512500D01*
X64606838Y-68512817D01*
X64745910Y-68728941D01*
X64958110Y-68873931D01*
X65210000Y-68924940D01*
X65284865Y-68924940D01*
X65334210Y-68998790D01*
X66303208Y-69967787D01*
X66303210Y-69967790D01*
X66590325Y-70159633D01*
X66646516Y-70170810D01*
X66929000Y-70227001D01*
X66929005Y-70227000D01*
X70357995Y-70227000D01*
X70358000Y-70227001D01*
X70640484Y-70170810D01*
X70696675Y-70159633D01*
X70983790Y-69967790D01*
X72290000Y-68661579D01*
X72290000Y-73500000D01*
X72303642Y-73568584D01*
X72303642Y-73638513D01*
X72379762Y-74021196D01*
X72399395Y-74068593D01*
X72485776Y-74277138D01*
X72702549Y-74601561D01*
X72702550Y-74601562D01*
X72898438Y-74797451D01*
X73222862Y-75014223D01*
X73327842Y-75057707D01*
X73478804Y-75120238D01*
X73861486Y-75196358D01*
X74138513Y-75196358D01*
X74521196Y-75120238D01*
X74596160Y-75089187D01*
X74777138Y-75014224D01*
X75101561Y-74797451D01*
X75127307Y-74771705D01*
X75297451Y-74601562D01*
X75514223Y-74277138D01*
X75585299Y-74105545D01*
X75620238Y-74021196D01*
X75696358Y-73638514D01*
X75696358Y-73592346D01*
X88257974Y-73592346D01*
X88272635Y-74481363D01*
X88584640Y-75234610D01*
X88913798Y-75406597D01*
X90320395Y-74000000D01*
X90679605Y-74000000D01*
X92086202Y-75406597D01*
X92415360Y-75234610D01*
X92742026Y-74407654D01*
X92727365Y-73518637D01*
X92415360Y-72765390D01*
X92086202Y-72593403D01*
X90679605Y-74000000D01*
X90320395Y-74000000D01*
X88913798Y-72593403D01*
X88584640Y-72765390D01*
X88257974Y-73592346D01*
X75696358Y-73592346D01*
X75696358Y-73568584D01*
X75710000Y-73500000D01*
X75710000Y-72413798D01*
X89093403Y-72413798D01*
X90500000Y-73820395D01*
X91906597Y-72413798D01*
X91734610Y-72084640D01*
X90907654Y-71757974D01*
X90018637Y-71772635D01*
X89265390Y-72084640D01*
X89093403Y-72413798D01*
X75710000Y-72413798D01*
X75710000Y-58500000D01*
X75696358Y-58431416D01*
X75696358Y-58361486D01*
X75620238Y-57978804D01*
X75516473Y-57728295D01*
X75514223Y-57722862D01*
X75297451Y-57398438D01*
X75101562Y-57202550D01*
X75101561Y-57202549D01*
X74777138Y-56985776D01*
X74593368Y-56909657D01*
X74521196Y-56879762D01*
X74138513Y-56803642D01*
X74000000Y-56803642D01*
X73478804Y-56879762D01*
X73406632Y-56909657D01*
X73222862Y-56985777D01*
X73148000Y-57035798D01*
X73148000Y-54290619D01*
X74472613Y-54290619D01*
X74812155Y-55112372D01*
X75440321Y-55741636D01*
X76261481Y-56082611D01*
X77150619Y-56083387D01*
X77972372Y-55743845D01*
X78601636Y-55115679D01*
X78942611Y-54294519D01*
X78942614Y-54290619D01*
X87807613Y-54290619D01*
X88147155Y-55112372D01*
X88775321Y-55741636D01*
X89596481Y-56082611D01*
X90485619Y-56083387D01*
X91307372Y-55743845D01*
X91936636Y-55115679D01*
X92277611Y-54294519D01*
X92278387Y-53405381D01*
X91938845Y-52583628D01*
X91310679Y-51954364D01*
X90489519Y-51613389D01*
X89600381Y-51612613D01*
X88778628Y-51952155D01*
X88149364Y-52580321D01*
X87808389Y-53401481D01*
X87807613Y-54290619D01*
X78942614Y-54290619D01*
X78943387Y-53405381D01*
X78603845Y-52583628D01*
X77975679Y-51954364D01*
X77154519Y-51613389D01*
X76265381Y-51612613D01*
X75443628Y-51952155D01*
X74814364Y-52580321D01*
X74473389Y-53401481D01*
X74472613Y-54290619D01*
X73148000Y-54290619D01*
X73148000Y-42004560D01*
X93290000Y-42035548D01*
G36*
X71378000Y-67070421D02*
X70028624Y-68419796D01*
X70057440Y-68277500D01*
X70057440Y-66977500D01*
X70013162Y-66742183D01*
X69983500Y-66696087D01*
X69983500Y-65988886D01*
X70069931Y-65862390D01*
X70120940Y-65610500D01*
X70120940Y-64310500D01*
X70076662Y-64075183D01*
X69937590Y-63859059D01*
X69725390Y-63714069D01*
X69473500Y-63663060D01*
X69153308Y-63663060D01*
X71329434Y-61486934D01*
X71353066Y-61451566D01*
X71378000Y-61414250D01*
X71378000Y-67070421D01*
X71378000Y-67070421D01*
G37*
X71378000Y-67070421D02*
X70028624Y-68419796D01*
X70057440Y-68277500D01*
X70057440Y-66977500D01*
X70013162Y-66742183D01*
X69983500Y-66696087D01*
X69983500Y-65988886D01*
X70069931Y-65862390D01*
X70120940Y-65610500D01*
X70120940Y-64310500D01*
X70076662Y-64075183D01*
X69937590Y-63859059D01*
X69725390Y-63714069D01*
X69473500Y-63663060D01*
X69153308Y-63663060D01*
X71329434Y-61486934D01*
X71353066Y-61451566D01*
X71378000Y-61414250D01*
X71378000Y-67070421D01*
G36*
X64626060Y-64778671D02*
X64626060Y-65610500D01*
X64670338Y-65845817D01*
X64809410Y-66061941D01*
X65021610Y-66206931D01*
X65273500Y-66257940D01*
X66773500Y-66257940D01*
X67008817Y-66213662D01*
X67224941Y-66074590D01*
X67369931Y-65862390D01*
X67372581Y-65849303D01*
X67463500Y-65990595D01*
X67463500Y-66510231D01*
X67458559Y-66513410D01*
X67313569Y-66725610D01*
X67310919Y-66738697D01*
X67174090Y-66526059D01*
X66961890Y-66381069D01*
X66710000Y-66330060D01*
X65210000Y-66330060D01*
X64974683Y-66374338D01*
X64758559Y-66513410D01*
X64613569Y-66725610D01*
X64610149Y-66742500D01*
X63690505Y-66742500D01*
X63690500Y-66742499D01*
X63408016Y-66798690D01*
X63351825Y-66809867D01*
X63078713Y-66992353D01*
X63032216Y-66992313D01*
X62740440Y-67112873D01*
X62740440Y-66072000D01*
X62696162Y-65836683D01*
X62557090Y-65620559D01*
X62344890Y-65475569D01*
X62303000Y-65467086D01*
X62303000Y-64964440D01*
X62318000Y-64964440D01*
X62553317Y-64920162D01*
X62769441Y-64781090D01*
X62772236Y-64777000D01*
X63184895Y-64777000D01*
X64626060Y-64778671D01*
X64626060Y-64778671D01*
G37*
X64626060Y-64778671D02*
X64626060Y-65610500D01*
X64670338Y-65845817D01*
X64809410Y-66061941D01*
X65021610Y-66206931D01*
X65273500Y-66257940D01*
X66773500Y-66257940D01*
X67008817Y-66213662D01*
X67224941Y-66074590D01*
X67369931Y-65862390D01*
X67372581Y-65849303D01*
X67463500Y-65990595D01*
X67463500Y-66510231D01*
X67458559Y-66513410D01*
X67313569Y-66725610D01*
X67310919Y-66738697D01*
X67174090Y-66526059D01*
X66961890Y-66381069D01*
X66710000Y-66330060D01*
X65210000Y-66330060D01*
X64974683Y-66374338D01*
X64758559Y-66513410D01*
X64613569Y-66725610D01*
X64610149Y-66742500D01*
X63690505Y-66742500D01*
X63690500Y-66742499D01*
X63408016Y-66798690D01*
X63351825Y-66809867D01*
X63078713Y-66992353D01*
X63032216Y-66992313D01*
X62740440Y-67112873D01*
X62740440Y-66072000D01*
X62696162Y-65836683D01*
X62557090Y-65620559D01*
X62344890Y-65475569D01*
X62303000Y-65467086D01*
X62303000Y-64964440D01*
X62318000Y-64964440D01*
X62553317Y-64920162D01*
X62769441Y-64781090D01*
X62772236Y-64777000D01*
X63184895Y-64777000D01*
X64626060Y-64778671D01*
G36*
X60366110Y-64913431D02*
X60618000Y-64964440D01*
X60633000Y-64964440D01*
X60633000Y-65464074D01*
X60607683Y-65468838D01*
X60391559Y-65607910D01*
X60246569Y-65820110D01*
X60198258Y-66058679D01*
X59463440Y-65323860D01*
X59463440Y-65083000D01*
X59419162Y-64847683D01*
X59373679Y-64777000D01*
X60166437Y-64777000D01*
X60366110Y-64913431D01*
X60366110Y-64913431D01*
G37*
X60366110Y-64913431D02*
X60618000Y-64964440D01*
X60633000Y-64964440D01*
X60633000Y-65464074D01*
X60607683Y-65468838D01*
X60391559Y-65607910D01*
X60246569Y-65820110D01*
X60198258Y-66058679D01*
X59463440Y-65323860D01*
X59463440Y-65083000D01*
X59419162Y-64847683D01*
X59373679Y-64777000D01*
X60166437Y-64777000D01*
X60366110Y-64913431D01*
G36*
X65573838Y-62941317D02*
X65682061Y-63109500D01*
X65341605Y-63109500D01*
X63185968Y-63107001D01*
X63185485Y-63107096D01*
X63185000Y-63107000D01*
X62769563Y-63107000D01*
X62599231Y-62990617D01*
X62769441Y-62881090D01*
X62772236Y-62877000D01*
X65561736Y-62877000D01*
X65573838Y-62941317D01*
X65573838Y-62941317D01*
G37*
X65573838Y-62941317D02*
X65682061Y-63109500D01*
X65341605Y-63109500D01*
X63185968Y-63107001D01*
X63185485Y-63107096D01*
X63185000Y-63107000D01*
X62769563Y-63107000D01*
X62599231Y-62990617D01*
X62769441Y-62881090D01*
X62772236Y-62877000D01*
X65561736Y-62877000D01*
X65573838Y-62941317D01*
G36*
X55807000Y-41977882D02*
X55807000Y-43112074D01*
X55781683Y-43116838D01*
X55565559Y-43255910D01*
X55420569Y-43468110D01*
X55369560Y-43720000D01*
X55369560Y-45220000D01*
X55413838Y-45455317D01*
X55552910Y-45671441D01*
X55622711Y-45719134D01*
X55565559Y-45755910D01*
X55420569Y-45968110D01*
X55369560Y-46220000D01*
X55369560Y-47720000D01*
X55413838Y-47955317D01*
X55552910Y-48171441D01*
X55556000Y-48173552D01*
X55556000Y-48247614D01*
X55469569Y-48374110D01*
X55418560Y-48626000D01*
X55418560Y-49266198D01*
X55381999Y-49450000D01*
X55382000Y-49450005D01*
X55382000Y-50770569D01*
X55369560Y-50832000D01*
X55369560Y-52332000D01*
X55413838Y-52567317D01*
X55552910Y-52783441D01*
X55622711Y-52831134D01*
X55565559Y-52867910D01*
X55420569Y-53080110D01*
X55369560Y-53332000D01*
X55369560Y-54832000D01*
X55413838Y-55067317D01*
X55552910Y-55283441D01*
X55556000Y-55285552D01*
X55556000Y-55613614D01*
X55469569Y-55740110D01*
X55418560Y-55992000D01*
X55418560Y-57292000D01*
X55462838Y-57527317D01*
X55601910Y-57743441D01*
X55636000Y-57766734D01*
X55636000Y-58644569D01*
X55623560Y-58706000D01*
X55623560Y-60206000D01*
X55667838Y-60441317D01*
X55806910Y-60657441D01*
X55876711Y-60705134D01*
X55819559Y-60741910D01*
X55674569Y-60954110D01*
X55623560Y-61206000D01*
X55623560Y-62706000D01*
X55667838Y-62941317D01*
X55774452Y-63107000D01*
X54318368Y-63107000D01*
X53121701Y-61910333D01*
X53086227Y-41973696D01*
X55807000Y-41977882D01*
X55807000Y-41977882D01*
G37*
X55807000Y-41977882D02*
X55807000Y-43112074D01*
X55781683Y-43116838D01*
X55565559Y-43255910D01*
X55420569Y-43468110D01*
X55369560Y-43720000D01*
X55369560Y-45220000D01*
X55413838Y-45455317D01*
X55552910Y-45671441D01*
X55622711Y-45719134D01*
X55565559Y-45755910D01*
X55420569Y-45968110D01*
X55369560Y-46220000D01*
X55369560Y-47720000D01*
X55413838Y-47955317D01*
X55552910Y-48171441D01*
X55556000Y-48173552D01*
X55556000Y-48247614D01*
X55469569Y-48374110D01*
X55418560Y-48626000D01*
X55418560Y-49266198D01*
X55381999Y-49450000D01*
X55382000Y-49450005D01*
X55382000Y-50770569D01*
X55369560Y-50832000D01*
X55369560Y-52332000D01*
X55413838Y-52567317D01*
X55552910Y-52783441D01*
X55622711Y-52831134D01*
X55565559Y-52867910D01*
X55420569Y-53080110D01*
X55369560Y-53332000D01*
X55369560Y-54832000D01*
X55413838Y-55067317D01*
X55552910Y-55283441D01*
X55556000Y-55285552D01*
X55556000Y-55613614D01*
X55469569Y-55740110D01*
X55418560Y-55992000D01*
X55418560Y-57292000D01*
X55462838Y-57527317D01*
X55601910Y-57743441D01*
X55636000Y-57766734D01*
X55636000Y-58644569D01*
X55623560Y-58706000D01*
X55623560Y-60206000D01*
X55667838Y-60441317D01*
X55806910Y-60657441D01*
X55876711Y-60705134D01*
X55819559Y-60741910D01*
X55674569Y-60954110D01*
X55623560Y-61206000D01*
X55623560Y-62706000D01*
X55667838Y-62941317D01*
X55774452Y-63107000D01*
X54318368Y-63107000D01*
X53121701Y-61910333D01*
X53086227Y-41973696D01*
X55807000Y-41977882D01*
G36*
X60336769Y-62993383D02*
X60166559Y-63102910D01*
X60163764Y-63107000D01*
X58015549Y-63107000D01*
X58117431Y-62957890D01*
X58133812Y-62877000D01*
X60166437Y-62877000D01*
X60336769Y-62993383D01*
X60336769Y-62993383D01*
G37*
X60336769Y-62993383D02*
X60166559Y-63102910D01*
X60163764Y-63107000D01*
X58015549Y-63107000D01*
X58117431Y-62957890D01*
X58133812Y-62877000D01*
X60166437Y-62877000D01*
X60336769Y-62993383D01*
G36*
X69904000Y-41999570D02*
X69904000Y-60550632D01*
X68074440Y-62380192D01*
X68074440Y-61206000D01*
X68030162Y-60970683D01*
X67891090Y-60754559D01*
X67821289Y-60706866D01*
X67878441Y-60670090D01*
X68023431Y-60457890D01*
X68074440Y-60206000D01*
X68074440Y-58706000D01*
X68062000Y-58639887D01*
X68062000Y-57656884D01*
X68099440Y-57472000D01*
X68099440Y-55972000D01*
X68055162Y-55736683D01*
X67916090Y-55520559D01*
X67703890Y-55375569D01*
X67690803Y-55372919D01*
X67903441Y-55236090D01*
X68048431Y-55023890D01*
X68099440Y-54772000D01*
X68099440Y-53272000D01*
X68062000Y-53073024D01*
X68062000Y-52536115D01*
X68128431Y-52438890D01*
X68179440Y-52187000D01*
X68179440Y-50937000D01*
X68135162Y-50701683D01*
X68042000Y-50556905D01*
X68042000Y-49859302D01*
X68048431Y-49849890D01*
X68099440Y-49598000D01*
X68099440Y-48098000D01*
X68055162Y-47862683D01*
X67916090Y-47646559D01*
X67703890Y-47501569D01*
X67690803Y-47498919D01*
X67903441Y-47362090D01*
X68048431Y-47149890D01*
X68099440Y-46898000D01*
X68099440Y-45398000D01*
X68062000Y-45199024D01*
X68062000Y-44916115D01*
X68128431Y-44818890D01*
X68179440Y-44567000D01*
X68179440Y-43317000D01*
X68135162Y-43081683D01*
X68042000Y-42936905D01*
X68042000Y-42493302D01*
X68048431Y-42483890D01*
X68099440Y-42232000D01*
X68099440Y-41996793D01*
X69904000Y-41999570D01*
X69904000Y-41999570D01*
G37*
X69904000Y-41999570D02*
X69904000Y-60550632D01*
X68074440Y-62380192D01*
X68074440Y-61206000D01*
X68030162Y-60970683D01*
X67891090Y-60754559D01*
X67821289Y-60706866D01*
X67878441Y-60670090D01*
X68023431Y-60457890D01*
X68074440Y-60206000D01*
X68074440Y-58706000D01*
X68062000Y-58639887D01*
X68062000Y-57656884D01*
X68099440Y-57472000D01*
X68099440Y-55972000D01*
X68055162Y-55736683D01*
X67916090Y-55520559D01*
X67703890Y-55375569D01*
X67690803Y-55372919D01*
X67903441Y-55236090D01*
X68048431Y-55023890D01*
X68099440Y-54772000D01*
X68099440Y-53272000D01*
X68062000Y-53073024D01*
X68062000Y-52536115D01*
X68128431Y-52438890D01*
X68179440Y-52187000D01*
X68179440Y-50937000D01*
X68135162Y-50701683D01*
X68042000Y-50556905D01*
X68042000Y-49859302D01*
X68048431Y-49849890D01*
X68099440Y-49598000D01*
X68099440Y-48098000D01*
X68055162Y-47862683D01*
X67916090Y-47646559D01*
X67703890Y-47501569D01*
X67690803Y-47498919D01*
X67903441Y-47362090D01*
X68048431Y-47149890D01*
X68099440Y-46898000D01*
X68099440Y-45398000D01*
X68062000Y-45199024D01*
X68062000Y-44916115D01*
X68128431Y-44818890D01*
X68179440Y-44567000D01*
X68179440Y-43317000D01*
X68135162Y-43081683D01*
X68042000Y-42936905D01*
X68042000Y-42493302D01*
X68048431Y-42483890D01*
X68099440Y-42232000D01*
X68099440Y-41996793D01*
X69904000Y-41999570D01*
G36*
X65504560Y-41992801D02*
X65504560Y-42232000D01*
X65522000Y-42324685D01*
X65522000Y-42908974D01*
X65391698Y-42778673D01*
X65158309Y-42682000D01*
X64567750Y-42682000D01*
X64409000Y-42840750D01*
X64409000Y-43815000D01*
X64429000Y-43815000D01*
X64429000Y-44069000D01*
X64409000Y-44069000D01*
X64409000Y-45043250D01*
X64567750Y-45202000D01*
X65158309Y-45202000D01*
X65391698Y-45105327D01*
X65532936Y-44964090D01*
X65542000Y-44978176D01*
X65542000Y-45213116D01*
X65504560Y-45398000D01*
X65504560Y-46898000D01*
X65548838Y-47133317D01*
X65687910Y-47349441D01*
X65900110Y-47494431D01*
X65913197Y-47497081D01*
X65700559Y-47633910D01*
X65555569Y-47846110D01*
X65504560Y-48098000D01*
X65504560Y-49598000D01*
X65522000Y-49690685D01*
X65522000Y-50528974D01*
X65391698Y-50398673D01*
X65158309Y-50302000D01*
X64567750Y-50302000D01*
X64409000Y-50460750D01*
X64409000Y-51435000D01*
X64429000Y-51435000D01*
X64429000Y-51689000D01*
X64409000Y-51689000D01*
X64409000Y-52663250D01*
X64567750Y-52822000D01*
X65158309Y-52822000D01*
X65391698Y-52725327D01*
X65532936Y-52584090D01*
X65542000Y-52598176D01*
X65542000Y-53087116D01*
X65504560Y-53272000D01*
X65504560Y-54772000D01*
X65548838Y-55007317D01*
X65687910Y-55223441D01*
X65900110Y-55368431D01*
X65913197Y-55371081D01*
X65700559Y-55507910D01*
X65555569Y-55720110D01*
X65504560Y-55972000D01*
X65504560Y-57472000D01*
X65542000Y-57670976D01*
X65542000Y-58644569D01*
X65529560Y-58706000D01*
X65529560Y-60206000D01*
X65573838Y-60441317D01*
X65712910Y-60657441D01*
X65782711Y-60705134D01*
X65725559Y-60741910D01*
X65580569Y-60954110D01*
X65529560Y-61206000D01*
X65529560Y-61207000D01*
X62769563Y-61207000D01*
X62569890Y-61070569D01*
X62318000Y-61019560D01*
X61918000Y-61019560D01*
X61812295Y-61039450D01*
X61794310Y-61032000D01*
X61726750Y-61032000D01*
X61697746Y-61061004D01*
X61682683Y-61063838D01*
X61466559Y-61202910D01*
X61465610Y-61204299D01*
X61269890Y-61070569D01*
X61242215Y-61064965D01*
X61209250Y-61032000D01*
X61141690Y-61032000D01*
X61121247Y-61040468D01*
X61018000Y-61019560D01*
X60618000Y-61019560D01*
X60382683Y-61063838D01*
X60166559Y-61202910D01*
X60163764Y-61207000D01*
X58168440Y-61207000D01*
X58168440Y-61206000D01*
X58124162Y-60970683D01*
X57985090Y-60754559D01*
X57915289Y-60706866D01*
X57972441Y-60670090D01*
X58117431Y-60457890D01*
X58168440Y-60206000D01*
X58168440Y-58706000D01*
X58156000Y-58639887D01*
X58156000Y-57553302D01*
X58162431Y-57543890D01*
X58169191Y-57510510D01*
X58227673Y-57651699D01*
X58406302Y-57830327D01*
X58639691Y-57927000D01*
X59230250Y-57927000D01*
X59389000Y-57768250D01*
X59389000Y-56769000D01*
X59643000Y-56769000D01*
X59643000Y-57768250D01*
X59801750Y-57927000D01*
X60392309Y-57927000D01*
X60625698Y-57830327D01*
X60804327Y-57651699D01*
X60901000Y-57418310D01*
X60901000Y-56927750D01*
X60742250Y-56769000D01*
X59643000Y-56769000D01*
X59389000Y-56769000D01*
X59369000Y-56769000D01*
X59369000Y-56515000D01*
X59389000Y-56515000D01*
X59389000Y-55515750D01*
X59643000Y-55515750D01*
X59643000Y-56515000D01*
X60742250Y-56515000D01*
X60901000Y-56356250D01*
X60901000Y-55865690D01*
X60804327Y-55632301D01*
X60625698Y-55453673D01*
X60392309Y-55357000D01*
X59801750Y-55357000D01*
X59643000Y-55515750D01*
X59389000Y-55515750D01*
X59230250Y-55357000D01*
X58639691Y-55357000D01*
X58406302Y-55453673D01*
X58227673Y-55632301D01*
X58171346Y-55768287D01*
X58169162Y-55756683D01*
X58076000Y-55611905D01*
X58076000Y-54256005D01*
X58076001Y-54256000D01*
X57980088Y-53773819D01*
X57914440Y-53675570D01*
X57914440Y-53332000D01*
X57870162Y-53096683D01*
X57731090Y-52880559D01*
X57661289Y-52832866D01*
X57718441Y-52796090D01*
X57863431Y-52583890D01*
X57914440Y-52332000D01*
X57914440Y-51847750D01*
X62897000Y-51847750D01*
X62897000Y-52313310D01*
X62993673Y-52546699D01*
X63172302Y-52725327D01*
X63405691Y-52822000D01*
X63996250Y-52822000D01*
X64155000Y-52663250D01*
X64155000Y-51689000D01*
X63055750Y-51689000D01*
X62897000Y-51847750D01*
X57914440Y-51847750D01*
X57914440Y-50832000D01*
X57910431Y-50810690D01*
X62897000Y-50810690D01*
X62897000Y-51276250D01*
X63055750Y-51435000D01*
X64155000Y-51435000D01*
X64155000Y-50460750D01*
X63996250Y-50302000D01*
X63405691Y-50302000D01*
X63172302Y-50398673D01*
X62993673Y-50577301D01*
X62897000Y-50810690D01*
X57910431Y-50810690D01*
X57902000Y-50765887D01*
X57902000Y-50464374D01*
X58017441Y-50390090D01*
X58162431Y-50177890D01*
X58169191Y-50144510D01*
X58227673Y-50285699D01*
X58406302Y-50464327D01*
X58639691Y-50561000D01*
X59230250Y-50561000D01*
X59389000Y-50402250D01*
X59389000Y-49403000D01*
X59643000Y-49403000D01*
X59643000Y-50402250D01*
X59801750Y-50561000D01*
X60392309Y-50561000D01*
X60625698Y-50464327D01*
X60804327Y-50285699D01*
X60901000Y-50052310D01*
X60901000Y-49561750D01*
X60742250Y-49403000D01*
X59643000Y-49403000D01*
X59389000Y-49403000D01*
X59369000Y-49403000D01*
X59369000Y-49149000D01*
X59389000Y-49149000D01*
X59389000Y-48149750D01*
X59643000Y-48149750D01*
X59643000Y-49149000D01*
X60742250Y-49149000D01*
X60901000Y-48990250D01*
X60901000Y-48499690D01*
X60804327Y-48266301D01*
X60625698Y-48087673D01*
X60392309Y-47991000D01*
X59801750Y-47991000D01*
X59643000Y-48149750D01*
X59389000Y-48149750D01*
X59230250Y-47991000D01*
X58639691Y-47991000D01*
X58406302Y-48087673D01*
X58227673Y-48266301D01*
X58171346Y-48402287D01*
X58169162Y-48390683D01*
X58076000Y-48245905D01*
X58076000Y-47144005D01*
X58076001Y-47144000D01*
X57980088Y-46661819D01*
X57914440Y-46563570D01*
X57914440Y-46220000D01*
X57870162Y-45984683D01*
X57731090Y-45768559D01*
X57661289Y-45720866D01*
X57718441Y-45684090D01*
X57863431Y-45471890D01*
X57914440Y-45220000D01*
X57914440Y-44227750D01*
X62897000Y-44227750D01*
X62897000Y-44693310D01*
X62993673Y-44926699D01*
X63172302Y-45105327D01*
X63405691Y-45202000D01*
X63996250Y-45202000D01*
X64155000Y-45043250D01*
X64155000Y-44069000D01*
X63055750Y-44069000D01*
X62897000Y-44227750D01*
X57914440Y-44227750D01*
X57914440Y-43720000D01*
X57870162Y-43484683D01*
X57731090Y-43268559D01*
X57617125Y-43190690D01*
X62897000Y-43190690D01*
X62897000Y-43656250D01*
X63055750Y-43815000D01*
X64155000Y-43815000D01*
X64155000Y-42840750D01*
X63996250Y-42682000D01*
X63405691Y-42682000D01*
X63172302Y-42778673D01*
X62993673Y-42957301D01*
X62897000Y-43190690D01*
X57617125Y-43190690D01*
X57518890Y-43123569D01*
X57477000Y-43115086D01*
X57477000Y-41980451D01*
X65504560Y-41992801D01*
X65504560Y-41992801D01*
G37*
X65504560Y-41992801D02*
X65504560Y-42232000D01*
X65522000Y-42324685D01*
X65522000Y-42908974D01*
X65391698Y-42778673D01*
X65158309Y-42682000D01*
X64567750Y-42682000D01*
X64409000Y-42840750D01*
X64409000Y-43815000D01*
X64429000Y-43815000D01*
X64429000Y-44069000D01*
X64409000Y-44069000D01*
X64409000Y-45043250D01*
X64567750Y-45202000D01*
X65158309Y-45202000D01*
X65391698Y-45105327D01*
X65532936Y-44964090D01*
X65542000Y-44978176D01*
X65542000Y-45213116D01*
X65504560Y-45398000D01*
X65504560Y-46898000D01*
X65548838Y-47133317D01*
X65687910Y-47349441D01*
X65900110Y-47494431D01*
X65913197Y-47497081D01*
X65700559Y-47633910D01*
X65555569Y-47846110D01*
X65504560Y-48098000D01*
X65504560Y-49598000D01*
X65522000Y-49690685D01*
X65522000Y-50528974D01*
X65391698Y-50398673D01*
X65158309Y-50302000D01*
X64567750Y-50302000D01*
X64409000Y-50460750D01*
X64409000Y-51435000D01*
X64429000Y-51435000D01*
X64429000Y-51689000D01*
X64409000Y-51689000D01*
X64409000Y-52663250D01*
X64567750Y-52822000D01*
X65158309Y-52822000D01*
X65391698Y-52725327D01*
X65532936Y-52584090D01*
X65542000Y-52598176D01*
X65542000Y-53087116D01*
X65504560Y-53272000D01*
X65504560Y-54772000D01*
X65548838Y-55007317D01*
X65687910Y-55223441D01*
X65900110Y-55368431D01*
X65913197Y-55371081D01*
X65700559Y-55507910D01*
X65555569Y-55720110D01*
X65504560Y-55972000D01*
X65504560Y-57472000D01*
X65542000Y-57670976D01*
X65542000Y-58644569D01*
X65529560Y-58706000D01*
X65529560Y-60206000D01*
X65573838Y-60441317D01*
X65712910Y-60657441D01*
X65782711Y-60705134D01*
X65725559Y-60741910D01*
X65580569Y-60954110D01*
X65529560Y-61206000D01*
X65529560Y-61207000D01*
X62769563Y-61207000D01*
X62569890Y-61070569D01*
X62318000Y-61019560D01*
X61918000Y-61019560D01*
X61812295Y-61039450D01*
X61794310Y-61032000D01*
X61726750Y-61032000D01*
X61697746Y-61061004D01*
X61682683Y-61063838D01*
X61466559Y-61202910D01*
X61465610Y-61204299D01*
X61269890Y-61070569D01*
X61242215Y-61064965D01*
X61209250Y-61032000D01*
X61141690Y-61032000D01*
X61121247Y-61040468D01*
X61018000Y-61019560D01*
X60618000Y-61019560D01*
X60382683Y-61063838D01*
X60166559Y-61202910D01*
X60163764Y-61207000D01*
X58168440Y-61207000D01*
X58168440Y-61206000D01*
X58124162Y-60970683D01*
X57985090Y-60754559D01*
X57915289Y-60706866D01*
X57972441Y-60670090D01*
X58117431Y-60457890D01*
X58168440Y-60206000D01*
X58168440Y-58706000D01*
X58156000Y-58639887D01*
X58156000Y-57553302D01*
X58162431Y-57543890D01*
X58169191Y-57510510D01*
X58227673Y-57651699D01*
X58406302Y-57830327D01*
X58639691Y-57927000D01*
X59230250Y-57927000D01*
X59389000Y-57768250D01*
X59389000Y-56769000D01*
X59643000Y-56769000D01*
X59643000Y-57768250D01*
X59801750Y-57927000D01*
X60392309Y-57927000D01*
X60625698Y-57830327D01*
X60804327Y-57651699D01*
X60901000Y-57418310D01*
X60901000Y-56927750D01*
X60742250Y-56769000D01*
X59643000Y-56769000D01*
X59389000Y-56769000D01*
X59369000Y-56769000D01*
X59369000Y-56515000D01*
X59389000Y-56515000D01*
X59389000Y-55515750D01*
X59643000Y-55515750D01*
X59643000Y-56515000D01*
X60742250Y-56515000D01*
X60901000Y-56356250D01*
X60901000Y-55865690D01*
X60804327Y-55632301D01*
X60625698Y-55453673D01*
X60392309Y-55357000D01*
X59801750Y-55357000D01*
X59643000Y-55515750D01*
X59389000Y-55515750D01*
X59230250Y-55357000D01*
X58639691Y-55357000D01*
X58406302Y-55453673D01*
X58227673Y-55632301D01*
X58171346Y-55768287D01*
X58169162Y-55756683D01*
X58076000Y-55611905D01*
X58076000Y-54256005D01*
X58076001Y-54256000D01*
X57980088Y-53773819D01*
X57914440Y-53675570D01*
X57914440Y-53332000D01*
X57870162Y-53096683D01*
X57731090Y-52880559D01*
X57661289Y-52832866D01*
X57718441Y-52796090D01*
X57863431Y-52583890D01*
X57914440Y-52332000D01*
X57914440Y-51847750D01*
X62897000Y-51847750D01*
X62897000Y-52313310D01*
X62993673Y-52546699D01*
X63172302Y-52725327D01*
X63405691Y-52822000D01*
X63996250Y-52822000D01*
X64155000Y-52663250D01*
X64155000Y-51689000D01*
X63055750Y-51689000D01*
X62897000Y-51847750D01*
X57914440Y-51847750D01*
X57914440Y-50832000D01*
X57910431Y-50810690D01*
X62897000Y-50810690D01*
X62897000Y-51276250D01*
X63055750Y-51435000D01*
X64155000Y-51435000D01*
X64155000Y-50460750D01*
X63996250Y-50302000D01*
X63405691Y-50302000D01*
X63172302Y-50398673D01*
X62993673Y-50577301D01*
X62897000Y-50810690D01*
X57910431Y-50810690D01*
X57902000Y-50765887D01*
X57902000Y-50464374D01*
X58017441Y-50390090D01*
X58162431Y-50177890D01*
X58169191Y-50144510D01*
X58227673Y-50285699D01*
X58406302Y-50464327D01*
X58639691Y-50561000D01*
X59230250Y-50561000D01*
X59389000Y-50402250D01*
X59389000Y-49403000D01*
X59643000Y-49403000D01*
X59643000Y-50402250D01*
X59801750Y-50561000D01*
X60392309Y-50561000D01*
X60625698Y-50464327D01*
X60804327Y-50285699D01*
X60901000Y-50052310D01*
X60901000Y-49561750D01*
X60742250Y-49403000D01*
X59643000Y-49403000D01*
X59389000Y-49403000D01*
X59369000Y-49403000D01*
X59369000Y-49149000D01*
X59389000Y-49149000D01*
X59389000Y-48149750D01*
X59643000Y-48149750D01*
X59643000Y-49149000D01*
X60742250Y-49149000D01*
X60901000Y-48990250D01*
X60901000Y-48499690D01*
X60804327Y-48266301D01*
X60625698Y-48087673D01*
X60392309Y-47991000D01*
X59801750Y-47991000D01*
X59643000Y-48149750D01*
X59389000Y-48149750D01*
X59230250Y-47991000D01*
X58639691Y-47991000D01*
X58406302Y-48087673D01*
X58227673Y-48266301D01*
X58171346Y-48402287D01*
X58169162Y-48390683D01*
X58076000Y-48245905D01*
X58076000Y-47144005D01*
X58076001Y-47144000D01*
X57980088Y-46661819D01*
X57914440Y-46563570D01*
X57914440Y-46220000D01*
X57870162Y-45984683D01*
X57731090Y-45768559D01*
X57661289Y-45720866D01*
X57718441Y-45684090D01*
X57863431Y-45471890D01*
X57914440Y-45220000D01*
X57914440Y-44227750D01*
X62897000Y-44227750D01*
X62897000Y-44693310D01*
X62993673Y-44926699D01*
X63172302Y-45105327D01*
X63405691Y-45202000D01*
X63996250Y-45202000D01*
X64155000Y-45043250D01*
X64155000Y-44069000D01*
X63055750Y-44069000D01*
X62897000Y-44227750D01*
X57914440Y-44227750D01*
X57914440Y-43720000D01*
X57870162Y-43484683D01*
X57731090Y-43268559D01*
X57617125Y-43190690D01*
X62897000Y-43190690D01*
X62897000Y-43656250D01*
X63055750Y-43815000D01*
X64155000Y-43815000D01*
X64155000Y-42840750D01*
X63996250Y-42682000D01*
X63405691Y-42682000D01*
X63172302Y-42778673D01*
X62993673Y-42957301D01*
X62897000Y-43190690D01*
X57617125Y-43190690D01*
X57518890Y-43123569D01*
X57477000Y-43115086D01*
X57477000Y-41980451D01*
X65504560Y-41992801D01*
M02*
