%FSLAX45Y45*%
G04 Gerber Fmt 4.5, Leading zero omitted, Abs format (unit mm)*
G04 Created by KiCad (PCBNEW 4.0.7-e2-6376~61~ubuntu18.04.1) date Mon Nov  5 10:40:00 2018*
%MOMM*%
%LPD*%
G01*
G04 APERTURE LIST*
%ADD10C,0.127000*%
%ADD11C,0.150000*%
%ADD12C,0.200000*%
%ADD13C,0.300000*%
G04 APERTURE END LIST*
D10*
D11*
X3450000Y-7750000D02*
X4690000Y-7750000D01*
X3400000Y-7750000D02*
X3450000Y-7750000D01*
X4700800Y-7750000D02*
X9150800Y-7750000D01*
X3200000Y-7750000D02*
X3400000Y-7750000D01*
X7500000Y-5850000D02*
G75*
G03X7400000Y-5750000I-100000J0D01*
G01*
X7400000Y-5750000D02*
G75*
G03X7300000Y-5850000I0J-100000D01*
G01*
X7500000Y-7350000D02*
X7500000Y-5850000D01*
X7400000Y-7450000D02*
G75*
G03X7500000Y-7350000I0J100000D01*
G01*
X7300000Y-7350000D02*
G75*
G03X7400000Y-7450000I100000J0D01*
G01*
X7300000Y-7350000D02*
X7300000Y-5850000D01*
X2900000Y-4000000D02*
X2900000Y-2400000D01*
X2900000Y-4000000D02*
G75*
G03X3000000Y-4100000I100000J0D01*
G01*
X3300000Y-4100000D02*
X3000000Y-4100000D01*
X3400000Y-4200000D02*
G75*
G03X3300000Y-4100000I-100000J0D01*
G01*
X3400000Y-5700000D02*
X3400000Y-4200000D01*
X3300000Y-5800000D02*
G75*
G03X3400000Y-5700000I0J100000D01*
G01*
X3000000Y-5800000D02*
X3300000Y-5800000D01*
X3000000Y-5800000D02*
G75*
G03X2900000Y-5900000I0J-100000D01*
G01*
X2900000Y-7450000D02*
X2900000Y-5900000D01*
X2900000Y-7450000D02*
G75*
G03X3200000Y-7750000I300000J0D01*
G01*
X9100000Y-7750000D02*
G75*
G03X9400000Y-7450000I0J300000D01*
G01*
X9400000Y-2400000D02*
X9400000Y-7450000D01*
X9400000Y-2400000D02*
G75*
G03X9100000Y-2100000I-300000J0D01*
G01*
X9000000Y-2100000D02*
X9100000Y-2100000D01*
X3200000Y-2100000D02*
G75*
G03X2900000Y-2400000I0J-300000D01*
G01*
X3200000Y-2100000D02*
X9000000Y-2100000D01*
D12*
X3498850Y-3632200D02*
X3536950Y-3670300D01*
X3536950Y-3632200D02*
X3498850Y-3670300D01*
X3505200Y-3194050D02*
X3543300Y-3232150D01*
X3543300Y-3194050D02*
X3505200Y-3232150D01*
X3784600Y-3194050D02*
X3822700Y-3232150D01*
X3822700Y-3194050D02*
X3784600Y-3232150D01*
X4114800Y-3638550D02*
X4152900Y-3676650D01*
X4152900Y-3638550D02*
X4114800Y-3676650D01*
X4305300Y-3638550D02*
X4343400Y-3676650D01*
X4343400Y-3638550D02*
X4305300Y-3676650D01*
X4337050Y-4679950D02*
X4375150Y-4718050D01*
X4375150Y-4679950D02*
X4337050Y-4718050D01*
X4337050Y-4914900D02*
X4375150Y-4953000D01*
X4375150Y-4914900D02*
X4337050Y-4953000D01*
X4337050Y-5187950D02*
X4375150Y-5226050D01*
X4375150Y-5187950D02*
X4337050Y-5226050D01*
X4337050Y-5486400D02*
X4375150Y-5524500D01*
X4375150Y-5486400D02*
X4337050Y-5524500D01*
X4337050Y-5689600D02*
X4375150Y-5727700D01*
X4375150Y-5689600D02*
X4337050Y-5727700D01*
X4521200Y-5689600D02*
X4559300Y-5727700D01*
X4559300Y-5689600D02*
X4521200Y-5727700D01*
X4546600Y-4851400D02*
X4584700Y-4889500D01*
X4584700Y-4851400D02*
X4546600Y-4889500D01*
X4546600Y-5080000D02*
X4584700Y-5118100D01*
X4584700Y-5080000D02*
X4546600Y-5118100D01*
X4546600Y-5295900D02*
X4584700Y-5334000D01*
X4584700Y-5295900D02*
X4546600Y-5334000D01*
X4546600Y-5486400D02*
X4584700Y-5524500D01*
X4584700Y-5486400D02*
X4546600Y-5524500D01*
X4565650Y-4660900D02*
X4603750Y-4699000D01*
X4603750Y-4660900D02*
X4565650Y-4699000D01*
X4572000Y-3879850D02*
X4610100Y-3917950D01*
X4610100Y-3879850D02*
X4572000Y-3917950D01*
X4724400Y-4660900D02*
X4762500Y-4699000D01*
X4762500Y-4660900D02*
X4724400Y-4699000D01*
X4724400Y-4838700D02*
X4762500Y-4876800D01*
X4762500Y-4838700D02*
X4724400Y-4876800D01*
X4724400Y-5022850D02*
X4762500Y-5060950D01*
X4762500Y-5022850D02*
X4724400Y-5060950D01*
X4724400Y-5200650D02*
X4762500Y-5238750D01*
X4762500Y-5200650D02*
X4724400Y-5238750D01*
X4724400Y-5378450D02*
X4762500Y-5416550D01*
X4762500Y-5378450D02*
X4724400Y-5416550D01*
X4724400Y-5543550D02*
X4762500Y-5581650D01*
X4762500Y-5543550D02*
X4724400Y-5581650D01*
X4724400Y-5689600D02*
X4762500Y-5727700D01*
X4762500Y-5689600D02*
X4724400Y-5727700D01*
X4968250Y-2842250D02*
X5006350Y-2880350D01*
X5006350Y-2842250D02*
X4968250Y-2880350D01*
X5067300Y-3886200D02*
X5105400Y-3924300D01*
X5105400Y-3886200D02*
X5067300Y-3924300D01*
X5422900Y-4051300D02*
X5461000Y-4089400D01*
X5461000Y-4051300D02*
X5422900Y-4089400D01*
X5422900Y-4324350D02*
X5461000Y-4362450D01*
X5461000Y-4324350D02*
X5422900Y-4362450D01*
X5422900Y-4616450D02*
X5461000Y-4654550D01*
X5461000Y-4616450D02*
X5422900Y-4654550D01*
X5422900Y-4978400D02*
X5461000Y-5016500D01*
X5461000Y-4978400D02*
X5422900Y-5016500D01*
X5422900Y-5321300D02*
X5461000Y-5359400D01*
X5461000Y-5321300D02*
X5422900Y-5359400D01*
X5422900Y-5721350D02*
X5461000Y-5759450D01*
X5461000Y-5721350D02*
X5422900Y-5759450D01*
X5422900Y-6064250D02*
X5461000Y-6102350D01*
X5461000Y-6064250D02*
X5422900Y-6102350D01*
X5454650Y-6273800D02*
X5492750Y-6311900D01*
X5492750Y-6273800D02*
X5454650Y-6311900D01*
X5575300Y-3479800D02*
X5613400Y-3517900D01*
X5613400Y-3479800D02*
X5575300Y-3517900D01*
X5638800Y-2762250D02*
X5676900Y-2800350D01*
X5676900Y-2762250D02*
X5638800Y-2800350D01*
X5829300Y-4044950D02*
X5867400Y-4083050D01*
X5867400Y-4044950D02*
X5829300Y-4083050D01*
X5829300Y-4267200D02*
X5867400Y-4305300D01*
X5867400Y-4267200D02*
X5829300Y-4305300D01*
X5829300Y-4552950D02*
X5867400Y-4591050D01*
X5867400Y-4552950D02*
X5829300Y-4591050D01*
X5835650Y-3759200D02*
X5873750Y-3797300D01*
X5873750Y-3759200D02*
X5835650Y-3797300D01*
X5861050Y-4711700D02*
X5899150Y-4749800D01*
X5899150Y-4711700D02*
X5861050Y-4749800D01*
X5886450Y-5861050D02*
X5924550Y-5899150D01*
X5924550Y-5861050D02*
X5886450Y-5899150D01*
X5886450Y-6032500D02*
X5924550Y-6070600D01*
X5924550Y-6032500D02*
X5886450Y-6070600D01*
X5892800Y-3473450D02*
X5930900Y-3511550D01*
X5930900Y-3473450D02*
X5892800Y-3511550D01*
X5892800Y-3898900D02*
X5930900Y-3937000D01*
X5930900Y-3898900D02*
X5892800Y-3937000D01*
X5930900Y-5441950D02*
X5969000Y-5480050D01*
X5969000Y-5441950D02*
X5930900Y-5480050D01*
X5932550Y-5156200D02*
X5970650Y-5194300D01*
X5970650Y-5156200D02*
X5932550Y-5194300D01*
X6165850Y-3759200D02*
X6203950Y-3797300D01*
X6203950Y-3759200D02*
X6165850Y-3797300D01*
X6216650Y-3473450D02*
X6254750Y-3511550D01*
X6254750Y-3473450D02*
X6216650Y-3511550D01*
X6267450Y-6013450D02*
X6305550Y-6051550D01*
X6305550Y-6013450D02*
X6267450Y-6051550D01*
X6388100Y-3784600D02*
X6426200Y-3822700D01*
X6426200Y-3784600D02*
X6388100Y-3822700D01*
X6407150Y-4019550D02*
X6445250Y-4057650D01*
X6445250Y-4019550D02*
X6407150Y-4057650D01*
X6407150Y-4883150D02*
X6445250Y-4921250D01*
X6445250Y-4883150D02*
X6407150Y-4921250D01*
X6409150Y-4572000D02*
X6447250Y-4610100D01*
X6447250Y-4572000D02*
X6409150Y-4610100D01*
X6426200Y-5353050D02*
X6464300Y-5391150D01*
X6464300Y-5353050D02*
X6426200Y-5391150D01*
X6426200Y-6477000D02*
X6464300Y-6515100D01*
X6464300Y-6477000D02*
X6426200Y-6515100D01*
X6432550Y-5645150D02*
X6470650Y-5683250D01*
X6470650Y-5645150D02*
X6432550Y-5683250D01*
X6457950Y-6013450D02*
X6496050Y-6051550D01*
X6496050Y-6013450D02*
X6457950Y-6051550D01*
X6896100Y-3524250D02*
X6934200Y-3562350D01*
X6934200Y-3524250D02*
X6896100Y-3562350D01*
X6896100Y-3892550D02*
X6934200Y-3930650D01*
X6934200Y-3892550D02*
X6896100Y-3930650D01*
X6896100Y-4267200D02*
X6934200Y-4305300D01*
X6934200Y-4267200D02*
X6896100Y-4305300D01*
X6896100Y-4622800D02*
X6934200Y-4660900D01*
X6934200Y-4622800D02*
X6896100Y-4660900D01*
X6896100Y-4972050D02*
X6934200Y-5010150D01*
X6934200Y-4972050D02*
X6896100Y-5010150D01*
X6896100Y-5232400D02*
X6934200Y-5270500D01*
X6934200Y-5232400D02*
X6896100Y-5270500D01*
X6896100Y-5454650D02*
X6934200Y-5492750D01*
X6934200Y-5454650D02*
X6896100Y-5492750D01*
X6896100Y-5695950D02*
X6934200Y-5734050D01*
X6934200Y-5695950D02*
X6896100Y-5734050D01*
X6896100Y-5949950D02*
X6934200Y-5988050D01*
X6934200Y-5949950D02*
X6896100Y-5988050D01*
X3547800Y-3016400D02*
G75*
G03X3547800Y-3016400I-23000J0D01*
G01*
X3547800Y-3892400D02*
G75*
G03X3547800Y-3892400I-23000J0D01*
G01*
X5731800Y-7067000D02*
G75*
G03X5731800Y-7067000I-23000J0D01*
G01*
X6607800Y-7067000D02*
G75*
G03X6607800Y-7067000I-23000J0D01*
G01*
X4191000Y-4318800D02*
X4191000Y-4418800D01*
X4141000Y-4368800D02*
X4241000Y-4368800D01*
X4445000Y-4318800D02*
X4445000Y-4418800D01*
X4395000Y-4368800D02*
X4495000Y-4368800D01*
X4699000Y-4318800D02*
X4699000Y-4418800D01*
X4649000Y-4368800D02*
X4749000Y-4368800D01*
X3772921Y-2408921D02*
X3772921Y-2337079D01*
X3701079Y-2337079D01*
X3701079Y-2408921D01*
X3772921Y-2408921D01*
X3772921Y-2662921D02*
X3772921Y-2591079D01*
X3701079Y-2591079D01*
X3701079Y-2662921D01*
X3772921Y-2662921D01*
X4026921Y-2408921D02*
X4026921Y-2337079D01*
X3955079Y-2337079D01*
X3955079Y-2408921D01*
X4026921Y-2408921D01*
X4026921Y-2662921D02*
X4026921Y-2591079D01*
X3955079Y-2591079D01*
X3955079Y-2662921D01*
X4026921Y-2662921D01*
X4280921Y-2408921D02*
X4280921Y-2337079D01*
X4209079Y-2337079D01*
X4209079Y-2408921D01*
X4280921Y-2408921D01*
X4280921Y-2662921D02*
X4280921Y-2591079D01*
X4209079Y-2591079D01*
X4209079Y-2662921D01*
X4280921Y-2662921D01*
X4534921Y-2408921D02*
X4534921Y-2337079D01*
X4463079Y-2337079D01*
X4463079Y-2408921D01*
X4534921Y-2408921D01*
X4534921Y-2662921D02*
X4534921Y-2591079D01*
X4463079Y-2591079D01*
X4463079Y-2662921D01*
X4534921Y-2662921D01*
X4788921Y-2408921D02*
X4788921Y-2337079D01*
X4717079Y-2337079D01*
X4717079Y-2408921D01*
X4788921Y-2408921D01*
X4788921Y-2662921D02*
X4788921Y-2591079D01*
X4717079Y-2591079D01*
X4717079Y-2662921D01*
X4788921Y-2662921D01*
X5042921Y-2408921D02*
X5042921Y-2337079D01*
X4971079Y-2337079D01*
X4971079Y-2408921D01*
X5042921Y-2408921D01*
X5042921Y-2662921D02*
X5042921Y-2591079D01*
X4971079Y-2591079D01*
X4971079Y-2662921D01*
X5042921Y-2662921D01*
X5296921Y-2408921D02*
X5296921Y-2337079D01*
X5225079Y-2337079D01*
X5225079Y-2408921D01*
X5296921Y-2408921D01*
X5296921Y-2662921D02*
X5296921Y-2591079D01*
X5225079Y-2591079D01*
X5225079Y-2662921D01*
X5296921Y-2662921D01*
X5550921Y-2408921D02*
X5550921Y-2337079D01*
X5479079Y-2337079D01*
X5479079Y-2408921D01*
X5550921Y-2408921D01*
X5550921Y-2662921D02*
X5550921Y-2591079D01*
X5479079Y-2591079D01*
X5479079Y-2662921D01*
X5550921Y-2662921D01*
X5804921Y-2408921D02*
X5804921Y-2337079D01*
X5733079Y-2337079D01*
X5733079Y-2408921D01*
X5804921Y-2408921D01*
X5804921Y-2662921D02*
X5804921Y-2591079D01*
X5733079Y-2591079D01*
X5733079Y-2662921D01*
X5804921Y-2662921D01*
X6058921Y-2408921D02*
X6058921Y-2337079D01*
X5987079Y-2337079D01*
X5987079Y-2408921D01*
X6058921Y-2408921D01*
X6058921Y-2662921D02*
X6058921Y-2591079D01*
X5987079Y-2591079D01*
X5987079Y-2662921D01*
X6058921Y-2662921D01*
X6312921Y-2408921D02*
X6312921Y-2337079D01*
X6241079Y-2337079D01*
X6241079Y-2408921D01*
X6312921Y-2408921D01*
X6312921Y-2662921D02*
X6312921Y-2591079D01*
X6241079Y-2591079D01*
X6241079Y-2662921D01*
X6312921Y-2662921D01*
X6566921Y-2408921D02*
X6566921Y-2337079D01*
X6495079Y-2337079D01*
X6495079Y-2408921D01*
X6566921Y-2408921D01*
X6566921Y-2662921D02*
X6566921Y-2591079D01*
X6495079Y-2591079D01*
X6495079Y-2662921D01*
X6566921Y-2662921D01*
X6820921Y-2408921D02*
X6820921Y-2337079D01*
X6749079Y-2337079D01*
X6749079Y-2408921D01*
X6820921Y-2408921D01*
X6820921Y-2662921D02*
X6820921Y-2591079D01*
X6749079Y-2591079D01*
X6749079Y-2662921D01*
X6820921Y-2662921D01*
X7074921Y-2408921D02*
X7074921Y-2337079D01*
X7003079Y-2337079D01*
X7003079Y-2408921D01*
X7074921Y-2408921D01*
X7074921Y-2662921D02*
X7074921Y-2591079D01*
X7003079Y-2591079D01*
X7003079Y-2662921D01*
X7074921Y-2662921D01*
X7328921Y-2408921D02*
X7328921Y-2337079D01*
X7257079Y-2337079D01*
X7257079Y-2408921D01*
X7328921Y-2408921D01*
X7328921Y-2662921D02*
X7328921Y-2591079D01*
X7257079Y-2591079D01*
X7257079Y-2662921D01*
X7328921Y-2662921D01*
X7582921Y-2408921D02*
X7582921Y-2337079D01*
X7511079Y-2337079D01*
X7511079Y-2408921D01*
X7582921Y-2408921D01*
X7582921Y-2662921D02*
X7582921Y-2591079D01*
X7511079Y-2591079D01*
X7511079Y-2662921D01*
X7582921Y-2662921D01*
X7836921Y-2408921D02*
X7836921Y-2337079D01*
X7765079Y-2337079D01*
X7765079Y-2408921D01*
X7836921Y-2408921D01*
X7836921Y-2662921D02*
X7836921Y-2591079D01*
X7765079Y-2591079D01*
X7765079Y-2662921D01*
X7836921Y-2662921D01*
X8090921Y-2408921D02*
X8090921Y-2337079D01*
X8019079Y-2337079D01*
X8019079Y-2408921D01*
X8090921Y-2408921D01*
X8090921Y-2662921D02*
X8090921Y-2591079D01*
X8019079Y-2591079D01*
X8019079Y-2662921D01*
X8090921Y-2662921D01*
X8344921Y-2408921D02*
X8344921Y-2337079D01*
X8273079Y-2337079D01*
X8273079Y-2408921D01*
X8344921Y-2408921D01*
X8344921Y-2662921D02*
X8344921Y-2591079D01*
X8273079Y-2591079D01*
X8273079Y-2662921D01*
X8344921Y-2662921D01*
X8598921Y-2408921D02*
X8598921Y-2337079D01*
X8527079Y-2337079D01*
X8527079Y-2408921D01*
X8598921Y-2408921D01*
X8598921Y-2662921D02*
X8598921Y-2591079D01*
X8527079Y-2591079D01*
X8527079Y-2662921D01*
X8598921Y-2662921D01*
X4013200Y-7236300D02*
X4086700Y-7162800D01*
X4013200Y-7089300D01*
X3939700Y-7162800D01*
X4013200Y-7236300D01*
X4513200Y-7236300D02*
X4586700Y-7162800D01*
X4513200Y-7089300D01*
X4439700Y-7162800D01*
X4513200Y-7236300D01*
X5013200Y-7236300D02*
X5086700Y-7162800D01*
X5013200Y-7089300D01*
X4939700Y-7162800D01*
X5013200Y-7236300D01*
X3090000Y-2340000D02*
X3410000Y-2660000D01*
X3410000Y-2340000D02*
X3090000Y-2660000D01*
X3410000Y-2500000D02*
G75*
G03X3410000Y-2500000I-160000J0D01*
G01*
X3090000Y-7240000D02*
X3410000Y-7560000D01*
X3410000Y-7240000D02*
X3090000Y-7560000D01*
X3410000Y-7400000D02*
G75*
G03X3410000Y-7400000I-160000J0D01*
G01*
X8890000Y-2340000D02*
X9210000Y-2660000D01*
X9210000Y-2340000D02*
X8890000Y-2660000D01*
X9210000Y-2500000D02*
G75*
G03X9210000Y-2500000I-160000J0D01*
G01*
X8890000Y-7240000D02*
X9210000Y-7560000D01*
X9210000Y-7240000D02*
X8890000Y-7560000D01*
X9210000Y-7400000D02*
G75*
G03X9210000Y-7400000I-160000J0D01*
G01*
X4270000Y-5859800D02*
X4620000Y-6209800D01*
X4620000Y-5859800D02*
X4270000Y-6209800D01*
X4445000Y-5859800D02*
X4445000Y-6209800D01*
X4270000Y-6034800D02*
X4620000Y-6034800D01*
D13*
X3163928Y-8223214D02*
X3163928Y-7923214D01*
X3235357Y-7923214D01*
X3278214Y-7937500D01*
X3306786Y-7966071D01*
X3321071Y-7994643D01*
X3335357Y-8051786D01*
X3335357Y-8094643D01*
X3321071Y-8151786D01*
X3306786Y-8180357D01*
X3278214Y-8208929D01*
X3235357Y-8223214D01*
X3163928Y-8223214D01*
X3463928Y-8223214D02*
X3463928Y-8023214D01*
X3463928Y-8080357D02*
X3478214Y-8051786D01*
X3492500Y-8037500D01*
X3521071Y-8023214D01*
X3549643Y-8023214D01*
X3649643Y-8223214D02*
X3649643Y-8023214D01*
X3649643Y-7923214D02*
X3635357Y-7937500D01*
X3649643Y-7951786D01*
X3663928Y-7937500D01*
X3649643Y-7923214D01*
X3649643Y-7951786D01*
X3835357Y-8223214D02*
X3806786Y-8208929D01*
X3792500Y-8180357D01*
X3792500Y-7923214D01*
X3992500Y-8223214D02*
X3963928Y-8208929D01*
X3949643Y-8180357D01*
X3949643Y-7923214D01*
X4335357Y-8223214D02*
X4335357Y-7923214D01*
X4435357Y-8137500D01*
X4535357Y-7923214D01*
X4535357Y-8223214D01*
X4806786Y-8223214D02*
X4806786Y-8066071D01*
X4792500Y-8037500D01*
X4763929Y-8023214D01*
X4706786Y-8023214D01*
X4678214Y-8037500D01*
X4806786Y-8208929D02*
X4778214Y-8223214D01*
X4706786Y-8223214D01*
X4678214Y-8208929D01*
X4663929Y-8180357D01*
X4663929Y-8151786D01*
X4678214Y-8123214D01*
X4706786Y-8108929D01*
X4778214Y-8108929D01*
X4806786Y-8094643D01*
X4949643Y-8023214D02*
X4949643Y-8323214D01*
X4949643Y-8037500D02*
X4978214Y-8023214D01*
X5035357Y-8023214D01*
X5063929Y-8037500D01*
X5078214Y-8051786D01*
X5092500Y-8080357D01*
X5092500Y-8166071D01*
X5078214Y-8194643D01*
X5063929Y-8208929D01*
X5035357Y-8223214D01*
X4978214Y-8223214D01*
X4949643Y-8208929D01*
X5221071Y-8194643D02*
X5235357Y-8208929D01*
X5221071Y-8223214D01*
X5206786Y-8208929D01*
X5221071Y-8194643D01*
X5221071Y-8223214D01*
X5221071Y-8037500D02*
X5235357Y-8051786D01*
X5221071Y-8066071D01*
X5206786Y-8051786D01*
X5221071Y-8037500D01*
X5221071Y-8066071D01*
X2854400Y-8698450D02*
X2892500Y-8736550D01*
X2892500Y-8698450D02*
X2854400Y-8736550D01*
X3221071Y-8553214D02*
X3249643Y-8553214D01*
X3278214Y-8567500D01*
X3292500Y-8581786D01*
X3306786Y-8610357D01*
X3321071Y-8667500D01*
X3321071Y-8738929D01*
X3306786Y-8796072D01*
X3292500Y-8824643D01*
X3278214Y-8838929D01*
X3249643Y-8853214D01*
X3221071Y-8853214D01*
X3192500Y-8838929D01*
X3178214Y-8824643D01*
X3163928Y-8796072D01*
X3149643Y-8738929D01*
X3149643Y-8667500D01*
X3163928Y-8610357D01*
X3178214Y-8581786D01*
X3192500Y-8567500D01*
X3221071Y-8553214D01*
X3449643Y-8824643D02*
X3463928Y-8838929D01*
X3449643Y-8853214D01*
X3435357Y-8838929D01*
X3449643Y-8824643D01*
X3449643Y-8853214D01*
X3563928Y-8553214D02*
X3749643Y-8553214D01*
X3649643Y-8667500D01*
X3692500Y-8667500D01*
X3721071Y-8681786D01*
X3735357Y-8696072D01*
X3749643Y-8724643D01*
X3749643Y-8796072D01*
X3735357Y-8824643D01*
X3721071Y-8838929D01*
X3692500Y-8853214D01*
X3606786Y-8853214D01*
X3578214Y-8838929D01*
X3563928Y-8824643D01*
X3921071Y-8681786D02*
X3892500Y-8667500D01*
X3878214Y-8653214D01*
X3863928Y-8624643D01*
X3863928Y-8610357D01*
X3878214Y-8581786D01*
X3892500Y-8567500D01*
X3921071Y-8553214D01*
X3978214Y-8553214D01*
X4006786Y-8567500D01*
X4021071Y-8581786D01*
X4035357Y-8610357D01*
X4035357Y-8624643D01*
X4021071Y-8653214D01*
X4006786Y-8667500D01*
X3978214Y-8681786D01*
X3921071Y-8681786D01*
X3892500Y-8696072D01*
X3878214Y-8710357D01*
X3863928Y-8738929D01*
X3863928Y-8796072D01*
X3878214Y-8824643D01*
X3892500Y-8838929D01*
X3921071Y-8853214D01*
X3978214Y-8853214D01*
X4006786Y-8838929D01*
X4021071Y-8824643D01*
X4035357Y-8796072D01*
X4035357Y-8738929D01*
X4021071Y-8710357D01*
X4006786Y-8696072D01*
X3978214Y-8681786D01*
X4163928Y-8853214D02*
X4163928Y-8653214D01*
X4163928Y-8681786D02*
X4178214Y-8667500D01*
X4206786Y-8653214D01*
X4249643Y-8653214D01*
X4278214Y-8667500D01*
X4292500Y-8696072D01*
X4292500Y-8853214D01*
X4292500Y-8696072D02*
X4306786Y-8667500D01*
X4335357Y-8653214D01*
X4378214Y-8653214D01*
X4406786Y-8667500D01*
X4421071Y-8696072D01*
X4421071Y-8853214D01*
X4563929Y-8853214D02*
X4563929Y-8653214D01*
X4563929Y-8681786D02*
X4578214Y-8667500D01*
X4606786Y-8653214D01*
X4649643Y-8653214D01*
X4678214Y-8667500D01*
X4692500Y-8696072D01*
X4692500Y-8853214D01*
X4692500Y-8696072D02*
X4706786Y-8667500D01*
X4735357Y-8653214D01*
X4778214Y-8653214D01*
X4806786Y-8667500D01*
X4821071Y-8696072D01*
X4821071Y-8853214D01*
X5406786Y-8538929D02*
X5149643Y-8924643D01*
X5792500Y-8553214D02*
X5821071Y-8553214D01*
X5849643Y-8567500D01*
X5863928Y-8581786D01*
X5878214Y-8610357D01*
X5892500Y-8667500D01*
X5892500Y-8738929D01*
X5878214Y-8796072D01*
X5863928Y-8824643D01*
X5849643Y-8838929D01*
X5821071Y-8853214D01*
X5792500Y-8853214D01*
X5763928Y-8838929D01*
X5749643Y-8824643D01*
X5735357Y-8796072D01*
X5721071Y-8738929D01*
X5721071Y-8667500D01*
X5735357Y-8610357D01*
X5749643Y-8581786D01*
X5763928Y-8567500D01*
X5792500Y-8553214D01*
X6021071Y-8824643D02*
X6035357Y-8838929D01*
X6021071Y-8853214D01*
X6006786Y-8838929D01*
X6021071Y-8824643D01*
X6021071Y-8853214D01*
X6221071Y-8553214D02*
X6249643Y-8553214D01*
X6278214Y-8567500D01*
X6292500Y-8581786D01*
X6306785Y-8610357D01*
X6321071Y-8667500D01*
X6321071Y-8738929D01*
X6306785Y-8796072D01*
X6292500Y-8824643D01*
X6278214Y-8838929D01*
X6249643Y-8853214D01*
X6221071Y-8853214D01*
X6192500Y-8838929D01*
X6178214Y-8824643D01*
X6163928Y-8796072D01*
X6149643Y-8738929D01*
X6149643Y-8667500D01*
X6163928Y-8610357D01*
X6178214Y-8581786D01*
X6192500Y-8567500D01*
X6221071Y-8553214D01*
X6606785Y-8853214D02*
X6435357Y-8853214D01*
X6521071Y-8853214D02*
X6521071Y-8553214D01*
X6492500Y-8596072D01*
X6463928Y-8624643D01*
X6435357Y-8638929D01*
X6878214Y-8553214D02*
X6735357Y-8553214D01*
X6721071Y-8696072D01*
X6735357Y-8681786D01*
X6763928Y-8667500D01*
X6835357Y-8667500D01*
X6863928Y-8681786D01*
X6878214Y-8696072D01*
X6892500Y-8724643D01*
X6892500Y-8796072D01*
X6878214Y-8824643D01*
X6863928Y-8838929D01*
X6835357Y-8853214D01*
X6763928Y-8853214D01*
X6735357Y-8838929D01*
X6721071Y-8824643D01*
X7006786Y-8553214D02*
X7006786Y-8610357D01*
X7121071Y-8553214D02*
X7121071Y-8610357D01*
X7563928Y-8967500D02*
X7549643Y-8953214D01*
X7521071Y-8910357D01*
X7506785Y-8881786D01*
X7492500Y-8838929D01*
X7478214Y-8767500D01*
X7478214Y-8710357D01*
X7492500Y-8638929D01*
X7506785Y-8596072D01*
X7521071Y-8567500D01*
X7549643Y-8524643D01*
X7563928Y-8510357D01*
X7806785Y-8553214D02*
X7749643Y-8553214D01*
X7721071Y-8567500D01*
X7706785Y-8581786D01*
X7678214Y-8624643D01*
X7663928Y-8681786D01*
X7663928Y-8796072D01*
X7678214Y-8824643D01*
X7692500Y-8838929D01*
X7721071Y-8853214D01*
X7778214Y-8853214D01*
X7806785Y-8838929D01*
X7821071Y-8824643D01*
X7835357Y-8796072D01*
X7835357Y-8724643D01*
X7821071Y-8696072D01*
X7806785Y-8681786D01*
X7778214Y-8667500D01*
X7721071Y-8667500D01*
X7692500Y-8681786D01*
X7678214Y-8696072D01*
X7663928Y-8724643D01*
X7935357Y-8553214D02*
X8135357Y-8553214D01*
X8006785Y-8853214D01*
X8478214Y-8853214D02*
X8478214Y-8553214D01*
X8606786Y-8853214D02*
X8606786Y-8696072D01*
X8592500Y-8667500D01*
X8563928Y-8653214D01*
X8521071Y-8653214D01*
X8492500Y-8667500D01*
X8478214Y-8681786D01*
X8792500Y-8853214D02*
X8763928Y-8838929D01*
X8749643Y-8824643D01*
X8735357Y-8796072D01*
X8735357Y-8710357D01*
X8749643Y-8681786D01*
X8763928Y-8667500D01*
X8792500Y-8653214D01*
X8835357Y-8653214D01*
X8863928Y-8667500D01*
X8878214Y-8681786D01*
X8892500Y-8710357D01*
X8892500Y-8796072D01*
X8878214Y-8824643D01*
X8863928Y-8838929D01*
X8835357Y-8853214D01*
X8792500Y-8853214D01*
X9063928Y-8853214D02*
X9035357Y-8838929D01*
X9021071Y-8810357D01*
X9021071Y-8553214D01*
X9292500Y-8838929D02*
X9263929Y-8853214D01*
X9206786Y-8853214D01*
X9178214Y-8838929D01*
X9163929Y-8810357D01*
X9163929Y-8696072D01*
X9178214Y-8667500D01*
X9206786Y-8653214D01*
X9263929Y-8653214D01*
X9292500Y-8667500D01*
X9306786Y-8696072D01*
X9306786Y-8724643D01*
X9163929Y-8753214D01*
X9421071Y-8838929D02*
X9449643Y-8853214D01*
X9506786Y-8853214D01*
X9535357Y-8838929D01*
X9549643Y-8810357D01*
X9549643Y-8796072D01*
X9535357Y-8767500D01*
X9506786Y-8753214D01*
X9463929Y-8753214D01*
X9435357Y-8738929D01*
X9421071Y-8710357D01*
X9421071Y-8696072D01*
X9435357Y-8667500D01*
X9463929Y-8653214D01*
X9506786Y-8653214D01*
X9535357Y-8667500D01*
X9649643Y-8967500D02*
X9663929Y-8953214D01*
X9692500Y-8910357D01*
X9706786Y-8881786D01*
X9721071Y-8838929D01*
X9735357Y-8767500D01*
X9735357Y-8710357D01*
X9721071Y-8638929D01*
X9706786Y-8596072D01*
X9692500Y-8567500D01*
X9663929Y-8524643D01*
X9649643Y-8510357D01*
X2892500Y-9113500D02*
G75*
G03X2892500Y-9113500I-23000J0D01*
G01*
X3221071Y-8949214D02*
X3249643Y-8949214D01*
X3278214Y-8963500D01*
X3292500Y-8977786D01*
X3306786Y-9006357D01*
X3321071Y-9063500D01*
X3321071Y-9134929D01*
X3306786Y-9192072D01*
X3292500Y-9220643D01*
X3278214Y-9234929D01*
X3249643Y-9249214D01*
X3221071Y-9249214D01*
X3192500Y-9234929D01*
X3178214Y-9220643D01*
X3163928Y-9192072D01*
X3149643Y-9134929D01*
X3149643Y-9063500D01*
X3163928Y-9006357D01*
X3178214Y-8977786D01*
X3192500Y-8963500D01*
X3221071Y-8949214D01*
X3449643Y-9220643D02*
X3463928Y-9234929D01*
X3449643Y-9249214D01*
X3435357Y-9234929D01*
X3449643Y-9220643D01*
X3449643Y-9249214D01*
X3721071Y-9049214D02*
X3721071Y-9249214D01*
X3649643Y-8934929D02*
X3578214Y-9149214D01*
X3763928Y-9149214D01*
X4006786Y-8949214D02*
X3949643Y-8949214D01*
X3921071Y-8963500D01*
X3906786Y-8977786D01*
X3878214Y-9020643D01*
X3863928Y-9077786D01*
X3863928Y-9192072D01*
X3878214Y-9220643D01*
X3892500Y-9234929D01*
X3921071Y-9249214D01*
X3978214Y-9249214D01*
X4006786Y-9234929D01*
X4021071Y-9220643D01*
X4035357Y-9192072D01*
X4035357Y-9120643D01*
X4021071Y-9092072D01*
X4006786Y-9077786D01*
X3978214Y-9063500D01*
X3921071Y-9063500D01*
X3892500Y-9077786D01*
X3878214Y-9092072D01*
X3863928Y-9120643D01*
X4163928Y-9249214D02*
X4163928Y-9049214D01*
X4163928Y-9077786D02*
X4178214Y-9063500D01*
X4206786Y-9049214D01*
X4249643Y-9049214D01*
X4278214Y-9063500D01*
X4292500Y-9092072D01*
X4292500Y-9249214D01*
X4292500Y-9092072D02*
X4306786Y-9063500D01*
X4335357Y-9049214D01*
X4378214Y-9049214D01*
X4406786Y-9063500D01*
X4421071Y-9092072D01*
X4421071Y-9249214D01*
X4563929Y-9249214D02*
X4563929Y-9049214D01*
X4563929Y-9077786D02*
X4578214Y-9063500D01*
X4606786Y-9049214D01*
X4649643Y-9049214D01*
X4678214Y-9063500D01*
X4692500Y-9092072D01*
X4692500Y-9249214D01*
X4692500Y-9092072D02*
X4706786Y-9063500D01*
X4735357Y-9049214D01*
X4778214Y-9049214D01*
X4806786Y-9063500D01*
X4821071Y-9092072D01*
X4821071Y-9249214D01*
X5406786Y-8934929D02*
X5149643Y-9320643D01*
X5792500Y-8949214D02*
X5821071Y-8949214D01*
X5849643Y-8963500D01*
X5863928Y-8977786D01*
X5878214Y-9006357D01*
X5892500Y-9063500D01*
X5892500Y-9134929D01*
X5878214Y-9192072D01*
X5863928Y-9220643D01*
X5849643Y-9234929D01*
X5821071Y-9249214D01*
X5792500Y-9249214D01*
X5763928Y-9234929D01*
X5749643Y-9220643D01*
X5735357Y-9192072D01*
X5721071Y-9134929D01*
X5721071Y-9063500D01*
X5735357Y-9006357D01*
X5749643Y-8977786D01*
X5763928Y-8963500D01*
X5792500Y-8949214D01*
X6021071Y-9220643D02*
X6035357Y-9234929D01*
X6021071Y-9249214D01*
X6006786Y-9234929D01*
X6021071Y-9220643D01*
X6021071Y-9249214D01*
X6221071Y-8949214D02*
X6249643Y-8949214D01*
X6278214Y-8963500D01*
X6292500Y-8977786D01*
X6306785Y-9006357D01*
X6321071Y-9063500D01*
X6321071Y-9134929D01*
X6306785Y-9192072D01*
X6292500Y-9220643D01*
X6278214Y-9234929D01*
X6249643Y-9249214D01*
X6221071Y-9249214D01*
X6192500Y-9234929D01*
X6178214Y-9220643D01*
X6163928Y-9192072D01*
X6149643Y-9134929D01*
X6149643Y-9063500D01*
X6163928Y-9006357D01*
X6178214Y-8977786D01*
X6192500Y-8963500D01*
X6221071Y-8949214D01*
X6606785Y-9249214D02*
X6435357Y-9249214D01*
X6521071Y-9249214D02*
X6521071Y-8949214D01*
X6492500Y-8992072D01*
X6463928Y-9020643D01*
X6435357Y-9034929D01*
X6778214Y-9077786D02*
X6749643Y-9063500D01*
X6735357Y-9049214D01*
X6721071Y-9020643D01*
X6721071Y-9006357D01*
X6735357Y-8977786D01*
X6749643Y-8963500D01*
X6778214Y-8949214D01*
X6835357Y-8949214D01*
X6863928Y-8963500D01*
X6878214Y-8977786D01*
X6892500Y-9006357D01*
X6892500Y-9020643D01*
X6878214Y-9049214D01*
X6863928Y-9063500D01*
X6835357Y-9077786D01*
X6778214Y-9077786D01*
X6749643Y-9092072D01*
X6735357Y-9106357D01*
X6721071Y-9134929D01*
X6721071Y-9192072D01*
X6735357Y-9220643D01*
X6749643Y-9234929D01*
X6778214Y-9249214D01*
X6835357Y-9249214D01*
X6863928Y-9234929D01*
X6878214Y-9220643D01*
X6892500Y-9192072D01*
X6892500Y-9134929D01*
X6878214Y-9106357D01*
X6863928Y-9092072D01*
X6835357Y-9077786D01*
X7006786Y-8949214D02*
X7006786Y-9006357D01*
X7121071Y-8949214D02*
X7121071Y-9006357D01*
X7563928Y-9363500D02*
X7549643Y-9349214D01*
X7521071Y-9306357D01*
X7506785Y-9277786D01*
X7492500Y-9234929D01*
X7478214Y-9163500D01*
X7478214Y-9106357D01*
X7492500Y-9034929D01*
X7506785Y-8992072D01*
X7521071Y-8963500D01*
X7549643Y-8920643D01*
X7563928Y-8906357D01*
X7806785Y-9049214D02*
X7806785Y-9249214D01*
X7735357Y-8934929D02*
X7663928Y-9149214D01*
X7849643Y-9149214D01*
X8192500Y-9249214D02*
X8192500Y-8949214D01*
X8321071Y-9249214D02*
X8321071Y-9092072D01*
X8306785Y-9063500D01*
X8278214Y-9049214D01*
X8235357Y-9049214D01*
X8206785Y-9063500D01*
X8192500Y-9077786D01*
X8506786Y-9249214D02*
X8478214Y-9234929D01*
X8463928Y-9220643D01*
X8449643Y-9192072D01*
X8449643Y-9106357D01*
X8463928Y-9077786D01*
X8478214Y-9063500D01*
X8506786Y-9049214D01*
X8549643Y-9049214D01*
X8578214Y-9063500D01*
X8592500Y-9077786D01*
X8606786Y-9106357D01*
X8606786Y-9192072D01*
X8592500Y-9220643D01*
X8578214Y-9234929D01*
X8549643Y-9249214D01*
X8506786Y-9249214D01*
X8778214Y-9249214D02*
X8749643Y-9234929D01*
X8735357Y-9206357D01*
X8735357Y-8949214D01*
X9006786Y-9234929D02*
X8978214Y-9249214D01*
X8921071Y-9249214D01*
X8892500Y-9234929D01*
X8878214Y-9206357D01*
X8878214Y-9092072D01*
X8892500Y-9063500D01*
X8921071Y-9049214D01*
X8978214Y-9049214D01*
X9006786Y-9063500D01*
X9021071Y-9092072D01*
X9021071Y-9120643D01*
X8878214Y-9149214D01*
X9135357Y-9234929D02*
X9163929Y-9249214D01*
X9221071Y-9249214D01*
X9249643Y-9234929D01*
X9263929Y-9206357D01*
X9263929Y-9192072D01*
X9249643Y-9163500D01*
X9221071Y-9149214D01*
X9178214Y-9149214D01*
X9149643Y-9134929D01*
X9135357Y-9106357D01*
X9135357Y-9092072D01*
X9149643Y-9063500D01*
X9178214Y-9049214D01*
X9221071Y-9049214D01*
X9249643Y-9063500D01*
X9363928Y-9363500D02*
X9378214Y-9349214D01*
X9406786Y-9306357D01*
X9421071Y-9277786D01*
X9435357Y-9234929D01*
X9449643Y-9163500D01*
X9449643Y-9106357D01*
X9435357Y-9034929D01*
X9421071Y-8992072D01*
X9406786Y-8963500D01*
X9378214Y-8920643D01*
X9363928Y-8906357D01*
X2842500Y-9459500D02*
X2842500Y-9559500D01*
X2792500Y-9509500D02*
X2892500Y-9509500D01*
X3321071Y-9645214D02*
X3149643Y-9645214D01*
X3235357Y-9645214D02*
X3235357Y-9345214D01*
X3206786Y-9388072D01*
X3178214Y-9416643D01*
X3149643Y-9430929D01*
X3449643Y-9616643D02*
X3463928Y-9630929D01*
X3449643Y-9645214D01*
X3435357Y-9630929D01*
X3449643Y-9616643D01*
X3449643Y-9645214D01*
X3649643Y-9345214D02*
X3678214Y-9345214D01*
X3706786Y-9359500D01*
X3721071Y-9373786D01*
X3735357Y-9402357D01*
X3749643Y-9459500D01*
X3749643Y-9530929D01*
X3735357Y-9588072D01*
X3721071Y-9616643D01*
X3706786Y-9630929D01*
X3678214Y-9645214D01*
X3649643Y-9645214D01*
X3621071Y-9630929D01*
X3606786Y-9616643D01*
X3592500Y-9588072D01*
X3578214Y-9530929D01*
X3578214Y-9459500D01*
X3592500Y-9402357D01*
X3606786Y-9373786D01*
X3621071Y-9359500D01*
X3649643Y-9345214D01*
X3935357Y-9345214D02*
X3963928Y-9345214D01*
X3992500Y-9359500D01*
X4006786Y-9373786D01*
X4021071Y-9402357D01*
X4035357Y-9459500D01*
X4035357Y-9530929D01*
X4021071Y-9588072D01*
X4006786Y-9616643D01*
X3992500Y-9630929D01*
X3963928Y-9645214D01*
X3935357Y-9645214D01*
X3906786Y-9630929D01*
X3892500Y-9616643D01*
X3878214Y-9588072D01*
X3863928Y-9530929D01*
X3863928Y-9459500D01*
X3878214Y-9402357D01*
X3892500Y-9373786D01*
X3906786Y-9359500D01*
X3935357Y-9345214D01*
X4163928Y-9645214D02*
X4163928Y-9445214D01*
X4163928Y-9473786D02*
X4178214Y-9459500D01*
X4206786Y-9445214D01*
X4249643Y-9445214D01*
X4278214Y-9459500D01*
X4292500Y-9488072D01*
X4292500Y-9645214D01*
X4292500Y-9488072D02*
X4306786Y-9459500D01*
X4335357Y-9445214D01*
X4378214Y-9445214D01*
X4406786Y-9459500D01*
X4421071Y-9488072D01*
X4421071Y-9645214D01*
X4563929Y-9645214D02*
X4563929Y-9445214D01*
X4563929Y-9473786D02*
X4578214Y-9459500D01*
X4606786Y-9445214D01*
X4649643Y-9445214D01*
X4678214Y-9459500D01*
X4692500Y-9488072D01*
X4692500Y-9645214D01*
X4692500Y-9488072D02*
X4706786Y-9459500D01*
X4735357Y-9445214D01*
X4778214Y-9445214D01*
X4806786Y-9459500D01*
X4821071Y-9488072D01*
X4821071Y-9645214D01*
X5406786Y-9330929D02*
X5149643Y-9716643D01*
X5792500Y-9345214D02*
X5821071Y-9345214D01*
X5849643Y-9359500D01*
X5863928Y-9373786D01*
X5878214Y-9402357D01*
X5892500Y-9459500D01*
X5892500Y-9530929D01*
X5878214Y-9588072D01*
X5863928Y-9616643D01*
X5849643Y-9630929D01*
X5821071Y-9645214D01*
X5792500Y-9645214D01*
X5763928Y-9630929D01*
X5749643Y-9616643D01*
X5735357Y-9588072D01*
X5721071Y-9530929D01*
X5721071Y-9459500D01*
X5735357Y-9402357D01*
X5749643Y-9373786D01*
X5763928Y-9359500D01*
X5792500Y-9345214D01*
X6021071Y-9616643D02*
X6035357Y-9630929D01*
X6021071Y-9645214D01*
X6006786Y-9630929D01*
X6021071Y-9616643D01*
X6021071Y-9645214D01*
X6221071Y-9345214D02*
X6249643Y-9345214D01*
X6278214Y-9359500D01*
X6292500Y-9373786D01*
X6306785Y-9402357D01*
X6321071Y-9459500D01*
X6321071Y-9530929D01*
X6306785Y-9588072D01*
X6292500Y-9616643D01*
X6278214Y-9630929D01*
X6249643Y-9645214D01*
X6221071Y-9645214D01*
X6192500Y-9630929D01*
X6178214Y-9616643D01*
X6163928Y-9588072D01*
X6149643Y-9530929D01*
X6149643Y-9459500D01*
X6163928Y-9402357D01*
X6178214Y-9373786D01*
X6192500Y-9359500D01*
X6221071Y-9345214D01*
X6421071Y-9345214D02*
X6606785Y-9345214D01*
X6506785Y-9459500D01*
X6549643Y-9459500D01*
X6578214Y-9473786D01*
X6592500Y-9488072D01*
X6606785Y-9516643D01*
X6606785Y-9588072D01*
X6592500Y-9616643D01*
X6578214Y-9630929D01*
X6549643Y-9645214D01*
X6463928Y-9645214D01*
X6435357Y-9630929D01*
X6421071Y-9616643D01*
X6749643Y-9645214D02*
X6806785Y-9645214D01*
X6835357Y-9630929D01*
X6849643Y-9616643D01*
X6878214Y-9573786D01*
X6892500Y-9516643D01*
X6892500Y-9402357D01*
X6878214Y-9373786D01*
X6863928Y-9359500D01*
X6835357Y-9345214D01*
X6778214Y-9345214D01*
X6749643Y-9359500D01*
X6735357Y-9373786D01*
X6721071Y-9402357D01*
X6721071Y-9473786D01*
X6735357Y-9502357D01*
X6749643Y-9516643D01*
X6778214Y-9530929D01*
X6835357Y-9530929D01*
X6863928Y-9516643D01*
X6878214Y-9502357D01*
X6892500Y-9473786D01*
X7006786Y-9345214D02*
X7006786Y-9402357D01*
X7121071Y-9345214D02*
X7121071Y-9402357D01*
X7563928Y-9759500D02*
X7549643Y-9745214D01*
X7521071Y-9702357D01*
X7506785Y-9673786D01*
X7492500Y-9630929D01*
X7478214Y-9559500D01*
X7478214Y-9502357D01*
X7492500Y-9430929D01*
X7506785Y-9388072D01*
X7521071Y-9359500D01*
X7549643Y-9316643D01*
X7563928Y-9302357D01*
X7649643Y-9345214D02*
X7835357Y-9345214D01*
X7735357Y-9459500D01*
X7778214Y-9459500D01*
X7806785Y-9473786D01*
X7821071Y-9488072D01*
X7835357Y-9516643D01*
X7835357Y-9588072D01*
X7821071Y-9616643D01*
X7806785Y-9630929D01*
X7778214Y-9645214D01*
X7692500Y-9645214D01*
X7663928Y-9630929D01*
X7649643Y-9616643D01*
X8192500Y-9645214D02*
X8192500Y-9345214D01*
X8321071Y-9645214D02*
X8321071Y-9488072D01*
X8306785Y-9459500D01*
X8278214Y-9445214D01*
X8235357Y-9445214D01*
X8206785Y-9459500D01*
X8192500Y-9473786D01*
X8506786Y-9645214D02*
X8478214Y-9630929D01*
X8463928Y-9616643D01*
X8449643Y-9588072D01*
X8449643Y-9502357D01*
X8463928Y-9473786D01*
X8478214Y-9459500D01*
X8506786Y-9445214D01*
X8549643Y-9445214D01*
X8578214Y-9459500D01*
X8592500Y-9473786D01*
X8606786Y-9502357D01*
X8606786Y-9588072D01*
X8592500Y-9616643D01*
X8578214Y-9630929D01*
X8549643Y-9645214D01*
X8506786Y-9645214D01*
X8778214Y-9645214D02*
X8749643Y-9630929D01*
X8735357Y-9602357D01*
X8735357Y-9345214D01*
X9006786Y-9630929D02*
X8978214Y-9645214D01*
X8921071Y-9645214D01*
X8892500Y-9630929D01*
X8878214Y-9602357D01*
X8878214Y-9488072D01*
X8892500Y-9459500D01*
X8921071Y-9445214D01*
X8978214Y-9445214D01*
X9006786Y-9459500D01*
X9021071Y-9488072D01*
X9021071Y-9516643D01*
X8878214Y-9545214D01*
X9135357Y-9630929D02*
X9163929Y-9645214D01*
X9221071Y-9645214D01*
X9249643Y-9630929D01*
X9263929Y-9602357D01*
X9263929Y-9588072D01*
X9249643Y-9559500D01*
X9221071Y-9545214D01*
X9178214Y-9545214D01*
X9149643Y-9530929D01*
X9135357Y-9502357D01*
X9135357Y-9488072D01*
X9149643Y-9459500D01*
X9178214Y-9445214D01*
X9221071Y-9445214D01*
X9249643Y-9459500D01*
X9363928Y-9759500D02*
X9378214Y-9745214D01*
X9406786Y-9702357D01*
X9421071Y-9673786D01*
X9435357Y-9630929D01*
X9449643Y-9559500D01*
X9449643Y-9502357D01*
X9435357Y-9430929D01*
X9421071Y-9388072D01*
X9406786Y-9359500D01*
X9378214Y-9316643D01*
X9363928Y-9302357D01*
X2877621Y-9941422D02*
X2877621Y-9869579D01*
X2805778Y-9869579D01*
X2805778Y-9941422D01*
X2877621Y-9941422D01*
X3321071Y-10041214D02*
X3149643Y-10041214D01*
X3235357Y-10041214D02*
X3235357Y-9741214D01*
X3206786Y-9784072D01*
X3178214Y-9812643D01*
X3149643Y-9826929D01*
X3449643Y-10012643D02*
X3463928Y-10026929D01*
X3449643Y-10041214D01*
X3435357Y-10026929D01*
X3449643Y-10012643D01*
X3449643Y-10041214D01*
X3649643Y-9741214D02*
X3678214Y-9741214D01*
X3706786Y-9755500D01*
X3721071Y-9769786D01*
X3735357Y-9798357D01*
X3749643Y-9855500D01*
X3749643Y-9926929D01*
X3735357Y-9984072D01*
X3721071Y-10012643D01*
X3706786Y-10026929D01*
X3678214Y-10041214D01*
X3649643Y-10041214D01*
X3621071Y-10026929D01*
X3606786Y-10012643D01*
X3592500Y-9984072D01*
X3578214Y-9926929D01*
X3578214Y-9855500D01*
X3592500Y-9798357D01*
X3606786Y-9769786D01*
X3621071Y-9755500D01*
X3649643Y-9741214D01*
X3863928Y-9769786D02*
X3878214Y-9755500D01*
X3906786Y-9741214D01*
X3978214Y-9741214D01*
X4006786Y-9755500D01*
X4021071Y-9769786D01*
X4035357Y-9798357D01*
X4035357Y-9826929D01*
X4021071Y-9869786D01*
X3849643Y-10041214D01*
X4035357Y-10041214D01*
X4163928Y-10041214D02*
X4163928Y-9841214D01*
X4163928Y-9869786D02*
X4178214Y-9855500D01*
X4206786Y-9841214D01*
X4249643Y-9841214D01*
X4278214Y-9855500D01*
X4292500Y-9884072D01*
X4292500Y-10041214D01*
X4292500Y-9884072D02*
X4306786Y-9855500D01*
X4335357Y-9841214D01*
X4378214Y-9841214D01*
X4406786Y-9855500D01*
X4421071Y-9884072D01*
X4421071Y-10041214D01*
X4563929Y-10041214D02*
X4563929Y-9841214D01*
X4563929Y-9869786D02*
X4578214Y-9855500D01*
X4606786Y-9841214D01*
X4649643Y-9841214D01*
X4678214Y-9855500D01*
X4692500Y-9884072D01*
X4692500Y-10041214D01*
X4692500Y-9884072D02*
X4706786Y-9855500D01*
X4735357Y-9841214D01*
X4778214Y-9841214D01*
X4806786Y-9855500D01*
X4821071Y-9884072D01*
X4821071Y-10041214D01*
X5406786Y-9726929D02*
X5149643Y-10112643D01*
X5792500Y-9741214D02*
X5821071Y-9741214D01*
X5849643Y-9755500D01*
X5863928Y-9769786D01*
X5878214Y-9798357D01*
X5892500Y-9855500D01*
X5892500Y-9926929D01*
X5878214Y-9984072D01*
X5863928Y-10012643D01*
X5849643Y-10026929D01*
X5821071Y-10041214D01*
X5792500Y-10041214D01*
X5763928Y-10026929D01*
X5749643Y-10012643D01*
X5735357Y-9984072D01*
X5721071Y-9926929D01*
X5721071Y-9855500D01*
X5735357Y-9798357D01*
X5749643Y-9769786D01*
X5763928Y-9755500D01*
X5792500Y-9741214D01*
X6021071Y-10012643D02*
X6035357Y-10026929D01*
X6021071Y-10041214D01*
X6006786Y-10026929D01*
X6021071Y-10012643D01*
X6021071Y-10041214D01*
X6221071Y-9741214D02*
X6249643Y-9741214D01*
X6278214Y-9755500D01*
X6292500Y-9769786D01*
X6306785Y-9798357D01*
X6321071Y-9855500D01*
X6321071Y-9926929D01*
X6306785Y-9984072D01*
X6292500Y-10012643D01*
X6278214Y-10026929D01*
X6249643Y-10041214D01*
X6221071Y-10041214D01*
X6192500Y-10026929D01*
X6178214Y-10012643D01*
X6163928Y-9984072D01*
X6149643Y-9926929D01*
X6149643Y-9855500D01*
X6163928Y-9798357D01*
X6178214Y-9769786D01*
X6192500Y-9755500D01*
X6221071Y-9741214D01*
X6578214Y-9841214D02*
X6578214Y-10041214D01*
X6506785Y-9726929D02*
X6435357Y-9941214D01*
X6621071Y-9941214D01*
X6792500Y-9741214D02*
X6821071Y-9741214D01*
X6849643Y-9755500D01*
X6863928Y-9769786D01*
X6878214Y-9798357D01*
X6892500Y-9855500D01*
X6892500Y-9926929D01*
X6878214Y-9984072D01*
X6863928Y-10012643D01*
X6849643Y-10026929D01*
X6821071Y-10041214D01*
X6792500Y-10041214D01*
X6763928Y-10026929D01*
X6749643Y-10012643D01*
X6735357Y-9984072D01*
X6721071Y-9926929D01*
X6721071Y-9855500D01*
X6735357Y-9798357D01*
X6749643Y-9769786D01*
X6763928Y-9755500D01*
X6792500Y-9741214D01*
X7006786Y-9741214D02*
X7006786Y-9798357D01*
X7121071Y-9741214D02*
X7121071Y-9798357D01*
X7563928Y-10155500D02*
X7549643Y-10141214D01*
X7521071Y-10098357D01*
X7506785Y-10069786D01*
X7492500Y-10026929D01*
X7478214Y-9955500D01*
X7478214Y-9898357D01*
X7492500Y-9826929D01*
X7506785Y-9784072D01*
X7521071Y-9755500D01*
X7549643Y-9712643D01*
X7563928Y-9698357D01*
X7806785Y-9841214D02*
X7806785Y-10041214D01*
X7735357Y-9726929D02*
X7663928Y-9941214D01*
X7849643Y-9941214D01*
X8021071Y-9741214D02*
X8049643Y-9741214D01*
X8078214Y-9755500D01*
X8092500Y-9769786D01*
X8106785Y-9798357D01*
X8121071Y-9855500D01*
X8121071Y-9926929D01*
X8106785Y-9984072D01*
X8092500Y-10012643D01*
X8078214Y-10026929D01*
X8049643Y-10041214D01*
X8021071Y-10041214D01*
X7992500Y-10026929D01*
X7978214Y-10012643D01*
X7963928Y-9984072D01*
X7949643Y-9926929D01*
X7949643Y-9855500D01*
X7963928Y-9798357D01*
X7978214Y-9769786D01*
X7992500Y-9755500D01*
X8021071Y-9741214D01*
X8478214Y-10041214D02*
X8478214Y-9741214D01*
X8606786Y-10041214D02*
X8606786Y-9884072D01*
X8592500Y-9855500D01*
X8563928Y-9841214D01*
X8521071Y-9841214D01*
X8492500Y-9855500D01*
X8478214Y-9869786D01*
X8792500Y-10041214D02*
X8763928Y-10026929D01*
X8749643Y-10012643D01*
X8735357Y-9984072D01*
X8735357Y-9898357D01*
X8749643Y-9869786D01*
X8763928Y-9855500D01*
X8792500Y-9841214D01*
X8835357Y-9841214D01*
X8863928Y-9855500D01*
X8878214Y-9869786D01*
X8892500Y-9898357D01*
X8892500Y-9984072D01*
X8878214Y-10012643D01*
X8863928Y-10026929D01*
X8835357Y-10041214D01*
X8792500Y-10041214D01*
X9063928Y-10041214D02*
X9035357Y-10026929D01*
X9021071Y-9998357D01*
X9021071Y-9741214D01*
X9292500Y-10026929D02*
X9263929Y-10041214D01*
X9206786Y-10041214D01*
X9178214Y-10026929D01*
X9163929Y-9998357D01*
X9163929Y-9884072D01*
X9178214Y-9855500D01*
X9206786Y-9841214D01*
X9263929Y-9841214D01*
X9292500Y-9855500D01*
X9306786Y-9884072D01*
X9306786Y-9912643D01*
X9163929Y-9941214D01*
X9421071Y-10026929D02*
X9449643Y-10041214D01*
X9506786Y-10041214D01*
X9535357Y-10026929D01*
X9549643Y-9998357D01*
X9549643Y-9984072D01*
X9535357Y-9955500D01*
X9506786Y-9941214D01*
X9463929Y-9941214D01*
X9435357Y-9926929D01*
X9421071Y-9898357D01*
X9421071Y-9884072D01*
X9435357Y-9855500D01*
X9463929Y-9841214D01*
X9506786Y-9841214D01*
X9535357Y-9855500D01*
X9649643Y-10155500D02*
X9663929Y-10141214D01*
X9692500Y-10098357D01*
X9706786Y-10069786D01*
X9721071Y-10026929D01*
X9735357Y-9955500D01*
X9735357Y-9898357D01*
X9721071Y-9826929D01*
X9706786Y-9784072D01*
X9692500Y-9755500D01*
X9663929Y-9712643D01*
X9649643Y-9698357D01*
X2819000Y-10375000D02*
X2892500Y-10301500D01*
X2819000Y-10228000D01*
X2745500Y-10301500D01*
X2819000Y-10375000D01*
X3321071Y-10437214D02*
X3149643Y-10437214D01*
X3235357Y-10437214D02*
X3235357Y-10137214D01*
X3206786Y-10180072D01*
X3178214Y-10208643D01*
X3149643Y-10222929D01*
X3449643Y-10408643D02*
X3463928Y-10422929D01*
X3449643Y-10437214D01*
X3435357Y-10422929D01*
X3449643Y-10408643D01*
X3449643Y-10437214D01*
X3721071Y-10237214D02*
X3721071Y-10437214D01*
X3649643Y-10122929D02*
X3578214Y-10337214D01*
X3763928Y-10337214D01*
X3849643Y-10137214D02*
X4049643Y-10137214D01*
X3921071Y-10437214D01*
X4163928Y-10437214D02*
X4163928Y-10237214D01*
X4163928Y-10265786D02*
X4178214Y-10251500D01*
X4206786Y-10237214D01*
X4249643Y-10237214D01*
X4278214Y-10251500D01*
X4292500Y-10280072D01*
X4292500Y-10437214D01*
X4292500Y-10280072D02*
X4306786Y-10251500D01*
X4335357Y-10237214D01*
X4378214Y-10237214D01*
X4406786Y-10251500D01*
X4421071Y-10280072D01*
X4421071Y-10437214D01*
X4563929Y-10437214D02*
X4563929Y-10237214D01*
X4563929Y-10265786D02*
X4578214Y-10251500D01*
X4606786Y-10237214D01*
X4649643Y-10237214D01*
X4678214Y-10251500D01*
X4692500Y-10280072D01*
X4692500Y-10437214D01*
X4692500Y-10280072D02*
X4706786Y-10251500D01*
X4735357Y-10237214D01*
X4778214Y-10237214D01*
X4806786Y-10251500D01*
X4821071Y-10280072D01*
X4821071Y-10437214D01*
X5406786Y-10122929D02*
X5149643Y-10508643D01*
X5792500Y-10137214D02*
X5821071Y-10137214D01*
X5849643Y-10151500D01*
X5863928Y-10165786D01*
X5878214Y-10194357D01*
X5892500Y-10251500D01*
X5892500Y-10322929D01*
X5878214Y-10380072D01*
X5863928Y-10408643D01*
X5849643Y-10422929D01*
X5821071Y-10437214D01*
X5792500Y-10437214D01*
X5763928Y-10422929D01*
X5749643Y-10408643D01*
X5735357Y-10380072D01*
X5721071Y-10322929D01*
X5721071Y-10251500D01*
X5735357Y-10194357D01*
X5749643Y-10165786D01*
X5763928Y-10151500D01*
X5792500Y-10137214D01*
X6021071Y-10408643D02*
X6035357Y-10422929D01*
X6021071Y-10437214D01*
X6006786Y-10422929D01*
X6021071Y-10408643D01*
X6021071Y-10437214D01*
X6221071Y-10137214D02*
X6249643Y-10137214D01*
X6278214Y-10151500D01*
X6292500Y-10165786D01*
X6306785Y-10194357D01*
X6321071Y-10251500D01*
X6321071Y-10322929D01*
X6306785Y-10380072D01*
X6292500Y-10408643D01*
X6278214Y-10422929D01*
X6249643Y-10437214D01*
X6221071Y-10437214D01*
X6192500Y-10422929D01*
X6178214Y-10408643D01*
X6163928Y-10380072D01*
X6149643Y-10322929D01*
X6149643Y-10251500D01*
X6163928Y-10194357D01*
X6178214Y-10165786D01*
X6192500Y-10151500D01*
X6221071Y-10137214D01*
X6592500Y-10137214D02*
X6449643Y-10137214D01*
X6435357Y-10280072D01*
X6449643Y-10265786D01*
X6478214Y-10251500D01*
X6549643Y-10251500D01*
X6578214Y-10265786D01*
X6592500Y-10280072D01*
X6606785Y-10308643D01*
X6606785Y-10380072D01*
X6592500Y-10408643D01*
X6578214Y-10422929D01*
X6549643Y-10437214D01*
X6478214Y-10437214D01*
X6449643Y-10422929D01*
X6435357Y-10408643D01*
X6778214Y-10265786D02*
X6749643Y-10251500D01*
X6735357Y-10237214D01*
X6721071Y-10208643D01*
X6721071Y-10194357D01*
X6735357Y-10165786D01*
X6749643Y-10151500D01*
X6778214Y-10137214D01*
X6835357Y-10137214D01*
X6863928Y-10151500D01*
X6878214Y-10165786D01*
X6892500Y-10194357D01*
X6892500Y-10208643D01*
X6878214Y-10237214D01*
X6863928Y-10251500D01*
X6835357Y-10265786D01*
X6778214Y-10265786D01*
X6749643Y-10280072D01*
X6735357Y-10294357D01*
X6721071Y-10322929D01*
X6721071Y-10380072D01*
X6735357Y-10408643D01*
X6749643Y-10422929D01*
X6778214Y-10437214D01*
X6835357Y-10437214D01*
X6863928Y-10422929D01*
X6878214Y-10408643D01*
X6892500Y-10380072D01*
X6892500Y-10322929D01*
X6878214Y-10294357D01*
X6863928Y-10280072D01*
X6835357Y-10265786D01*
X7006786Y-10137214D02*
X7006786Y-10194357D01*
X7121071Y-10137214D02*
X7121071Y-10194357D01*
X7563928Y-10551500D02*
X7549643Y-10537214D01*
X7521071Y-10494357D01*
X7506785Y-10465786D01*
X7492500Y-10422929D01*
X7478214Y-10351500D01*
X7478214Y-10294357D01*
X7492500Y-10222929D01*
X7506785Y-10180072D01*
X7521071Y-10151500D01*
X7549643Y-10108643D01*
X7563928Y-10094357D01*
X7649643Y-10137214D02*
X7835357Y-10137214D01*
X7735357Y-10251500D01*
X7778214Y-10251500D01*
X7806785Y-10265786D01*
X7821071Y-10280072D01*
X7835357Y-10308643D01*
X7835357Y-10380072D01*
X7821071Y-10408643D01*
X7806785Y-10422929D01*
X7778214Y-10437214D01*
X7692500Y-10437214D01*
X7663928Y-10422929D01*
X7649643Y-10408643D01*
X8192500Y-10437214D02*
X8192500Y-10137214D01*
X8321071Y-10437214D02*
X8321071Y-10280072D01*
X8306785Y-10251500D01*
X8278214Y-10237214D01*
X8235357Y-10237214D01*
X8206785Y-10251500D01*
X8192500Y-10265786D01*
X8506786Y-10437214D02*
X8478214Y-10422929D01*
X8463928Y-10408643D01*
X8449643Y-10380072D01*
X8449643Y-10294357D01*
X8463928Y-10265786D01*
X8478214Y-10251500D01*
X8506786Y-10237214D01*
X8549643Y-10237214D01*
X8578214Y-10251500D01*
X8592500Y-10265786D01*
X8606786Y-10294357D01*
X8606786Y-10380072D01*
X8592500Y-10408643D01*
X8578214Y-10422929D01*
X8549643Y-10437214D01*
X8506786Y-10437214D01*
X8778214Y-10437214D02*
X8749643Y-10422929D01*
X8735357Y-10394357D01*
X8735357Y-10137214D01*
X9006786Y-10422929D02*
X8978214Y-10437214D01*
X8921071Y-10437214D01*
X8892500Y-10422929D01*
X8878214Y-10394357D01*
X8878214Y-10280072D01*
X8892500Y-10251500D01*
X8921071Y-10237214D01*
X8978214Y-10237214D01*
X9006786Y-10251500D01*
X9021071Y-10280072D01*
X9021071Y-10308643D01*
X8878214Y-10337214D01*
X9135357Y-10422929D02*
X9163929Y-10437214D01*
X9221071Y-10437214D01*
X9249643Y-10422929D01*
X9263929Y-10394357D01*
X9263929Y-10380072D01*
X9249643Y-10351500D01*
X9221071Y-10337214D01*
X9178214Y-10337214D01*
X9149643Y-10322929D01*
X9135357Y-10294357D01*
X9135357Y-10280072D01*
X9149643Y-10251500D01*
X9178214Y-10237214D01*
X9221071Y-10237214D01*
X9249643Y-10251500D01*
X9363928Y-10551500D02*
X9378214Y-10537214D01*
X9406786Y-10494357D01*
X9421071Y-10465786D01*
X9435357Y-10422929D01*
X9449643Y-10351500D01*
X9449643Y-10294357D01*
X9435357Y-10222929D01*
X9421071Y-10180072D01*
X9406786Y-10151500D01*
X9378214Y-10108643D01*
X9363928Y-10094357D01*
X2572500Y-10537500D02*
X2892500Y-10857500D01*
X2892500Y-10537500D02*
X2572500Y-10857500D01*
X2892500Y-10697500D02*
G75*
G03X2892500Y-10697500I-160000J0D01*
G01*
X3135357Y-10533214D02*
X3321071Y-10533214D01*
X3221071Y-10647500D01*
X3263928Y-10647500D01*
X3292500Y-10661786D01*
X3306786Y-10676072D01*
X3321071Y-10704643D01*
X3321071Y-10776072D01*
X3306786Y-10804643D01*
X3292500Y-10818929D01*
X3263928Y-10833214D01*
X3178214Y-10833214D01*
X3149643Y-10818929D01*
X3135357Y-10804643D01*
X3449643Y-10804643D02*
X3463928Y-10818929D01*
X3449643Y-10833214D01*
X3435357Y-10818929D01*
X3449643Y-10804643D01*
X3449643Y-10833214D01*
X3578214Y-10561786D02*
X3592500Y-10547500D01*
X3621071Y-10533214D01*
X3692500Y-10533214D01*
X3721071Y-10547500D01*
X3735357Y-10561786D01*
X3749643Y-10590357D01*
X3749643Y-10618929D01*
X3735357Y-10661786D01*
X3563928Y-10833214D01*
X3749643Y-10833214D01*
X3935357Y-10533214D02*
X3963928Y-10533214D01*
X3992500Y-10547500D01*
X4006786Y-10561786D01*
X4021071Y-10590357D01*
X4035357Y-10647500D01*
X4035357Y-10718929D01*
X4021071Y-10776072D01*
X4006786Y-10804643D01*
X3992500Y-10818929D01*
X3963928Y-10833214D01*
X3935357Y-10833214D01*
X3906786Y-10818929D01*
X3892500Y-10804643D01*
X3878214Y-10776072D01*
X3863928Y-10718929D01*
X3863928Y-10647500D01*
X3878214Y-10590357D01*
X3892500Y-10561786D01*
X3906786Y-10547500D01*
X3935357Y-10533214D01*
X4163928Y-10833214D02*
X4163928Y-10633214D01*
X4163928Y-10661786D02*
X4178214Y-10647500D01*
X4206786Y-10633214D01*
X4249643Y-10633214D01*
X4278214Y-10647500D01*
X4292500Y-10676072D01*
X4292500Y-10833214D01*
X4292500Y-10676072D02*
X4306786Y-10647500D01*
X4335357Y-10633214D01*
X4378214Y-10633214D01*
X4406786Y-10647500D01*
X4421071Y-10676072D01*
X4421071Y-10833214D01*
X4563929Y-10833214D02*
X4563929Y-10633214D01*
X4563929Y-10661786D02*
X4578214Y-10647500D01*
X4606786Y-10633214D01*
X4649643Y-10633214D01*
X4678214Y-10647500D01*
X4692500Y-10676072D01*
X4692500Y-10833214D01*
X4692500Y-10676072D02*
X4706786Y-10647500D01*
X4735357Y-10633214D01*
X4778214Y-10633214D01*
X4806786Y-10647500D01*
X4821071Y-10676072D01*
X4821071Y-10833214D01*
X5406786Y-10518929D02*
X5149643Y-10904643D01*
X5792500Y-10533214D02*
X5821071Y-10533214D01*
X5849643Y-10547500D01*
X5863928Y-10561786D01*
X5878214Y-10590357D01*
X5892500Y-10647500D01*
X5892500Y-10718929D01*
X5878214Y-10776072D01*
X5863928Y-10804643D01*
X5849643Y-10818929D01*
X5821071Y-10833214D01*
X5792500Y-10833214D01*
X5763928Y-10818929D01*
X5749643Y-10804643D01*
X5735357Y-10776072D01*
X5721071Y-10718929D01*
X5721071Y-10647500D01*
X5735357Y-10590357D01*
X5749643Y-10561786D01*
X5763928Y-10547500D01*
X5792500Y-10533214D01*
X6021071Y-10804643D02*
X6035357Y-10818929D01*
X6021071Y-10833214D01*
X6006786Y-10818929D01*
X6021071Y-10804643D01*
X6021071Y-10833214D01*
X6321071Y-10833214D02*
X6149643Y-10833214D01*
X6235357Y-10833214D02*
X6235357Y-10533214D01*
X6206785Y-10576072D01*
X6178214Y-10604643D01*
X6149643Y-10618929D01*
X6435357Y-10561786D02*
X6449643Y-10547500D01*
X6478214Y-10533214D01*
X6549643Y-10533214D01*
X6578214Y-10547500D01*
X6592500Y-10561786D01*
X6606785Y-10590357D01*
X6606785Y-10618929D01*
X6592500Y-10661786D01*
X6421071Y-10833214D01*
X6606785Y-10833214D01*
X6863928Y-10533214D02*
X6806785Y-10533214D01*
X6778214Y-10547500D01*
X6763928Y-10561786D01*
X6735357Y-10604643D01*
X6721071Y-10661786D01*
X6721071Y-10776072D01*
X6735357Y-10804643D01*
X6749643Y-10818929D01*
X6778214Y-10833214D01*
X6835357Y-10833214D01*
X6863928Y-10818929D01*
X6878214Y-10804643D01*
X6892500Y-10776072D01*
X6892500Y-10704643D01*
X6878214Y-10676072D01*
X6863928Y-10661786D01*
X6835357Y-10647500D01*
X6778214Y-10647500D01*
X6749643Y-10661786D01*
X6735357Y-10676072D01*
X6721071Y-10704643D01*
X7006786Y-10533214D02*
X7006786Y-10590357D01*
X7121071Y-10533214D02*
X7121071Y-10590357D01*
X7563928Y-10947500D02*
X7549643Y-10933214D01*
X7521071Y-10890357D01*
X7506785Y-10861786D01*
X7492500Y-10818929D01*
X7478214Y-10747500D01*
X7478214Y-10690357D01*
X7492500Y-10618929D01*
X7506785Y-10576072D01*
X7521071Y-10547500D01*
X7549643Y-10504643D01*
X7563928Y-10490357D01*
X7806785Y-10633214D02*
X7806785Y-10833214D01*
X7735357Y-10518929D02*
X7663928Y-10733214D01*
X7849643Y-10733214D01*
X8192500Y-10833214D02*
X8192500Y-10533214D01*
X8321071Y-10833214D02*
X8321071Y-10676072D01*
X8306785Y-10647500D01*
X8278214Y-10633214D01*
X8235357Y-10633214D01*
X8206785Y-10647500D01*
X8192500Y-10661786D01*
X8506786Y-10833214D02*
X8478214Y-10818929D01*
X8463928Y-10804643D01*
X8449643Y-10776072D01*
X8449643Y-10690357D01*
X8463928Y-10661786D01*
X8478214Y-10647500D01*
X8506786Y-10633214D01*
X8549643Y-10633214D01*
X8578214Y-10647500D01*
X8592500Y-10661786D01*
X8606786Y-10690357D01*
X8606786Y-10776072D01*
X8592500Y-10804643D01*
X8578214Y-10818929D01*
X8549643Y-10833214D01*
X8506786Y-10833214D01*
X8778214Y-10833214D02*
X8749643Y-10818929D01*
X8735357Y-10790357D01*
X8735357Y-10533214D01*
X9006786Y-10818929D02*
X8978214Y-10833214D01*
X8921071Y-10833214D01*
X8892500Y-10818929D01*
X8878214Y-10790357D01*
X8878214Y-10676072D01*
X8892500Y-10647500D01*
X8921071Y-10633214D01*
X8978214Y-10633214D01*
X9006786Y-10647500D01*
X9021071Y-10676072D01*
X9021071Y-10704643D01*
X8878214Y-10733214D01*
X9135357Y-10818929D02*
X9163929Y-10833214D01*
X9221071Y-10833214D01*
X9249643Y-10818929D01*
X9263929Y-10790357D01*
X9263929Y-10776072D01*
X9249643Y-10747500D01*
X9221071Y-10733214D01*
X9178214Y-10733214D01*
X9149643Y-10718929D01*
X9135357Y-10690357D01*
X9135357Y-10676072D01*
X9149643Y-10647500D01*
X9178214Y-10633214D01*
X9221071Y-10633214D01*
X9249643Y-10647500D01*
X9363928Y-10947500D02*
X9378214Y-10933214D01*
X9406786Y-10890357D01*
X9421071Y-10861786D01*
X9435357Y-10818929D01*
X9449643Y-10747500D01*
X9449643Y-10690357D01*
X9435357Y-10618929D01*
X9421071Y-10576072D01*
X9406786Y-10547500D01*
X9378214Y-10504643D01*
X9363928Y-10490357D01*
X9906786Y-10947500D02*
X9892500Y-10933214D01*
X9863928Y-10890357D01*
X9849643Y-10861786D01*
X9835357Y-10818929D01*
X9821071Y-10747500D01*
X9821071Y-10690357D01*
X9835357Y-10618929D01*
X9849643Y-10576072D01*
X9863928Y-10547500D01*
X9892500Y-10504643D01*
X9906786Y-10490357D01*
X10021071Y-10633214D02*
X10021071Y-10833214D01*
X10021071Y-10661786D02*
X10035357Y-10647500D01*
X10063928Y-10633214D01*
X10106786Y-10633214D01*
X10135357Y-10647500D01*
X10149643Y-10676072D01*
X10149643Y-10833214D01*
X10335357Y-10833214D02*
X10306786Y-10818929D01*
X10292500Y-10804643D01*
X10278214Y-10776072D01*
X10278214Y-10690357D01*
X10292500Y-10661786D01*
X10306786Y-10647500D01*
X10335357Y-10633214D01*
X10378214Y-10633214D01*
X10406786Y-10647500D01*
X10421071Y-10661786D01*
X10435357Y-10690357D01*
X10435357Y-10776072D01*
X10421071Y-10804643D01*
X10406786Y-10818929D01*
X10378214Y-10833214D01*
X10335357Y-10833214D01*
X10521071Y-10633214D02*
X10635357Y-10633214D01*
X10563929Y-10533214D02*
X10563929Y-10790357D01*
X10578214Y-10818929D01*
X10606786Y-10833214D01*
X10635357Y-10833214D01*
X10963929Y-10633214D02*
X10963929Y-10933214D01*
X10963929Y-10647500D02*
X10992500Y-10633214D01*
X11049643Y-10633214D01*
X11078214Y-10647500D01*
X11092500Y-10661786D01*
X11106786Y-10690357D01*
X11106786Y-10776072D01*
X11092500Y-10804643D01*
X11078214Y-10818929D01*
X11049643Y-10833214D01*
X10992500Y-10833214D01*
X10963929Y-10818929D01*
X11278214Y-10833214D02*
X11249643Y-10818929D01*
X11235357Y-10790357D01*
X11235357Y-10533214D01*
X11521071Y-10833214D02*
X11521071Y-10676072D01*
X11506786Y-10647500D01*
X11478214Y-10633214D01*
X11421071Y-10633214D01*
X11392500Y-10647500D01*
X11521071Y-10818929D02*
X11492500Y-10833214D01*
X11421071Y-10833214D01*
X11392500Y-10818929D01*
X11378214Y-10790357D01*
X11378214Y-10761786D01*
X11392500Y-10733214D01*
X11421071Y-10718929D01*
X11492500Y-10718929D01*
X11521071Y-10704643D01*
X11621071Y-10633214D02*
X11735357Y-10633214D01*
X11663929Y-10533214D02*
X11663929Y-10790357D01*
X11678214Y-10818929D01*
X11706786Y-10833214D01*
X11735357Y-10833214D01*
X11949643Y-10818929D02*
X11921071Y-10833214D01*
X11863929Y-10833214D01*
X11835357Y-10818929D01*
X11821071Y-10790357D01*
X11821071Y-10676072D01*
X11835357Y-10647500D01*
X11863929Y-10633214D01*
X11921071Y-10633214D01*
X11949643Y-10647500D01*
X11963929Y-10676072D01*
X11963929Y-10704643D01*
X11821071Y-10733214D01*
X12221071Y-10833214D02*
X12221071Y-10533214D01*
X12221071Y-10818929D02*
X12192500Y-10833214D01*
X12135357Y-10833214D01*
X12106786Y-10818929D01*
X12092500Y-10804643D01*
X12078214Y-10776072D01*
X12078214Y-10690357D01*
X12092500Y-10661786D01*
X12106786Y-10647500D01*
X12135357Y-10633214D01*
X12192500Y-10633214D01*
X12221071Y-10647500D01*
X12335357Y-10947500D02*
X12349643Y-10933214D01*
X12378214Y-10890357D01*
X12392500Y-10861786D01*
X12406786Y-10818929D01*
X12421071Y-10747500D01*
X12421071Y-10690357D01*
X12406786Y-10618929D01*
X12392500Y-10576072D01*
X12378214Y-10547500D01*
X12349643Y-10504643D01*
X12335357Y-10490357D01*
X2542500Y-10972500D02*
X2892500Y-11322500D01*
X2892500Y-10972500D02*
X2542500Y-11322500D01*
X2717500Y-10972500D02*
X2717500Y-11322500D01*
X2542500Y-11147500D02*
X2892500Y-11147500D01*
X3135357Y-10983214D02*
X3321071Y-10983214D01*
X3221071Y-11097500D01*
X3263928Y-11097500D01*
X3292500Y-11111786D01*
X3306786Y-11126072D01*
X3321071Y-11154643D01*
X3321071Y-11226071D01*
X3306786Y-11254643D01*
X3292500Y-11268929D01*
X3263928Y-11283214D01*
X3178214Y-11283214D01*
X3149643Y-11268929D01*
X3135357Y-11254643D01*
X3449643Y-11254643D02*
X3463928Y-11268929D01*
X3449643Y-11283214D01*
X3435357Y-11268929D01*
X3449643Y-11254643D01*
X3449643Y-11283214D01*
X3735357Y-10983214D02*
X3592500Y-10983214D01*
X3578214Y-11126072D01*
X3592500Y-11111786D01*
X3621071Y-11097500D01*
X3692500Y-11097500D01*
X3721071Y-11111786D01*
X3735357Y-11126072D01*
X3749643Y-11154643D01*
X3749643Y-11226071D01*
X3735357Y-11254643D01*
X3721071Y-11268929D01*
X3692500Y-11283214D01*
X3621071Y-11283214D01*
X3592500Y-11268929D01*
X3578214Y-11254643D01*
X3935357Y-10983214D02*
X3963928Y-10983214D01*
X3992500Y-10997500D01*
X4006786Y-11011786D01*
X4021071Y-11040357D01*
X4035357Y-11097500D01*
X4035357Y-11168929D01*
X4021071Y-11226071D01*
X4006786Y-11254643D01*
X3992500Y-11268929D01*
X3963928Y-11283214D01*
X3935357Y-11283214D01*
X3906786Y-11268929D01*
X3892500Y-11254643D01*
X3878214Y-11226071D01*
X3863928Y-11168929D01*
X3863928Y-11097500D01*
X3878214Y-11040357D01*
X3892500Y-11011786D01*
X3906786Y-10997500D01*
X3935357Y-10983214D01*
X4163928Y-11283214D02*
X4163928Y-11083214D01*
X4163928Y-11111786D02*
X4178214Y-11097500D01*
X4206786Y-11083214D01*
X4249643Y-11083214D01*
X4278214Y-11097500D01*
X4292500Y-11126072D01*
X4292500Y-11283214D01*
X4292500Y-11126072D02*
X4306786Y-11097500D01*
X4335357Y-11083214D01*
X4378214Y-11083214D01*
X4406786Y-11097500D01*
X4421071Y-11126072D01*
X4421071Y-11283214D01*
X4563929Y-11283214D02*
X4563929Y-11083214D01*
X4563929Y-11111786D02*
X4578214Y-11097500D01*
X4606786Y-11083214D01*
X4649643Y-11083214D01*
X4678214Y-11097500D01*
X4692500Y-11126072D01*
X4692500Y-11283214D01*
X4692500Y-11126072D02*
X4706786Y-11097500D01*
X4735357Y-11083214D01*
X4778214Y-11083214D01*
X4806786Y-11097500D01*
X4821071Y-11126072D01*
X4821071Y-11283214D01*
X5406786Y-10968929D02*
X5149643Y-11354643D01*
X5792500Y-10983214D02*
X5821071Y-10983214D01*
X5849643Y-10997500D01*
X5863928Y-11011786D01*
X5878214Y-11040357D01*
X5892500Y-11097500D01*
X5892500Y-11168929D01*
X5878214Y-11226071D01*
X5863928Y-11254643D01*
X5849643Y-11268929D01*
X5821071Y-11283214D01*
X5792500Y-11283214D01*
X5763928Y-11268929D01*
X5749643Y-11254643D01*
X5735357Y-11226071D01*
X5721071Y-11168929D01*
X5721071Y-11097500D01*
X5735357Y-11040357D01*
X5749643Y-11011786D01*
X5763928Y-10997500D01*
X5792500Y-10983214D01*
X6021071Y-11254643D02*
X6035357Y-11268929D01*
X6021071Y-11283214D01*
X6006786Y-11268929D01*
X6021071Y-11254643D01*
X6021071Y-11283214D01*
X6321071Y-11283214D02*
X6149643Y-11283214D01*
X6235357Y-11283214D02*
X6235357Y-10983214D01*
X6206785Y-11026072D01*
X6178214Y-11054643D01*
X6149643Y-11068929D01*
X6421071Y-10983214D02*
X6606785Y-10983214D01*
X6506785Y-11097500D01*
X6549643Y-11097500D01*
X6578214Y-11111786D01*
X6592500Y-11126072D01*
X6606785Y-11154643D01*
X6606785Y-11226071D01*
X6592500Y-11254643D01*
X6578214Y-11268929D01*
X6549643Y-11283214D01*
X6463928Y-11283214D01*
X6435357Y-11268929D01*
X6421071Y-11254643D01*
X6778214Y-11111786D02*
X6749643Y-11097500D01*
X6735357Y-11083214D01*
X6721071Y-11054643D01*
X6721071Y-11040357D01*
X6735357Y-11011786D01*
X6749643Y-10997500D01*
X6778214Y-10983214D01*
X6835357Y-10983214D01*
X6863928Y-10997500D01*
X6878214Y-11011786D01*
X6892500Y-11040357D01*
X6892500Y-11054643D01*
X6878214Y-11083214D01*
X6863928Y-11097500D01*
X6835357Y-11111786D01*
X6778214Y-11111786D01*
X6749643Y-11126072D01*
X6735357Y-11140357D01*
X6721071Y-11168929D01*
X6721071Y-11226071D01*
X6735357Y-11254643D01*
X6749643Y-11268929D01*
X6778214Y-11283214D01*
X6835357Y-11283214D01*
X6863928Y-11268929D01*
X6878214Y-11254643D01*
X6892500Y-11226071D01*
X6892500Y-11168929D01*
X6878214Y-11140357D01*
X6863928Y-11126072D01*
X6835357Y-11111786D01*
X7006786Y-10983214D02*
X7006786Y-11040357D01*
X7121071Y-10983214D02*
X7121071Y-11040357D01*
X7563928Y-11397500D02*
X7549643Y-11383214D01*
X7521071Y-11340357D01*
X7506785Y-11311786D01*
X7492500Y-11268929D01*
X7478214Y-11197500D01*
X7478214Y-11140357D01*
X7492500Y-11068929D01*
X7506785Y-11026072D01*
X7521071Y-10997500D01*
X7549643Y-10954643D01*
X7563928Y-10940357D01*
X7835357Y-11283214D02*
X7663928Y-11283214D01*
X7749643Y-11283214D02*
X7749643Y-10983214D01*
X7721071Y-11026072D01*
X7692500Y-11054643D01*
X7663928Y-11068929D01*
X8192500Y-11283214D02*
X8192500Y-10983214D01*
X8321071Y-11283214D02*
X8321071Y-11126072D01*
X8306785Y-11097500D01*
X8278214Y-11083214D01*
X8235357Y-11083214D01*
X8206785Y-11097500D01*
X8192500Y-11111786D01*
X8506786Y-11283214D02*
X8478214Y-11268929D01*
X8463928Y-11254643D01*
X8449643Y-11226071D01*
X8449643Y-11140357D01*
X8463928Y-11111786D01*
X8478214Y-11097500D01*
X8506786Y-11083214D01*
X8549643Y-11083214D01*
X8578214Y-11097500D01*
X8592500Y-11111786D01*
X8606786Y-11140357D01*
X8606786Y-11226071D01*
X8592500Y-11254643D01*
X8578214Y-11268929D01*
X8549643Y-11283214D01*
X8506786Y-11283214D01*
X8778214Y-11283214D02*
X8749643Y-11268929D01*
X8735357Y-11240357D01*
X8735357Y-10983214D01*
X9006786Y-11268929D02*
X8978214Y-11283214D01*
X8921071Y-11283214D01*
X8892500Y-11268929D01*
X8878214Y-11240357D01*
X8878214Y-11126072D01*
X8892500Y-11097500D01*
X8921071Y-11083214D01*
X8978214Y-11083214D01*
X9006786Y-11097500D01*
X9021071Y-11126072D01*
X9021071Y-11154643D01*
X8878214Y-11183214D01*
X9121071Y-11397500D02*
X9135357Y-11383214D01*
X9163929Y-11340357D01*
X9178214Y-11311786D01*
X9192500Y-11268929D01*
X9206786Y-11197500D01*
X9206786Y-11140357D01*
X9192500Y-11068929D01*
X9178214Y-11026072D01*
X9163929Y-10997500D01*
X9135357Y-10954643D01*
X9121071Y-10940357D01*
X9663929Y-11397500D02*
X9649643Y-11383214D01*
X9621071Y-11340357D01*
X9606786Y-11311786D01*
X9592500Y-11268929D01*
X9578214Y-11197500D01*
X9578214Y-11140357D01*
X9592500Y-11068929D01*
X9606786Y-11026072D01*
X9621071Y-10997500D01*
X9649643Y-10954643D01*
X9663929Y-10940357D01*
X9778214Y-11083214D02*
X9778214Y-11283214D01*
X9778214Y-11111786D02*
X9792500Y-11097500D01*
X9821071Y-11083214D01*
X9863929Y-11083214D01*
X9892500Y-11097500D01*
X9906786Y-11126072D01*
X9906786Y-11283214D01*
X10092500Y-11283214D02*
X10063929Y-11268929D01*
X10049643Y-11254643D01*
X10035357Y-11226071D01*
X10035357Y-11140357D01*
X10049643Y-11111786D01*
X10063929Y-11097500D01*
X10092500Y-11083214D01*
X10135357Y-11083214D01*
X10163929Y-11097500D01*
X10178214Y-11111786D01*
X10192500Y-11140357D01*
X10192500Y-11226071D01*
X10178214Y-11254643D01*
X10163929Y-11268929D01*
X10135357Y-11283214D01*
X10092500Y-11283214D01*
X10278214Y-11083214D02*
X10392500Y-11083214D01*
X10321071Y-10983214D02*
X10321071Y-11240357D01*
X10335357Y-11268929D01*
X10363929Y-11283214D01*
X10392500Y-11283214D01*
X10721071Y-11083214D02*
X10721071Y-11383214D01*
X10721071Y-11097500D02*
X10749643Y-11083214D01*
X10806786Y-11083214D01*
X10835357Y-11097500D01*
X10849643Y-11111786D01*
X10863929Y-11140357D01*
X10863929Y-11226071D01*
X10849643Y-11254643D01*
X10835357Y-11268929D01*
X10806786Y-11283214D01*
X10749643Y-11283214D01*
X10721071Y-11268929D01*
X11035357Y-11283214D02*
X11006786Y-11268929D01*
X10992500Y-11240357D01*
X10992500Y-10983214D01*
X11278214Y-11283214D02*
X11278214Y-11126072D01*
X11263929Y-11097500D01*
X11235357Y-11083214D01*
X11178214Y-11083214D01*
X11149643Y-11097500D01*
X11278214Y-11268929D02*
X11249643Y-11283214D01*
X11178214Y-11283214D01*
X11149643Y-11268929D01*
X11135357Y-11240357D01*
X11135357Y-11211786D01*
X11149643Y-11183214D01*
X11178214Y-11168929D01*
X11249643Y-11168929D01*
X11278214Y-11154643D01*
X11378214Y-11083214D02*
X11492500Y-11083214D01*
X11421071Y-10983214D02*
X11421071Y-11240357D01*
X11435357Y-11268929D01*
X11463929Y-11283214D01*
X11492500Y-11283214D01*
X11706786Y-11268929D02*
X11678214Y-11283214D01*
X11621071Y-11283214D01*
X11592500Y-11268929D01*
X11578214Y-11240357D01*
X11578214Y-11126072D01*
X11592500Y-11097500D01*
X11621071Y-11083214D01*
X11678214Y-11083214D01*
X11706786Y-11097500D01*
X11721071Y-11126072D01*
X11721071Y-11154643D01*
X11578214Y-11183214D01*
X11978214Y-11283214D02*
X11978214Y-10983214D01*
X11978214Y-11268929D02*
X11949643Y-11283214D01*
X11892500Y-11283214D01*
X11863929Y-11268929D01*
X11849643Y-11254643D01*
X11835357Y-11226071D01*
X11835357Y-11140357D01*
X11849643Y-11111786D01*
X11863929Y-11097500D01*
X11892500Y-11083214D01*
X11949643Y-11083214D01*
X11978214Y-11097500D01*
X12092500Y-11397500D02*
X12106786Y-11383214D01*
X12135357Y-11340357D01*
X12149643Y-11311786D01*
X12163929Y-11268929D01*
X12178214Y-11197500D01*
X12178214Y-11140357D01*
X12163929Y-11068929D01*
X12149643Y-11026072D01*
X12135357Y-10997500D01*
X12106786Y-10954643D01*
X12092500Y-10940357D01*
M02*
